M48
; DRILL file {KiCad 9.0.6} date 2026-04-14T17:44:01-0400
; FORMAT={-:-/ absolute / metric / decimal}
; #@! TF.CreationDate,2026-04-14T17:44:01-04:00
; #@! TF.GenerationSoftware,Kicad,Pcbnew,9.0.6
; #@! TF.FileFunction,MixedPlating,1,2
FMAT,2
METRIC
; #@! TA.AperFunction,Plated,PTH,ViaDrill
T1C0.300
; #@! TA.AperFunction,Plated,PTH,ComponentDrill
T2C1.000
; #@! TA.AperFunction,Plated,PTH,ComponentDrill
T3C1.100
%
G90
G05
T1
X133.55Y-83.6
X133.6Y-85.4
X133.85Y-90.3
X135.85Y-83.6
X135.85Y-94.8
X135.9Y-85.4
X135.9Y-90.35
X137.65Y-94.8
X138.35Y-87.2
X138.45Y-88.4
X138.6Y-80.45
X138.65Y-86.55
X139.4Y-94.7
X139.45Y-89.6
X139.5Y-87.2
X139.5Y-88.4
X140.65Y-88.4
X140.7Y-89.55
X141.05Y-80.45
X141.25Y-82.9
X142.05Y-89.6
X142.05Y-90.9
X143.6Y-82.9
X143.6Y-85.15
X143.65Y-80.5
X143.8Y-90.85
X144.1Y-98.15
X144.112Y-96.562
X146.0Y-94.4
X146.25Y-80.8
X147.25Y-97.15
X148.3Y-85.35
X148.5Y-98.0
X149.5Y-87.55
X151.7Y-96.45
X152.9Y-81.15
X152.9Y-83.3
X152.9Y-85.55
X155.0Y-90.0
X155.05Y-81.2
X155.05Y-89.1
X155.15Y-83.5
X155.2Y-85.65
X155.278Y-95.95
X156.2Y-98.599
X156.65Y-92.75
X156.65Y-97.8
X157.35Y-81.2
X157.4Y-83.4
X157.4Y-85.6
X157.9Y-89.1
X158.05Y-93.1
X159.4Y-90.0
X159.75Y-85.7
X159.8Y-83.4
X159.85Y-81.2
X160.2Y-98.55
X161.2Y-96.75
X161.2Y-97.75
X161.3Y-93.65
X162.15Y-83.5
X162.3Y-81.2
X162.6Y-86.55
X163.25Y-95.95
X164.75Y-81.3
X164.75Y-83.55
X164.85Y-85.55
X165.55Y-96.85
X166.799Y-88.499
X169.399Y-88.499
X172.85Y-87.95
X172.85Y-90.05
X172.89Y-93.74
X174.35Y-84.1
X174.8Y-92.1
X174.85Y-90.05
X174.9Y-87.95
X176.4Y-84.1
X176.85Y-90.05
X176.85Y-92.1
X176.85Y-94.15
X178.2Y-98.35
X178.4Y-84.1
X179.0Y-94.15
X179.05Y-92.1
X180.1Y-86.1
X180.2Y-88.15
X180.35Y-84.15
X181.15Y-94.15
X181.8Y-98.35
X182.1Y-90.2
X182.15Y-86.1
X182.25Y-88.2
X182.35Y-84.2
X184.15Y-90.3
X184.15Y-94.25
X184.2Y-86.15
X184.2Y-92.3
X184.25Y-88.15
X184.35Y-84.2
X186.2Y-88.2
X186.2Y-90.3
X186.2Y-92.3
X186.2Y-94.25
X186.2Y-96.25
X186.25Y-86.2
X186.3Y-82.05
X186.3Y-84.15
X186.9Y-80.25
T2
X167.81Y-81.498
X167.81Y-96.737
X170.35Y-81.498
X170.35Y-96.737
X172.89Y-81.498
X172.89Y-96.737
X175.43Y-81.498
X175.43Y-96.737
X177.97Y-81.498
X177.97Y-96.737
X180.51Y-81.498
X180.51Y-96.737
X183.05Y-81.498
X183.05Y-96.737
T3
X134.3Y-92.5
X134.3Y-97.0
X140.8Y-92.5
X140.8Y-97.0
M30
