%TF.GenerationSoftware,KiCad,Pcbnew,9.0.6*%
%TF.CreationDate,2026-04-14T17:42:44-04:00*%
%TF.ProjectId,Smart_Glasses_V2_PCB_RIGHT,536d6172-745f-4476-9c61-737365735f56,rev?*%
%TF.SameCoordinates,Original*%
%TF.FileFunction,Legend,Top*%
%TF.FilePolarity,Positive*%
%FSLAX46Y46*%
G04 Gerber Fmt 4.6, Leading zero omitted, Abs format (unit mm)*
G04 Created by KiCad (PCBNEW 9.0.6) date 2026-04-14 17:42:44*
%MOMM*%
%LPD*%
G01*
G04 APERTURE LIST*
%ADD10C,0.150000*%
%ADD11C,0.120000*%
%ADD12C,0.127000*%
%ADD13C,0.200000*%
G04 APERTURE END LIST*
D10*
X145283333Y-98404819D02*
X144950000Y-97928628D01*
X144711905Y-98404819D02*
X144711905Y-97404819D01*
X144711905Y-97404819D02*
X145092857Y-97404819D01*
X145092857Y-97404819D02*
X145188095Y-97452438D01*
X145188095Y-97452438D02*
X145235714Y-97500057D01*
X145235714Y-97500057D02*
X145283333Y-97595295D01*
X145283333Y-97595295D02*
X145283333Y-97738152D01*
X145283333Y-97738152D02*
X145235714Y-97833390D01*
X145235714Y-97833390D02*
X145188095Y-97881009D01*
X145188095Y-97881009D02*
X145092857Y-97928628D01*
X145092857Y-97928628D02*
X144711905Y-97928628D01*
X146235714Y-98404819D02*
X145664286Y-98404819D01*
X145950000Y-98404819D02*
X145950000Y-97404819D01*
X145950000Y-97404819D02*
X145854762Y-97547676D01*
X145854762Y-97547676D02*
X145759524Y-97642914D01*
X145759524Y-97642914D02*
X145664286Y-97690533D01*
X151598333Y-96359580D02*
X151550714Y-96407200D01*
X151550714Y-96407200D02*
X151407857Y-96454819D01*
X151407857Y-96454819D02*
X151312619Y-96454819D01*
X151312619Y-96454819D02*
X151169762Y-96407200D01*
X151169762Y-96407200D02*
X151074524Y-96311961D01*
X151074524Y-96311961D02*
X151026905Y-96216723D01*
X151026905Y-96216723D02*
X150979286Y-96026247D01*
X150979286Y-96026247D02*
X150979286Y-95883390D01*
X150979286Y-95883390D02*
X151026905Y-95692914D01*
X151026905Y-95692914D02*
X151074524Y-95597676D01*
X151074524Y-95597676D02*
X151169762Y-95502438D01*
X151169762Y-95502438D02*
X151312619Y-95454819D01*
X151312619Y-95454819D02*
X151407857Y-95454819D01*
X151407857Y-95454819D02*
X151550714Y-95502438D01*
X151550714Y-95502438D02*
X151598333Y-95550057D01*
X151979286Y-95550057D02*
X152026905Y-95502438D01*
X152026905Y-95502438D02*
X152122143Y-95454819D01*
X152122143Y-95454819D02*
X152360238Y-95454819D01*
X152360238Y-95454819D02*
X152455476Y-95502438D01*
X152455476Y-95502438D02*
X152503095Y-95550057D01*
X152503095Y-95550057D02*
X152550714Y-95645295D01*
X152550714Y-95645295D02*
X152550714Y-95740533D01*
X152550714Y-95740533D02*
X152503095Y-95883390D01*
X152503095Y-95883390D02*
X151931667Y-96454819D01*
X151931667Y-96454819D02*
X152550714Y-96454819D01*
X145259580Y-91816666D02*
X145307200Y-91864285D01*
X145307200Y-91864285D02*
X145354819Y-92007142D01*
X145354819Y-92007142D02*
X145354819Y-92102380D01*
X145354819Y-92102380D02*
X145307200Y-92245237D01*
X145307200Y-92245237D02*
X145211961Y-92340475D01*
X145211961Y-92340475D02*
X145116723Y-92388094D01*
X145116723Y-92388094D02*
X144926247Y-92435713D01*
X144926247Y-92435713D02*
X144783390Y-92435713D01*
X144783390Y-92435713D02*
X144592914Y-92388094D01*
X144592914Y-92388094D02*
X144497676Y-92340475D01*
X144497676Y-92340475D02*
X144402438Y-92245237D01*
X144402438Y-92245237D02*
X144354819Y-92102380D01*
X144354819Y-92102380D02*
X144354819Y-92007142D01*
X144354819Y-92007142D02*
X144402438Y-91864285D01*
X144402438Y-91864285D02*
X144450057Y-91816666D01*
X144688152Y-90959523D02*
X145354819Y-90959523D01*
X144307200Y-91197618D02*
X145021485Y-91435713D01*
X145021485Y-91435713D02*
X145021485Y-90816666D01*
X136216667Y-90907200D02*
X136359524Y-90954819D01*
X136359524Y-90954819D02*
X136597619Y-90954819D01*
X136597619Y-90954819D02*
X136692857Y-90907200D01*
X136692857Y-90907200D02*
X136740476Y-90859580D01*
X136740476Y-90859580D02*
X136788095Y-90764342D01*
X136788095Y-90764342D02*
X136788095Y-90669104D01*
X136788095Y-90669104D02*
X136740476Y-90573866D01*
X136740476Y-90573866D02*
X136692857Y-90526247D01*
X136692857Y-90526247D02*
X136597619Y-90478628D01*
X136597619Y-90478628D02*
X136407143Y-90431009D01*
X136407143Y-90431009D02*
X136311905Y-90383390D01*
X136311905Y-90383390D02*
X136264286Y-90335771D01*
X136264286Y-90335771D02*
X136216667Y-90240533D01*
X136216667Y-90240533D02*
X136216667Y-90145295D01*
X136216667Y-90145295D02*
X136264286Y-90050057D01*
X136264286Y-90050057D02*
X136311905Y-90002438D01*
X136311905Y-90002438D02*
X136407143Y-89954819D01*
X136407143Y-89954819D02*
X136645238Y-89954819D01*
X136645238Y-89954819D02*
X136788095Y-90002438D01*
X137121429Y-89954819D02*
X137359524Y-90954819D01*
X137359524Y-90954819D02*
X137550000Y-90240533D01*
X137550000Y-90240533D02*
X137740476Y-90954819D01*
X137740476Y-90954819D02*
X137978572Y-89954819D01*
X138883333Y-90954819D02*
X138311905Y-90954819D01*
X138597619Y-90954819D02*
X138597619Y-89954819D01*
X138597619Y-89954819D02*
X138502381Y-90097676D01*
X138502381Y-90097676D02*
X138407143Y-90192914D01*
X138407143Y-90192914D02*
X138311905Y-90240533D01*
X151598333Y-97959580D02*
X151550714Y-98007200D01*
X151550714Y-98007200D02*
X151407857Y-98054819D01*
X151407857Y-98054819D02*
X151312619Y-98054819D01*
X151312619Y-98054819D02*
X151169762Y-98007200D01*
X151169762Y-98007200D02*
X151074524Y-97911961D01*
X151074524Y-97911961D02*
X151026905Y-97816723D01*
X151026905Y-97816723D02*
X150979286Y-97626247D01*
X150979286Y-97626247D02*
X150979286Y-97483390D01*
X150979286Y-97483390D02*
X151026905Y-97292914D01*
X151026905Y-97292914D02*
X151074524Y-97197676D01*
X151074524Y-97197676D02*
X151169762Y-97102438D01*
X151169762Y-97102438D02*
X151312619Y-97054819D01*
X151312619Y-97054819D02*
X151407857Y-97054819D01*
X151407857Y-97054819D02*
X151550714Y-97102438D01*
X151550714Y-97102438D02*
X151598333Y-97150057D01*
X152550714Y-98054819D02*
X151979286Y-98054819D01*
X152265000Y-98054819D02*
X152265000Y-97054819D01*
X152265000Y-97054819D02*
X152169762Y-97197676D01*
X152169762Y-97197676D02*
X152074524Y-97292914D01*
X152074524Y-97292914D02*
X151979286Y-97340533D01*
X160854819Y-97333333D02*
X161569104Y-97333333D01*
X161569104Y-97333333D02*
X161711961Y-97380952D01*
X161711961Y-97380952D02*
X161807200Y-97476190D01*
X161807200Y-97476190D02*
X161854819Y-97619047D01*
X161854819Y-97619047D02*
X161854819Y-97714285D01*
X161854819Y-96333333D02*
X161854819Y-96904761D01*
X161854819Y-96619047D02*
X160854819Y-96619047D01*
X160854819Y-96619047D02*
X160997676Y-96714285D01*
X160997676Y-96714285D02*
X161092914Y-96809523D01*
X161092914Y-96809523D02*
X161140533Y-96904761D01*
X140624819Y-85638333D02*
X141339104Y-85638333D01*
X141339104Y-85638333D02*
X141481961Y-85685952D01*
X141481961Y-85685952D02*
X141577200Y-85781190D01*
X141577200Y-85781190D02*
X141624819Y-85924047D01*
X141624819Y-85924047D02*
X141624819Y-86019285D01*
X140720057Y-85209761D02*
X140672438Y-85162142D01*
X140672438Y-85162142D02*
X140624819Y-85066904D01*
X140624819Y-85066904D02*
X140624819Y-84828809D01*
X140624819Y-84828809D02*
X140672438Y-84733571D01*
X140672438Y-84733571D02*
X140720057Y-84685952D01*
X140720057Y-84685952D02*
X140815295Y-84638333D01*
X140815295Y-84638333D02*
X140910533Y-84638333D01*
X140910533Y-84638333D02*
X141053390Y-84685952D01*
X141053390Y-84685952D02*
X141624819Y-85257380D01*
X141624819Y-85257380D02*
X141624819Y-84638333D01*
X145209580Y-85879166D02*
X145257200Y-85926785D01*
X145257200Y-85926785D02*
X145304819Y-86069642D01*
X145304819Y-86069642D02*
X145304819Y-86164880D01*
X145304819Y-86164880D02*
X145257200Y-86307737D01*
X145257200Y-86307737D02*
X145161961Y-86402975D01*
X145161961Y-86402975D02*
X145066723Y-86450594D01*
X145066723Y-86450594D02*
X144876247Y-86498213D01*
X144876247Y-86498213D02*
X144733390Y-86498213D01*
X144733390Y-86498213D02*
X144542914Y-86450594D01*
X144542914Y-86450594D02*
X144447676Y-86402975D01*
X144447676Y-86402975D02*
X144352438Y-86307737D01*
X144352438Y-86307737D02*
X144304819Y-86164880D01*
X144304819Y-86164880D02*
X144304819Y-86069642D01*
X144304819Y-86069642D02*
X144352438Y-85926785D01*
X144352438Y-85926785D02*
X144400057Y-85879166D01*
X144304819Y-85545832D02*
X144304819Y-84926785D01*
X144304819Y-84926785D02*
X144685771Y-85260118D01*
X144685771Y-85260118D02*
X144685771Y-85117261D01*
X144685771Y-85117261D02*
X144733390Y-85022023D01*
X144733390Y-85022023D02*
X144781009Y-84974404D01*
X144781009Y-84974404D02*
X144876247Y-84926785D01*
X144876247Y-84926785D02*
X145114342Y-84926785D01*
X145114342Y-84926785D02*
X145209580Y-84974404D01*
X145209580Y-84974404D02*
X145257200Y-85022023D01*
X145257200Y-85022023D02*
X145304819Y-85117261D01*
X145304819Y-85117261D02*
X145304819Y-85402975D01*
X145304819Y-85402975D02*
X145257200Y-85498213D01*
X145257200Y-85498213D02*
X145209580Y-85545832D01*
X147948333Y-96904819D02*
X147615000Y-96428628D01*
X147376905Y-96904819D02*
X147376905Y-95904819D01*
X147376905Y-95904819D02*
X147757857Y-95904819D01*
X147757857Y-95904819D02*
X147853095Y-95952438D01*
X147853095Y-95952438D02*
X147900714Y-96000057D01*
X147900714Y-96000057D02*
X147948333Y-96095295D01*
X147948333Y-96095295D02*
X147948333Y-96238152D01*
X147948333Y-96238152D02*
X147900714Y-96333390D01*
X147900714Y-96333390D02*
X147853095Y-96381009D01*
X147853095Y-96381009D02*
X147757857Y-96428628D01*
X147757857Y-96428628D02*
X147376905Y-96428628D01*
X148281667Y-95904819D02*
X148900714Y-95904819D01*
X148900714Y-95904819D02*
X148567381Y-96285771D01*
X148567381Y-96285771D02*
X148710238Y-96285771D01*
X148710238Y-96285771D02*
X148805476Y-96333390D01*
X148805476Y-96333390D02*
X148853095Y-96381009D01*
X148853095Y-96381009D02*
X148900714Y-96476247D01*
X148900714Y-96476247D02*
X148900714Y-96714342D01*
X148900714Y-96714342D02*
X148853095Y-96809580D01*
X148853095Y-96809580D02*
X148805476Y-96857200D01*
X148805476Y-96857200D02*
X148710238Y-96904819D01*
X148710238Y-96904819D02*
X148424524Y-96904819D01*
X148424524Y-96904819D02*
X148329286Y-96857200D01*
X148329286Y-96857200D02*
X148281667Y-96809580D01*
X142916666Y-94331009D02*
X142583333Y-94331009D01*
X142583333Y-94854819D02*
X142583333Y-93854819D01*
X142583333Y-93854819D02*
X143059523Y-93854819D01*
X143773809Y-94331009D02*
X143916666Y-94378628D01*
X143916666Y-94378628D02*
X143964285Y-94426247D01*
X143964285Y-94426247D02*
X144011904Y-94521485D01*
X144011904Y-94521485D02*
X144011904Y-94664342D01*
X144011904Y-94664342D02*
X143964285Y-94759580D01*
X143964285Y-94759580D02*
X143916666Y-94807200D01*
X143916666Y-94807200D02*
X143821428Y-94854819D01*
X143821428Y-94854819D02*
X143440476Y-94854819D01*
X143440476Y-94854819D02*
X143440476Y-93854819D01*
X143440476Y-93854819D02*
X143773809Y-93854819D01*
X143773809Y-93854819D02*
X143869047Y-93902438D01*
X143869047Y-93902438D02*
X143916666Y-93950057D01*
X143916666Y-93950057D02*
X143964285Y-94045295D01*
X143964285Y-94045295D02*
X143964285Y-94140533D01*
X143964285Y-94140533D02*
X143916666Y-94235771D01*
X143916666Y-94235771D02*
X143869047Y-94283390D01*
X143869047Y-94283390D02*
X143773809Y-94331009D01*
X143773809Y-94331009D02*
X143440476Y-94331009D01*
X144964285Y-94854819D02*
X144392857Y-94854819D01*
X144678571Y-94854819D02*
X144678571Y-93854819D01*
X144678571Y-93854819D02*
X144583333Y-93997676D01*
X144583333Y-93997676D02*
X144488095Y-94092914D01*
X144488095Y-94092914D02*
X144392857Y-94140533D01*
X144581009Y-82433333D02*
X144581009Y-82766666D01*
X145104819Y-82766666D02*
X144104819Y-82766666D01*
X144104819Y-82766666D02*
X144104819Y-82290476D01*
X144581009Y-81576190D02*
X144628628Y-81433333D01*
X144628628Y-81433333D02*
X144676247Y-81385714D01*
X144676247Y-81385714D02*
X144771485Y-81338095D01*
X144771485Y-81338095D02*
X144914342Y-81338095D01*
X144914342Y-81338095D02*
X145009580Y-81385714D01*
X145009580Y-81385714D02*
X145057200Y-81433333D01*
X145057200Y-81433333D02*
X145104819Y-81528571D01*
X145104819Y-81528571D02*
X145104819Y-81909523D01*
X145104819Y-81909523D02*
X144104819Y-81909523D01*
X144104819Y-81909523D02*
X144104819Y-81576190D01*
X144104819Y-81576190D02*
X144152438Y-81480952D01*
X144152438Y-81480952D02*
X144200057Y-81433333D01*
X144200057Y-81433333D02*
X144295295Y-81385714D01*
X144295295Y-81385714D02*
X144390533Y-81385714D01*
X144390533Y-81385714D02*
X144485771Y-81433333D01*
X144485771Y-81433333D02*
X144533390Y-81480952D01*
X144533390Y-81480952D02*
X144581009Y-81576190D01*
X144581009Y-81576190D02*
X144581009Y-81909523D01*
X144200057Y-80957142D02*
X144152438Y-80909523D01*
X144152438Y-80909523D02*
X144104819Y-80814285D01*
X144104819Y-80814285D02*
X144104819Y-80576190D01*
X144104819Y-80576190D02*
X144152438Y-80480952D01*
X144152438Y-80480952D02*
X144200057Y-80433333D01*
X144200057Y-80433333D02*
X144295295Y-80385714D01*
X144295295Y-80385714D02*
X144390533Y-80385714D01*
X144390533Y-80385714D02*
X144533390Y-80433333D01*
X144533390Y-80433333D02*
X145104819Y-81004761D01*
X145104819Y-81004761D02*
X145104819Y-80385714D01*
X186604819Y-83561904D02*
X187414342Y-83561904D01*
X187414342Y-83561904D02*
X187509580Y-83514285D01*
X187509580Y-83514285D02*
X187557200Y-83466666D01*
X187557200Y-83466666D02*
X187604819Y-83371428D01*
X187604819Y-83371428D02*
X187604819Y-83180952D01*
X187604819Y-83180952D02*
X187557200Y-83085714D01*
X187557200Y-83085714D02*
X187509580Y-83038095D01*
X187509580Y-83038095D02*
X187414342Y-82990476D01*
X187414342Y-82990476D02*
X186604819Y-82990476D01*
X187604819Y-81990476D02*
X187604819Y-82561904D01*
X187604819Y-82276190D02*
X186604819Y-82276190D01*
X186604819Y-82276190D02*
X186747676Y-82371428D01*
X186747676Y-82371428D02*
X186842914Y-82466666D01*
X186842914Y-82466666D02*
X186890533Y-82561904D01*
X151498333Y-94854819D02*
X151165000Y-94378628D01*
X150926905Y-94854819D02*
X150926905Y-93854819D01*
X150926905Y-93854819D02*
X151307857Y-93854819D01*
X151307857Y-93854819D02*
X151403095Y-93902438D01*
X151403095Y-93902438D02*
X151450714Y-93950057D01*
X151450714Y-93950057D02*
X151498333Y-94045295D01*
X151498333Y-94045295D02*
X151498333Y-94188152D01*
X151498333Y-94188152D02*
X151450714Y-94283390D01*
X151450714Y-94283390D02*
X151403095Y-94331009D01*
X151403095Y-94331009D02*
X151307857Y-94378628D01*
X151307857Y-94378628D02*
X150926905Y-94378628D01*
X151879286Y-93950057D02*
X151926905Y-93902438D01*
X151926905Y-93902438D02*
X152022143Y-93854819D01*
X152022143Y-93854819D02*
X152260238Y-93854819D01*
X152260238Y-93854819D02*
X152355476Y-93902438D01*
X152355476Y-93902438D02*
X152403095Y-93950057D01*
X152403095Y-93950057D02*
X152450714Y-94045295D01*
X152450714Y-94045295D02*
X152450714Y-94140533D01*
X152450714Y-94140533D02*
X152403095Y-94283390D01*
X152403095Y-94283390D02*
X151831667Y-94854819D01*
X151831667Y-94854819D02*
X152450714Y-94854819D01*
X156206335Y-87294963D02*
X156206335Y-87772713D01*
X156206335Y-87772713D02*
X155203059Y-87772713D01*
X156158560Y-87008312D02*
X156206335Y-86864987D01*
X156206335Y-86864987D02*
X156206335Y-86626112D01*
X156206335Y-86626112D02*
X156158560Y-86530562D01*
X156158560Y-86530562D02*
X156110784Y-86482787D01*
X156110784Y-86482787D02*
X156015234Y-86435012D01*
X156015234Y-86435012D02*
X155919684Y-86435012D01*
X155919684Y-86435012D02*
X155824134Y-86482787D01*
X155824134Y-86482787D02*
X155776359Y-86530562D01*
X155776359Y-86530562D02*
X155728584Y-86626112D01*
X155728584Y-86626112D02*
X155680809Y-86817212D01*
X155680809Y-86817212D02*
X155633034Y-86912762D01*
X155633034Y-86912762D02*
X155585259Y-86960537D01*
X155585259Y-86960537D02*
X155489709Y-87008312D01*
X155489709Y-87008312D02*
X155394159Y-87008312D01*
X155394159Y-87008312D02*
X155298609Y-86960537D01*
X155298609Y-86960537D02*
X155250834Y-86912762D01*
X155250834Y-86912762D02*
X155203059Y-86817212D01*
X155203059Y-86817212D02*
X155203059Y-86578337D01*
X155203059Y-86578337D02*
X155250834Y-86435012D01*
X156206335Y-85479511D02*
X156206335Y-86052811D01*
X156206335Y-85766161D02*
X155203059Y-85766161D01*
X155203059Y-85766161D02*
X155346384Y-85861711D01*
X155346384Y-85861711D02*
X155441934Y-85957261D01*
X155441934Y-85957261D02*
X155489709Y-86052811D01*
X149372205Y-94557841D02*
X149372205Y-93793339D01*
X149378307Y-80215234D02*
X149378307Y-79451464D01*
X149760192Y-79833349D02*
X148996422Y-79833349D01*
X160569819Y-95624404D02*
X161379342Y-95624404D01*
X161379342Y-95624404D02*
X161474580Y-95576785D01*
X161474580Y-95576785D02*
X161522200Y-95529166D01*
X161522200Y-95529166D02*
X161569819Y-95433928D01*
X161569819Y-95433928D02*
X161569819Y-95243452D01*
X161569819Y-95243452D02*
X161522200Y-95148214D01*
X161522200Y-95148214D02*
X161474580Y-95100595D01*
X161474580Y-95100595D02*
X161379342Y-95052976D01*
X161379342Y-95052976D02*
X160569819Y-95052976D01*
X160665057Y-94624404D02*
X160617438Y-94576785D01*
X160617438Y-94576785D02*
X160569819Y-94481547D01*
X160569819Y-94481547D02*
X160569819Y-94243452D01*
X160569819Y-94243452D02*
X160617438Y-94148214D01*
X160617438Y-94148214D02*
X160665057Y-94100595D01*
X160665057Y-94100595D02*
X160760295Y-94052976D01*
X160760295Y-94052976D02*
X160855533Y-94052976D01*
X160855533Y-94052976D02*
X160998390Y-94100595D01*
X160998390Y-94100595D02*
X161569819Y-94672023D01*
X161569819Y-94672023D02*
X161569819Y-94052976D01*
D11*
%TO.C,R1*%
X144832776Y-95977500D02*
X145342224Y-95977500D01*
X144832776Y-97022500D02*
X145342224Y-97022500D01*
%TO.C,C2*%
X154561267Y-95440000D02*
X154268733Y-95440000D01*
X154561267Y-96460000D02*
X154268733Y-96460000D01*
%TO.C,C4*%
X145890000Y-91783767D02*
X145890000Y-91491233D01*
X146910000Y-91783767D02*
X146910000Y-91491233D01*
%TO.C,SW1*%
X134050000Y-94000000D02*
X134050000Y-95500000D01*
X135300000Y-98000000D02*
X139800000Y-98000000D01*
X139800000Y-91500000D02*
X135300000Y-91500000D01*
X141050000Y-95500000D02*
X141050000Y-94000000D01*
%TO.C,C1*%
X154561267Y-96990000D02*
X154268733Y-96990000D01*
X154561267Y-98010000D02*
X154268733Y-98010000D01*
%TO.C,J1*%
X162250000Y-97300000D02*
X162250000Y-95900000D01*
X162950000Y-95200000D02*
X163550000Y-95200000D01*
X163550000Y-98000000D02*
X162950000Y-98000000D01*
X164250000Y-95900000D02*
X164250000Y-97300000D01*
X162250000Y-95900000D02*
G75*
G02*
X162950000Y-95200000I699999J1D01*
G01*
X162950000Y-98000000D02*
G75*
G02*
X162250000Y-97300000I0J700000D01*
G01*
X163550000Y-95200000D02*
G75*
G02*
X164250000Y-95900000I1J-699999D01*
G01*
X164250000Y-97300000D02*
G75*
G02*
X163550000Y-98000000I-700000J0D01*
G01*
D12*
%TO.C,J2*%
X132955000Y-80900000D02*
X132955000Y-88200000D01*
X132955000Y-88200000D02*
X133955000Y-88200000D01*
X133955000Y-80900000D02*
X132955000Y-80900000D01*
X136855000Y-88200000D02*
X137955000Y-88200000D01*
X137955000Y-80900000D02*
X136855000Y-80900000D01*
X137955000Y-82800000D02*
X137955000Y-80900000D01*
X137955000Y-88200000D02*
X137955000Y-86300000D01*
D13*
X140120000Y-83300000D02*
G75*
G02*
X139920000Y-83300000I-100000J0D01*
G01*
X139920000Y-83300000D02*
G75*
G02*
X140120000Y-83300000I100000J0D01*
G01*
D11*
%TO.C,C3*%
X145790000Y-85616233D02*
X145790000Y-85908767D01*
X146810000Y-85616233D02*
X146810000Y-85908767D01*
%TO.C,R3*%
X149492500Y-94995276D02*
X149492500Y-95504724D01*
X150537500Y-94995276D02*
X150537500Y-95504724D01*
%TO.C,FB1*%
X147560242Y-93840000D02*
X146739758Y-93840000D01*
X147560242Y-94960000D02*
X146739758Y-94960000D01*
%TO.C,FB2*%
X145690000Y-81539758D02*
X145690000Y-82360242D01*
X146810000Y-81539758D02*
X146810000Y-82360242D01*
D12*
%TO.C,U1*%
X164930000Y-80227500D02*
X164930000Y-98007500D01*
X164930000Y-98007500D02*
X185930000Y-98007500D01*
X185930000Y-80227500D02*
X164930000Y-80227500D01*
X185930000Y-84617500D02*
X185930000Y-80227500D01*
X185930000Y-84617500D02*
X187470000Y-84617500D01*
X185930000Y-98007500D02*
X185930000Y-93617500D01*
X187470000Y-84617500D02*
X187470000Y-93617500D01*
X187470000Y-93617500D02*
X185930000Y-93617500D01*
D13*
X183130000Y-79517500D02*
G75*
G02*
X182930000Y-79517500I-100000J0D01*
G01*
X182930000Y-79517500D02*
G75*
G02*
X183130000Y-79517500I100000J0D01*
G01*
D11*
%TO.C,R2*%
X154669724Y-93827500D02*
X154160276Y-93827500D01*
X154669724Y-94872500D02*
X154160276Y-94872500D01*
D12*
%TO.C,LS1*%
X148250000Y-89650000D02*
X148250000Y-83650000D01*
X150950000Y-92150000D02*
X163250000Y-92150000D01*
X163250000Y-81150000D02*
X151050000Y-81150000D01*
X163250000Y-92150000D02*
X163250000Y-81150000D01*
%TO.C,U2*%
X156865000Y-94650000D02*
X156865000Y-94945000D01*
X156865000Y-94650000D02*
X157160000Y-94650000D01*
X156865000Y-97650000D02*
X156865000Y-97355000D01*
X156865000Y-97650000D02*
X157160000Y-97650000D01*
X159865000Y-94650000D02*
X159570000Y-94650000D01*
X159865000Y-94650000D02*
X159865000Y-94945000D01*
X159865000Y-97650000D02*
X159570000Y-97650000D01*
X159865000Y-97650000D02*
X159865000Y-97355000D01*
D13*
X159215000Y-93675000D02*
G75*
G02*
X159015000Y-93675000I-100000J0D01*
G01*
X159015000Y-93675000D02*
G75*
G02*
X159215000Y-93675000I100000J0D01*
G01*
%TD*%
M02*
