%TF.GenerationSoftware,KiCad,Pcbnew,9.0.6*%
%TF.CreationDate,2026-04-14T17:42:44-04:00*%
%TF.ProjectId,Smart_Glasses_V2_PCB_RIGHT,536d6172-745f-4476-9c61-737365735f56,rev?*%
%TF.SameCoordinates,Original*%
%TF.FileFunction,Legend,Bot*%
%TF.FilePolarity,Positive*%
%FSLAX46Y46*%
G04 Gerber Fmt 4.6, Leading zero omitted, Abs format (unit mm)*
G04 Created by KiCad (PCBNEW 9.0.6) date 2026-04-14 17:42:44*
%MOMM*%
%LPD*%
G01*
G04 APERTURE LIST*
%ADD10C,0.187500*%
%ADD11C,0.250000*%
%ADD12C,0.000000*%
G04 APERTURE END LIST*
D10*
X166936168Y-90432154D02*
X166459978Y-90432154D01*
X167031406Y-90717869D02*
X166698073Y-89717869D01*
X166698073Y-89717869D02*
X166364740Y-90717869D01*
X165459978Y-90717869D02*
X165793311Y-90241678D01*
X166031406Y-90717869D02*
X166031406Y-89717869D01*
X166031406Y-89717869D02*
X165650454Y-89717869D01*
X165650454Y-89717869D02*
X165555216Y-89765488D01*
X165555216Y-89765488D02*
X165507597Y-89813107D01*
X165507597Y-89813107D02*
X165459978Y-89908345D01*
X165459978Y-89908345D02*
X165459978Y-90051202D01*
X165459978Y-90051202D02*
X165507597Y-90146440D01*
X165507597Y-90146440D02*
X165555216Y-90194059D01*
X165555216Y-90194059D02*
X165650454Y-90241678D01*
X165650454Y-90241678D02*
X166031406Y-90241678D01*
X165031406Y-90336916D02*
X164269502Y-90336916D01*
X163269502Y-89765488D02*
X163364740Y-89717869D01*
X163364740Y-89717869D02*
X163507597Y-89717869D01*
X163507597Y-89717869D02*
X163650454Y-89765488D01*
X163650454Y-89765488D02*
X163745692Y-89860726D01*
X163745692Y-89860726D02*
X163793311Y-89955964D01*
X163793311Y-89955964D02*
X163840930Y-90146440D01*
X163840930Y-90146440D02*
X163840930Y-90289297D01*
X163840930Y-90289297D02*
X163793311Y-90479773D01*
X163793311Y-90479773D02*
X163745692Y-90575011D01*
X163745692Y-90575011D02*
X163650454Y-90670250D01*
X163650454Y-90670250D02*
X163507597Y-90717869D01*
X163507597Y-90717869D02*
X163412359Y-90717869D01*
X163412359Y-90717869D02*
X163269502Y-90670250D01*
X163269502Y-90670250D02*
X163221883Y-90622630D01*
X163221883Y-90622630D02*
X163221883Y-90289297D01*
X163221883Y-90289297D02*
X163412359Y-90289297D01*
X162317121Y-90717869D02*
X162793311Y-90717869D01*
X162793311Y-90717869D02*
X162793311Y-89717869D01*
X162031406Y-90432154D02*
X161555216Y-90432154D01*
X162126644Y-90717869D02*
X161793311Y-89717869D01*
X161793311Y-89717869D02*
X161459978Y-90717869D01*
X161174263Y-90670250D02*
X161031406Y-90717869D01*
X161031406Y-90717869D02*
X160793311Y-90717869D01*
X160793311Y-90717869D02*
X160698073Y-90670250D01*
X160698073Y-90670250D02*
X160650454Y-90622630D01*
X160650454Y-90622630D02*
X160602835Y-90527392D01*
X160602835Y-90527392D02*
X160602835Y-90432154D01*
X160602835Y-90432154D02*
X160650454Y-90336916D01*
X160650454Y-90336916D02*
X160698073Y-90289297D01*
X160698073Y-90289297D02*
X160793311Y-90241678D01*
X160793311Y-90241678D02*
X160983787Y-90194059D01*
X160983787Y-90194059D02*
X161079025Y-90146440D01*
X161079025Y-90146440D02*
X161126644Y-90098821D01*
X161126644Y-90098821D02*
X161174263Y-90003583D01*
X161174263Y-90003583D02*
X161174263Y-89908345D01*
X161174263Y-89908345D02*
X161126644Y-89813107D01*
X161126644Y-89813107D02*
X161079025Y-89765488D01*
X161079025Y-89765488D02*
X160983787Y-89717869D01*
X160983787Y-89717869D02*
X160745692Y-89717869D01*
X160745692Y-89717869D02*
X160602835Y-89765488D01*
X160221882Y-90670250D02*
X160079025Y-90717869D01*
X160079025Y-90717869D02*
X159840930Y-90717869D01*
X159840930Y-90717869D02*
X159745692Y-90670250D01*
X159745692Y-90670250D02*
X159698073Y-90622630D01*
X159698073Y-90622630D02*
X159650454Y-90527392D01*
X159650454Y-90527392D02*
X159650454Y-90432154D01*
X159650454Y-90432154D02*
X159698073Y-90336916D01*
X159698073Y-90336916D02*
X159745692Y-90289297D01*
X159745692Y-90289297D02*
X159840930Y-90241678D01*
X159840930Y-90241678D02*
X160031406Y-90194059D01*
X160031406Y-90194059D02*
X160126644Y-90146440D01*
X160126644Y-90146440D02*
X160174263Y-90098821D01*
X160174263Y-90098821D02*
X160221882Y-90003583D01*
X160221882Y-90003583D02*
X160221882Y-89908345D01*
X160221882Y-89908345D02*
X160174263Y-89813107D01*
X160174263Y-89813107D02*
X160126644Y-89765488D01*
X160126644Y-89765488D02*
X160031406Y-89717869D01*
X160031406Y-89717869D02*
X159793311Y-89717869D01*
X159793311Y-89717869D02*
X159650454Y-89765488D01*
X159221882Y-90194059D02*
X158888549Y-90194059D01*
X158745692Y-90717869D02*
X159221882Y-90717869D01*
X159221882Y-90717869D02*
X159221882Y-89717869D01*
X159221882Y-89717869D02*
X158745692Y-89717869D01*
X158364739Y-90670250D02*
X158221882Y-90717869D01*
X158221882Y-90717869D02*
X157983787Y-90717869D01*
X157983787Y-90717869D02*
X157888549Y-90670250D01*
X157888549Y-90670250D02*
X157840930Y-90622630D01*
X157840930Y-90622630D02*
X157793311Y-90527392D01*
X157793311Y-90527392D02*
X157793311Y-90432154D01*
X157793311Y-90432154D02*
X157840930Y-90336916D01*
X157840930Y-90336916D02*
X157888549Y-90289297D01*
X157888549Y-90289297D02*
X157983787Y-90241678D01*
X157983787Y-90241678D02*
X158174263Y-90194059D01*
X158174263Y-90194059D02*
X158269501Y-90146440D01*
X158269501Y-90146440D02*
X158317120Y-90098821D01*
X158317120Y-90098821D02*
X158364739Y-90003583D01*
X158364739Y-90003583D02*
X158364739Y-89908345D01*
X158364739Y-89908345D02*
X158317120Y-89813107D01*
X158317120Y-89813107D02*
X158269501Y-89765488D01*
X158269501Y-89765488D02*
X158174263Y-89717869D01*
X158174263Y-89717869D02*
X157936168Y-89717869D01*
X157936168Y-89717869D02*
X157793311Y-89765488D01*
X156745691Y-89717869D02*
X156412358Y-90717869D01*
X156412358Y-90717869D02*
X156079025Y-89717869D01*
X155793310Y-89813107D02*
X155745691Y-89765488D01*
X155745691Y-89765488D02*
X155650453Y-89717869D01*
X155650453Y-89717869D02*
X155412358Y-89717869D01*
X155412358Y-89717869D02*
X155317120Y-89765488D01*
X155317120Y-89765488D02*
X155269501Y-89813107D01*
X155269501Y-89813107D02*
X155221882Y-89908345D01*
X155221882Y-89908345D02*
X155221882Y-90003583D01*
X155221882Y-90003583D02*
X155269501Y-90146440D01*
X155269501Y-90146440D02*
X155840929Y-90717869D01*
X155840929Y-90717869D02*
X155221882Y-90717869D01*
D11*
X166999812Y-87482000D02*
X166785527Y-87553428D01*
X166785527Y-87553428D02*
X166428384Y-87553428D01*
X166428384Y-87553428D02*
X166285527Y-87482000D01*
X166285527Y-87482000D02*
X166214098Y-87410571D01*
X166214098Y-87410571D02*
X166142669Y-87267714D01*
X166142669Y-87267714D02*
X166142669Y-87124857D01*
X166142669Y-87124857D02*
X166214098Y-86982000D01*
X166214098Y-86982000D02*
X166285527Y-86910571D01*
X166285527Y-86910571D02*
X166428384Y-86839142D01*
X166428384Y-86839142D02*
X166714098Y-86767714D01*
X166714098Y-86767714D02*
X166856955Y-86696285D01*
X166856955Y-86696285D02*
X166928384Y-86624857D01*
X166928384Y-86624857D02*
X166999812Y-86482000D01*
X166999812Y-86482000D02*
X166999812Y-86339142D01*
X166999812Y-86339142D02*
X166928384Y-86196285D01*
X166928384Y-86196285D02*
X166856955Y-86124857D01*
X166856955Y-86124857D02*
X166714098Y-86053428D01*
X166714098Y-86053428D02*
X166356955Y-86053428D01*
X166356955Y-86053428D02*
X166142669Y-86124857D01*
X165499813Y-87553428D02*
X165499813Y-86053428D01*
X164785527Y-87553428D02*
X164785527Y-86053428D01*
X164785527Y-86053428D02*
X163928384Y-87553428D01*
X163928384Y-87553428D02*
X163928384Y-86053428D01*
X162356955Y-87553428D02*
X162856955Y-86839142D01*
X163214098Y-87553428D02*
X163214098Y-86053428D01*
X163214098Y-86053428D02*
X162642669Y-86053428D01*
X162642669Y-86053428D02*
X162499812Y-86124857D01*
X162499812Y-86124857D02*
X162428383Y-86196285D01*
X162428383Y-86196285D02*
X162356955Y-86339142D01*
X162356955Y-86339142D02*
X162356955Y-86553428D01*
X162356955Y-86553428D02*
X162428383Y-86696285D01*
X162428383Y-86696285D02*
X162499812Y-86767714D01*
X162499812Y-86767714D02*
X162642669Y-86839142D01*
X162642669Y-86839142D02*
X163214098Y-86839142D01*
X160928383Y-86124857D02*
X161071241Y-86053428D01*
X161071241Y-86053428D02*
X161285526Y-86053428D01*
X161285526Y-86053428D02*
X161499812Y-86124857D01*
X161499812Y-86124857D02*
X161642669Y-86267714D01*
X161642669Y-86267714D02*
X161714098Y-86410571D01*
X161714098Y-86410571D02*
X161785526Y-86696285D01*
X161785526Y-86696285D02*
X161785526Y-86910571D01*
X161785526Y-86910571D02*
X161714098Y-87196285D01*
X161714098Y-87196285D02*
X161642669Y-87339142D01*
X161642669Y-87339142D02*
X161499812Y-87482000D01*
X161499812Y-87482000D02*
X161285526Y-87553428D01*
X161285526Y-87553428D02*
X161142669Y-87553428D01*
X161142669Y-87553428D02*
X160928383Y-87482000D01*
X160928383Y-87482000D02*
X160856955Y-87410571D01*
X160856955Y-87410571D02*
X160856955Y-86910571D01*
X160856955Y-86910571D02*
X161142669Y-86910571D01*
X158356955Y-87553428D02*
X159071241Y-87553428D01*
X159071241Y-87553428D02*
X159071241Y-86053428D01*
X157928383Y-87124857D02*
X157214098Y-87124857D01*
X158071240Y-87553428D02*
X157571240Y-86053428D01*
X157571240Y-86053428D02*
X157071240Y-87553428D01*
X156071241Y-86767714D02*
X155856955Y-86839142D01*
X155856955Y-86839142D02*
X155785526Y-86910571D01*
X155785526Y-86910571D02*
X155714098Y-87053428D01*
X155714098Y-87053428D02*
X155714098Y-87267714D01*
X155714098Y-87267714D02*
X155785526Y-87410571D01*
X155785526Y-87410571D02*
X155856955Y-87482000D01*
X155856955Y-87482000D02*
X155999812Y-87553428D01*
X155999812Y-87553428D02*
X156571241Y-87553428D01*
X156571241Y-87553428D02*
X156571241Y-86053428D01*
X156571241Y-86053428D02*
X156071241Y-86053428D01*
X156071241Y-86053428D02*
X155928384Y-86124857D01*
X155928384Y-86124857D02*
X155856955Y-86196285D01*
X155856955Y-86196285D02*
X155785526Y-86339142D01*
X155785526Y-86339142D02*
X155785526Y-86482000D01*
X155785526Y-86482000D02*
X155856955Y-86624857D01*
X155856955Y-86624857D02*
X155928384Y-86696285D01*
X155928384Y-86696285D02*
X156071241Y-86767714D01*
X156071241Y-86767714D02*
X156571241Y-86767714D01*
D12*
%TO.C,G\u002A\u002A\u002A*%
G36*
X144290816Y-85625848D02*
G01*
X144296957Y-85638296D01*
X144305762Y-85659981D01*
X144316457Y-85688966D01*
X144328265Y-85723316D01*
X144393999Y-85904957D01*
X144475812Y-86098838D01*
X144568070Y-86289062D01*
X144669726Y-86473618D01*
X144779736Y-86650494D01*
X144897054Y-86817676D01*
X144975057Y-86917512D01*
X145084930Y-87044247D01*
X145200710Y-87163125D01*
X145320980Y-87272792D01*
X145444320Y-87371893D01*
X145569313Y-87459076D01*
X145695204Y-87534412D01*
X145823045Y-87598964D01*
X145954116Y-87653032D01*
X146090312Y-87697314D01*
X146233531Y-87732507D01*
X146385670Y-87759308D01*
X146424676Y-87763842D01*
X146479897Y-87767937D01*
X146543057Y-87770765D01*
X146611319Y-87772319D01*
X146681847Y-87772591D01*
X146751806Y-87771575D01*
X146818360Y-87769261D01*
X146878673Y-87765644D01*
X146929908Y-87760716D01*
X146987228Y-87753138D01*
X147177730Y-87719817D01*
X147369748Y-87674000D01*
X147562316Y-87616058D01*
X147754467Y-87546363D01*
X147945233Y-87465287D01*
X148133649Y-87373201D01*
X148318747Y-87270477D01*
X148499559Y-87157485D01*
X148531645Y-87136701D01*
X148557569Y-87121353D01*
X148575867Y-87112931D01*
X148588112Y-87110917D01*
X148595873Y-87114790D01*
X148600723Y-87124032D01*
X148600200Y-87126166D01*
X148591917Y-87136426D01*
X148574669Y-87153395D01*
X148549568Y-87176144D01*
X148517726Y-87203745D01*
X148480254Y-87235268D01*
X148438265Y-87269786D01*
X148392869Y-87306370D01*
X148345179Y-87344090D01*
X148296307Y-87382017D01*
X148247363Y-87419224D01*
X148092802Y-87531791D01*
X147909876Y-87655730D01*
X147727715Y-87769155D01*
X147546774Y-87871863D01*
X147367508Y-87963647D01*
X147190369Y-88044304D01*
X147015812Y-88113629D01*
X146844291Y-88171417D01*
X146676261Y-88217463D01*
X146512174Y-88251563D01*
X146352485Y-88273512D01*
X146331634Y-88275168D01*
X146288376Y-88277024D01*
X146236674Y-88277845D01*
X146179503Y-88277692D01*
X146119841Y-88276626D01*
X146060663Y-88274710D01*
X146004947Y-88272004D01*
X145955668Y-88268571D01*
X145915803Y-88264472D01*
X145745067Y-88236612D01*
X145578868Y-88197333D01*
X145418434Y-88146596D01*
X145263150Y-88084125D01*
X145112401Y-88009645D01*
X144965571Y-87922881D01*
X144822045Y-87823557D01*
X144681210Y-87711397D01*
X144650819Y-87684663D01*
X144607935Y-87644860D01*
X144560744Y-87599282D01*
X144511595Y-87550311D01*
X144462840Y-87500328D01*
X144416829Y-87451716D01*
X144375914Y-87406858D01*
X144342445Y-87368134D01*
X144337930Y-87362688D01*
X144209783Y-87197764D01*
X144090203Y-87023367D01*
X143980023Y-86840792D01*
X143880078Y-86651332D01*
X143858187Y-86605931D01*
X143835899Y-86558035D01*
X143815004Y-86511532D01*
X143796245Y-86468175D01*
X143780362Y-86429719D01*
X143768099Y-86397918D01*
X143760196Y-86374527D01*
X143757397Y-86361299D01*
X143758450Y-86359103D01*
X143766019Y-86347297D01*
X143780235Y-86326408D01*
X143800323Y-86297511D01*
X143825508Y-86261681D01*
X143855017Y-86219995D01*
X143888074Y-86173528D01*
X143923905Y-86123355D01*
X143961737Y-86070552D01*
X144000794Y-86016195D01*
X144040302Y-85961359D01*
X144079487Y-85907119D01*
X144117574Y-85854552D01*
X144153790Y-85804733D01*
X144187359Y-85758738D01*
X144217507Y-85717641D01*
X144243460Y-85682520D01*
X144264443Y-85654449D01*
X144279682Y-85634504D01*
X144288403Y-85623760D01*
X144290816Y-85625848D01*
G37*
G36*
X144386846Y-85669801D02*
G01*
X144387225Y-85669885D01*
X144397514Y-85671938D01*
X144419111Y-85676124D01*
X144450663Y-85682185D01*
X144490816Y-85689865D01*
X144538220Y-85698908D01*
X144591520Y-85709058D01*
X144649364Y-85720058D01*
X144710401Y-85731651D01*
X144773276Y-85743582D01*
X144836638Y-85755593D01*
X144899133Y-85767429D01*
X144959410Y-85778832D01*
X145016116Y-85789548D01*
X145067897Y-85799318D01*
X145113402Y-85807886D01*
X145151278Y-85814997D01*
X145180172Y-85820394D01*
X145198731Y-85823820D01*
X145205603Y-85825019D01*
X145206125Y-85825992D01*
X145207718Y-85836740D01*
X145209516Y-85857491D01*
X145211336Y-85885894D01*
X145212995Y-85919597D01*
X145220791Y-86021750D01*
X145241607Y-86160085D01*
X145274126Y-86301612D01*
X145318042Y-86445225D01*
X145373049Y-86589821D01*
X145438842Y-86734295D01*
X145468373Y-86791130D01*
X145542504Y-86913004D01*
X145628023Y-87028135D01*
X145724867Y-87136472D01*
X145832973Y-87237963D01*
X145952281Y-87332558D01*
X146082728Y-87420205D01*
X146224252Y-87500854D01*
X146376792Y-87574453D01*
X146540284Y-87640951D01*
X146567843Y-87650880D01*
X146604547Y-87663403D01*
X146643749Y-87676199D01*
X146682942Y-87688499D01*
X146719618Y-87699534D01*
X146751270Y-87708536D01*
X146775392Y-87714736D01*
X146789477Y-87717364D01*
X146790644Y-87717493D01*
X146791016Y-87719644D01*
X146780575Y-87723216D01*
X146775631Y-87724337D01*
X146745928Y-87728018D01*
X146705689Y-87729522D01*
X146656988Y-87728968D01*
X146601901Y-87726472D01*
X146542502Y-87722152D01*
X146480865Y-87716124D01*
X146419065Y-87708506D01*
X146359177Y-87699416D01*
X146278207Y-87684204D01*
X146122482Y-87645456D01*
X145971051Y-87594800D01*
X145823338Y-87531977D01*
X145678767Y-87456731D01*
X145536763Y-87368802D01*
X145396749Y-87267933D01*
X145365639Y-87242694D01*
X145322038Y-87204548D01*
X145273664Y-87159856D01*
X145222530Y-87110632D01*
X145170652Y-87058890D01*
X145120042Y-87006646D01*
X145072713Y-86955913D01*
X145030681Y-86908705D01*
X144995958Y-86867036D01*
X144974901Y-86840023D01*
X144930023Y-86779625D01*
X144882307Y-86712201D01*
X144833884Y-86640920D01*
X144786888Y-86568954D01*
X144743453Y-86499473D01*
X144705711Y-86435649D01*
X144696053Y-86418569D01*
X144643800Y-86321389D01*
X144592098Y-86217600D01*
X144542193Y-86110067D01*
X144495330Y-86001651D01*
X144452757Y-85895217D01*
X144415718Y-85793628D01*
X144385461Y-85699747D01*
X144381761Y-85686925D01*
X144379062Y-85674204D01*
X144380713Y-85669458D01*
X144386846Y-85669801D01*
G37*
G36*
X151327484Y-85628643D02*
G01*
X151365704Y-85630031D01*
X151410955Y-85632519D01*
X151466334Y-85636146D01*
X151602404Y-85649989D01*
X151764726Y-85678544D01*
X151924482Y-85719855D01*
X152081377Y-85773728D01*
X152235122Y-85839964D01*
X152385423Y-85918366D01*
X152531990Y-86008739D01*
X152674529Y-86110884D01*
X152812749Y-86224605D01*
X152946359Y-86349705D01*
X153075065Y-86485987D01*
X153198577Y-86633254D01*
X153316601Y-86791309D01*
X153428847Y-86959955D01*
X153449803Y-86993723D01*
X153511209Y-87097410D01*
X153570518Y-87204403D01*
X153626014Y-87311431D01*
X153675979Y-87415217D01*
X153718695Y-87512490D01*
X153745519Y-87577201D01*
X153554154Y-87577201D01*
X153362788Y-87577201D01*
X153355103Y-87545675D01*
X153339139Y-87486186D01*
X153314657Y-87407520D01*
X153285069Y-87322398D01*
X153251376Y-87233447D01*
X153214580Y-87143296D01*
X153175682Y-87054575D01*
X153135685Y-86969911D01*
X153102522Y-86904131D01*
X153035200Y-86780786D01*
X152964706Y-86665458D01*
X152888837Y-86554645D01*
X152805388Y-86444842D01*
X152782732Y-86417442D01*
X152743977Y-86373562D01*
X152699482Y-86325801D01*
X152651601Y-86276524D01*
X152602687Y-86228092D01*
X152555093Y-86182868D01*
X152511172Y-86143213D01*
X152473279Y-86111490D01*
X152423805Y-86073556D01*
X152292458Y-85983926D01*
X152156567Y-85906763D01*
X152016230Y-85842099D01*
X151871546Y-85789966D01*
X151722612Y-85750398D01*
X151569527Y-85723426D01*
X151412389Y-85709084D01*
X151251297Y-85707403D01*
X151185416Y-85710333D01*
X151093314Y-85718384D01*
X151002027Y-85731436D01*
X150908557Y-85750027D01*
X150809905Y-85774697D01*
X150703073Y-85805984D01*
X150687604Y-85810869D01*
X150602568Y-85840084D01*
X150509625Y-85875520D01*
X150411301Y-85916072D01*
X150310119Y-85960635D01*
X150208604Y-86008103D01*
X150109281Y-86057372D01*
X150014673Y-86107336D01*
X149935175Y-86151772D01*
X149795479Y-86234204D01*
X149651525Y-86324215D01*
X149505866Y-86420065D01*
X149361055Y-86520018D01*
X149219646Y-86622335D01*
X149084192Y-86725279D01*
X148957246Y-86827111D01*
X148954658Y-86829246D01*
X148930117Y-86849156D01*
X148909393Y-86865383D01*
X148894600Y-86876309D01*
X148887851Y-86880311D01*
X148887418Y-86880296D01*
X148878274Y-86874793D01*
X148871387Y-86863881D01*
X148871004Y-86854154D01*
X148871009Y-86854146D01*
X148877191Y-86847784D01*
X148891779Y-86834257D01*
X148913122Y-86815049D01*
X148939570Y-86791645D01*
X148969472Y-86765533D01*
X149106439Y-86649718D01*
X149274224Y-86515905D01*
X149442952Y-86389955D01*
X149611924Y-86272263D01*
X149780443Y-86163226D01*
X149947811Y-86063239D01*
X150113332Y-85972699D01*
X150276306Y-85892002D01*
X150436038Y-85821545D01*
X150591829Y-85761722D01*
X150742981Y-85712931D01*
X150888798Y-85675568D01*
X150896281Y-85673928D01*
X150970931Y-85658901D01*
X151041344Y-85647559D01*
X151113340Y-85639081D01*
X151192735Y-85632644D01*
X151224075Y-85630685D01*
X151259765Y-85629010D01*
X151293203Y-85628316D01*
X151327484Y-85628643D01*
G37*
G36*
X148829208Y-86935066D02*
G01*
X148837376Y-86943425D01*
X148906397Y-87014077D01*
X148973354Y-87082651D01*
X149037592Y-87148472D01*
X149098454Y-87210868D01*
X149155284Y-87269165D01*
X149207427Y-87322688D01*
X149254225Y-87370763D01*
X149295022Y-87412718D01*
X149329163Y-87447878D01*
X149355991Y-87475570D01*
X149374850Y-87495119D01*
X149385084Y-87505853D01*
X149426962Y-87550653D01*
X149291113Y-87550653D01*
X149155264Y-87550653D01*
X148580188Y-86982443D01*
X148520239Y-86923197D01*
X148449520Y-86853268D01*
X148381944Y-86786407D01*
X148318083Y-86723183D01*
X148258511Y-86664163D01*
X148203801Y-86609918D01*
X148154526Y-86561015D01*
X148111260Y-86518024D01*
X148074574Y-86481514D01*
X148045044Y-86452053D01*
X148023241Y-86430211D01*
X148009739Y-86416556D01*
X148005111Y-86411656D01*
X148007557Y-86411201D01*
X148021147Y-86410519D01*
X148045042Y-86409935D01*
X148077401Y-86409480D01*
X148116386Y-86409185D01*
X148160160Y-86409080D01*
X148315210Y-86409080D01*
X148829208Y-86935066D01*
G37*
G36*
X171179267Y-86184626D02*
G01*
X171234271Y-86218211D01*
X171260634Y-86235988D01*
X171286852Y-86257170D01*
X171288515Y-86269561D01*
X171269171Y-86279379D01*
X171265538Y-86280789D01*
X171247858Y-86292483D01*
X171237808Y-86314866D01*
X171233306Y-86356125D01*
X171232268Y-86424447D01*
X171232385Y-86450425D01*
X171235303Y-86528633D01*
X171243084Y-86578169D01*
X171256982Y-86604144D01*
X171278252Y-86611667D01*
X171288677Y-86613343D01*
X171302823Y-86629305D01*
X171302823Y-86629323D01*
X171286456Y-86638367D01*
X171242690Y-86644614D01*
X171179351Y-86646944D01*
X171179231Y-86646944D01*
X171115920Y-86644606D01*
X171072194Y-86638354D01*
X171055879Y-86629305D01*
X171058214Y-86621822D01*
X171080450Y-86611667D01*
X171081528Y-86611654D01*
X171103146Y-86602720D01*
X171116960Y-86573793D01*
X171124285Y-86519849D01*
X171126435Y-86435864D01*
X171126433Y-86432663D01*
X171125069Y-86368687D01*
X171119098Y-86329605D01*
X171105516Y-86305462D01*
X171081320Y-86286302D01*
X171038660Y-86267885D01*
X170988716Y-86262225D01*
X170984660Y-86262700D01*
X170963516Y-86267017D01*
X170950349Y-86278452D01*
X170942896Y-86304040D01*
X170938893Y-86350819D01*
X170936075Y-86425823D01*
X170934431Y-86487604D01*
X170935170Y-86542091D01*
X170940546Y-86575999D01*
X170952094Y-86597570D01*
X170971353Y-86615049D01*
X170984571Y-86625510D01*
X170994371Y-86637298D01*
X170984278Y-86643503D01*
X170949164Y-86645972D01*
X170883900Y-86646552D01*
X170881270Y-86646557D01*
X170816615Y-86644339D01*
X170772400Y-86638256D01*
X170756018Y-86629305D01*
X170758316Y-86621862D01*
X170780476Y-86611667D01*
X170782588Y-86611477D01*
X170793741Y-86600452D01*
X170801786Y-86568924D01*
X170807549Y-86511968D01*
X170811856Y-86424662D01*
X170814397Y-86365153D01*
X170819200Y-86298314D01*
X170826264Y-86255302D01*
X170836921Y-86229176D01*
X170852506Y-86212995D01*
X170866327Y-86204592D01*
X170927472Y-86189715D01*
X170998714Y-86196778D01*
X171067026Y-86225050D01*
X171126435Y-86261766D01*
X171126435Y-86216230D01*
X171130429Y-86184626D01*
X171146345Y-86173462D01*
X171179267Y-86184626D01*
G37*
G36*
X171542838Y-86173526D02*
G01*
X171577872Y-86191024D01*
X171623827Y-86219201D01*
X171657351Y-86243019D01*
X171676853Y-86263945D01*
X171667546Y-86273411D01*
X171660601Y-86275582D01*
X171649015Y-86287970D01*
X171642127Y-86316055D01*
X171638817Y-86366355D01*
X171637962Y-86445390D01*
X171638013Y-86467846D01*
X171639506Y-86539663D01*
X171643776Y-86583619D01*
X171651766Y-86605643D01*
X171664421Y-86611667D01*
X171676592Y-86613657D01*
X171690879Y-86629305D01*
X171690879Y-86629323D01*
X171674511Y-86638367D01*
X171630745Y-86644614D01*
X171567407Y-86646944D01*
X171529360Y-86646140D01*
X171474743Y-86640708D01*
X171446116Y-86631355D01*
X171446574Y-86619498D01*
X171479212Y-86606556D01*
X171481690Y-86605874D01*
X171499045Y-86596429D01*
X171508961Y-86575460D01*
X171513442Y-86535056D01*
X171514490Y-86467312D01*
X171513088Y-86410556D01*
X171504179Y-86340730D01*
X171486315Y-86297068D01*
X171470508Y-86276158D01*
X171454220Y-86268178D01*
X171436642Y-86286242D01*
X171426213Y-86297609D01*
X171391222Y-86310301D01*
X171358924Y-86295589D01*
X171341619Y-86257228D01*
X171340767Y-86243746D01*
X171352619Y-86199692D01*
X171384451Y-86180070D01*
X171429578Y-86189990D01*
X171459412Y-86209441D01*
X171491881Y-86239721D01*
X171502086Y-86251671D01*
X171511438Y-86250939D01*
X171513929Y-86219201D01*
X171519252Y-86185924D01*
X171532507Y-86170694D01*
X171542838Y-86173526D01*
G37*
G36*
X174335429Y-85893582D02*
G01*
X174373417Y-85914404D01*
X174421729Y-85945798D01*
X174455397Y-85969730D01*
X174481629Y-85991934D01*
X174483603Y-86003339D01*
X174464594Y-86008761D01*
X174450151Y-86011770D01*
X174439606Y-86019484D01*
X174432503Y-86036971D01*
X174428160Y-86069334D01*
X174425900Y-86121672D01*
X174425042Y-86199086D01*
X174424907Y-86306678D01*
X174424911Y-86321766D01*
X174425397Y-86427373D01*
X174427052Y-86503680D01*
X174430397Y-86556010D01*
X174435952Y-86589688D01*
X174444238Y-86610040D01*
X174455775Y-86622390D01*
X174457856Y-86624003D01*
X174467178Y-86635273D01*
X174456402Y-86641804D01*
X174420477Y-86644731D01*
X174354351Y-86645189D01*
X174292164Y-86644173D01*
X174256067Y-86641111D01*
X174247294Y-86635150D01*
X174261747Y-86625416D01*
X174272856Y-86619440D01*
X174288284Y-86604477D01*
X174296890Y-86578479D01*
X174300624Y-86533368D01*
X174301435Y-86461069D01*
X174301227Y-86416342D01*
X174298965Y-86360039D01*
X174292437Y-86325519D01*
X174279486Y-86304170D01*
X174257958Y-86287376D01*
X174206525Y-86263545D01*
X174158371Y-86264047D01*
X174125666Y-86293007D01*
X174116550Y-86326707D01*
X174109933Y-86383645D01*
X174107407Y-86451070D01*
X174108179Y-86502300D01*
X174113174Y-86553019D01*
X174124964Y-86585847D01*
X174146011Y-86610979D01*
X174184614Y-86646944D01*
X174053891Y-86646944D01*
X174018018Y-86646862D01*
X173967518Y-86645609D01*
X173944784Y-86641641D01*
X173944755Y-86633440D01*
X173962371Y-86619486D01*
X173977681Y-86606997D01*
X173990498Y-86587216D01*
X173997701Y-86555565D01*
X174000868Y-86504245D01*
X174001573Y-86425458D01*
X174001723Y-86387982D01*
X174003780Y-86319347D01*
X174009376Y-86274477D01*
X174019928Y-86245268D01*
X174036851Y-86223611D01*
X174087162Y-86193858D01*
X174151471Y-86193792D01*
X174231582Y-86223969D01*
X174301435Y-86259606D01*
X174301435Y-86074039D01*
X174301646Y-86038680D01*
X174304593Y-85956413D01*
X174310873Y-85905753D01*
X174320305Y-85888472D01*
X174335429Y-85893582D01*
G37*
G36*
X174970452Y-86194618D02*
G01*
X175017536Y-86225233D01*
X175059907Y-86265038D01*
X175059907Y-86226686D01*
X175061178Y-86212245D01*
X175077462Y-86191439D01*
X175114204Y-86195817D01*
X175173551Y-86225353D01*
X175194723Y-86238693D01*
X175228502Y-86267318D01*
X175234118Y-86286906D01*
X175209837Y-86294167D01*
X175207458Y-86294492D01*
X175193209Y-86314453D01*
X175184240Y-86358767D01*
X175180426Y-86418199D01*
X175181644Y-86483513D01*
X175187770Y-86545473D01*
X175198679Y-86594844D01*
X175214247Y-86622390D01*
X175216298Y-86623978D01*
X175225712Y-86635323D01*
X175215063Y-86642036D01*
X175179284Y-86645321D01*
X175113308Y-86646383D01*
X175076302Y-86646453D01*
X175025909Y-86645400D01*
X175003216Y-86641533D01*
X175003166Y-86633385D01*
X175020704Y-86619486D01*
X175041115Y-86601111D01*
X175053123Y-86575138D01*
X175058603Y-86532577D01*
X175059907Y-86464107D01*
X175059095Y-86422513D01*
X175050995Y-86346359D01*
X175034539Y-86301948D01*
X175018952Y-86282322D01*
X175003714Y-86278587D01*
X174982656Y-86302986D01*
X174959075Y-86322744D01*
X174927381Y-86322111D01*
X174902444Y-86295611D01*
X174892337Y-86248147D01*
X174900557Y-86212557D01*
X174928949Y-86190852D01*
X174970452Y-86194618D01*
G37*
G36*
X172140671Y-86424702D02*
G01*
X172139816Y-86475070D01*
X172134119Y-86523124D01*
X172120109Y-86556346D01*
X172094403Y-86586577D01*
X172092904Y-86588053D01*
X172043117Y-86624006D01*
X171988569Y-86646875D01*
X171984765Y-86647746D01*
X171937873Y-86654874D01*
X171905513Y-86653924D01*
X171897578Y-86651867D01*
X171859385Y-86646944D01*
X171851720Y-86645975D01*
X171819130Y-86630958D01*
X171784605Y-86604943D01*
X171759109Y-86577238D01*
X171753605Y-86557148D01*
X171769956Y-86552783D01*
X171801795Y-86567380D01*
X171861149Y-86591750D01*
X171925168Y-86586170D01*
X171980835Y-86549435D01*
X171981644Y-86548561D01*
X172019360Y-86503028D01*
X172032605Y-86469383D01*
X172018895Y-86442704D01*
X171975747Y-86418070D01*
X171900678Y-86390558D01*
X171879182Y-86383331D01*
X171817825Y-86360884D01*
X171782122Y-86342740D01*
X171765513Y-86324763D01*
X171761435Y-86302818D01*
X171764354Y-86289667D01*
X171872085Y-86289667D01*
X171874979Y-86322552D01*
X171912143Y-86347379D01*
X171948461Y-86360004D01*
X172001622Y-86375635D01*
X172031406Y-86380182D01*
X172042089Y-86367132D01*
X172040531Y-86327819D01*
X172026572Y-86278600D01*
X171987536Y-86242385D01*
X171959630Y-86228511D01*
X171933008Y-86227491D01*
X171903751Y-86248978D01*
X171903502Y-86249204D01*
X171872085Y-86289667D01*
X171764354Y-86289667D01*
X171768581Y-86270628D01*
X171803479Y-86228417D01*
X171860441Y-86199231D01*
X171931642Y-86188333D01*
X171980230Y-86192002D01*
X172025587Y-86209712D01*
X172074784Y-86248714D01*
X172083601Y-86256839D01*
X172115586Y-86289640D01*
X172132641Y-86320221D01*
X172139443Y-86361076D01*
X172139560Y-86367132D01*
X172140671Y-86424702D01*
G37*
G36*
X172349041Y-86105612D02*
G01*
X172383990Y-86126112D01*
X172428390Y-86155437D01*
X172472370Y-86186753D01*
X172506060Y-86213226D01*
X172519590Y-86228021D01*
X172513435Y-86235621D01*
X172485226Y-86241250D01*
X172481370Y-86241336D01*
X172467157Y-86245475D01*
X172457757Y-86260302D01*
X172451881Y-86291965D01*
X172448238Y-86346611D01*
X172445538Y-86430386D01*
X172444417Y-86470765D01*
X172441537Y-86541503D01*
X172436921Y-86586982D01*
X172428947Y-86614182D01*
X172415992Y-86630084D01*
X172396435Y-86641667D01*
X172377934Y-86649753D01*
X172342239Y-86655831D01*
X172297586Y-86648195D01*
X172232709Y-86625749D01*
X172212505Y-86616974D01*
X172194427Y-86601314D01*
X172210516Y-86590780D01*
X172260154Y-86586257D01*
X172317060Y-86585208D01*
X172322108Y-86413229D01*
X172327157Y-86241250D01*
X172263312Y-86241250D01*
X172261766Y-86241245D01*
X172218526Y-86234389D01*
X172206083Y-86219226D01*
X172223517Y-86202668D01*
X172269911Y-86191625D01*
X172292969Y-86188324D01*
X172319356Y-86174275D01*
X172325879Y-86143118D01*
X172328049Y-86115241D01*
X172334903Y-86100139D01*
X172349041Y-86105612D01*
G37*
G36*
X172798918Y-86192011D02*
G01*
X172832370Y-86204253D01*
X172863285Y-86230247D01*
X172878290Y-86247616D01*
X172904447Y-86305123D01*
X172903217Y-86363707D01*
X172873966Y-86412542D01*
X172857899Y-86424642D01*
X172809957Y-86450989D01*
X172752356Y-86475029D01*
X172727082Y-86484762D01*
X172671591Y-86516763D01*
X172649952Y-86551287D01*
X172662873Y-86587444D01*
X172680192Y-86601792D01*
X172727863Y-86611396D01*
X172785301Y-86596573D01*
X172843531Y-86558750D01*
X172861585Y-86543248D01*
X172895341Y-86516440D01*
X172912825Y-86505833D01*
X172914471Y-86507864D01*
X172913182Y-86532268D01*
X172904183Y-86575437D01*
X172902891Y-86580471D01*
X172887801Y-86623560D01*
X172864884Y-86643831D01*
X172822274Y-86652439D01*
X172733164Y-86655071D01*
X172650810Y-86638234D01*
X172592463Y-86601584D01*
X172561572Y-86546520D01*
X172557849Y-86524527D01*
X172569477Y-86465487D01*
X172615062Y-86415411D01*
X172694726Y-86374140D01*
X172742187Y-86353987D01*
X172796281Y-86320058D01*
X172816403Y-86286214D01*
X172803356Y-86251548D01*
X172768059Y-86227222D01*
X172720301Y-86232097D01*
X172661626Y-86269903D01*
X172633487Y-86291714D01*
X172603373Y-86305337D01*
X172593533Y-86290440D01*
X172603312Y-86246762D01*
X172612141Y-86224609D01*
X172629419Y-86205767D01*
X172661741Y-86196296D01*
X172719222Y-86191361D01*
X172749686Y-86189945D01*
X172798918Y-86192011D01*
G37*
G36*
X173410397Y-86580018D02*
G01*
X173394489Y-86612844D01*
X173360772Y-86643676D01*
X173355684Y-86646099D01*
X173312853Y-86660832D01*
X173271814Y-86658694D01*
X173216462Y-86639186D01*
X173210271Y-86636684D01*
X173167578Y-86625207D01*
X173145432Y-86630366D01*
X173124695Y-86641706D01*
X173084753Y-86646944D01*
X173052479Y-86645334D01*
X173006863Y-86635661D01*
X172982120Y-86620506D01*
X172982885Y-86603661D01*
X173013796Y-86588917D01*
X173026997Y-86583865D01*
X173038804Y-86570332D01*
X173045464Y-86542562D01*
X173048410Y-86493544D01*
X173048410Y-86493486D01*
X173154907Y-86493486D01*
X173154912Y-86494791D01*
X173161282Y-86541397D01*
X173176073Y-86572861D01*
X173176278Y-86573064D01*
X173210251Y-86589762D01*
X173252883Y-86593407D01*
X173284259Y-86582268D01*
X173288060Y-86577732D01*
X173296575Y-86540869D01*
X173284943Y-86497234D01*
X173256815Y-86462736D01*
X173236926Y-86449985D01*
X173191893Y-86434376D01*
X173164287Y-86448957D01*
X173154907Y-86493486D01*
X173048410Y-86493486D01*
X173049073Y-86416269D01*
X173049321Y-86380238D01*
X173053817Y-86296852D01*
X173066433Y-86241331D01*
X173090366Y-86208312D01*
X173128815Y-86192434D01*
X173184975Y-86188333D01*
X173224634Y-86190855D01*
X173292050Y-86207293D01*
X173346391Y-86235279D01*
X173382239Y-86270404D01*
X173394176Y-86308259D01*
X173376784Y-86344432D01*
X173358997Y-86357045D01*
X173324860Y-86357815D01*
X173298221Y-86332534D01*
X173287939Y-86286937D01*
X173279866Y-86248923D01*
X173248023Y-86229876D01*
X173246946Y-86229611D01*
X173198520Y-86232166D01*
X173166487Y-86263774D01*
X173154907Y-86320484D01*
X173157071Y-86352017D01*
X173169084Y-86373808D01*
X173198935Y-86391107D01*
X173254616Y-86411182D01*
X173304272Y-86430809D01*
X173371737Y-86473715D01*
X173407714Y-86524103D01*
X173408518Y-86540869D01*
X173410397Y-86580018D01*
G37*
G36*
X173870090Y-86374295D02*
G01*
X173874144Y-86453182D01*
X173855207Y-86528964D01*
X173813658Y-86593445D01*
X173749872Y-86638432D01*
X173700170Y-86655960D01*
X173627148Y-86660954D01*
X173551402Y-86636762D01*
X173520388Y-86618388D01*
X173492384Y-86594405D01*
X173477049Y-86573687D01*
X173479055Y-86562838D01*
X173503075Y-86568460D01*
X173506177Y-86569735D01*
X173547159Y-86581011D01*
X173599485Y-86589839D01*
X173631242Y-86591910D01*
X173671792Y-86581847D01*
X173710507Y-86548290D01*
X173740691Y-86510285D01*
X173752324Y-86473847D01*
X173735735Y-86443252D01*
X173688686Y-86414909D01*
X173608941Y-86385230D01*
X173581946Y-86376337D01*
X173524532Y-86355647D01*
X173492873Y-86339322D01*
X173480884Y-86323465D01*
X173482485Y-86304177D01*
X173486547Y-86295792D01*
X173598196Y-86295792D01*
X173611421Y-86326903D01*
X173659769Y-86355666D01*
X173697117Y-86370173D01*
X173742288Y-86380637D01*
X173765628Y-86371338D01*
X173772268Y-86341635D01*
X173772268Y-86341459D01*
X173759146Y-86286647D01*
X173725769Y-86249798D01*
X173680869Y-86236514D01*
X173633182Y-86252400D01*
X173620137Y-86262505D01*
X173598196Y-86295792D01*
X173486547Y-86295792D01*
X173504370Y-86259004D01*
X173554614Y-86214688D01*
X173620902Y-86192569D01*
X173695062Y-86194932D01*
X173768920Y-86224063D01*
X173791506Y-86239983D01*
X173842670Y-86300497D01*
X173857890Y-86341459D01*
X173870090Y-86374295D01*
G37*
G36*
X174715916Y-86136994D02*
G01*
X174774507Y-86175104D01*
X174808175Y-86199035D01*
X174834407Y-86221239D01*
X174836381Y-86232645D01*
X174817372Y-86238067D01*
X174812479Y-86238817D01*
X174796050Y-86244275D01*
X174785820Y-86258341D01*
X174780325Y-86287684D01*
X174778101Y-86338970D01*
X174777685Y-86418866D01*
X174777412Y-86470985D01*
X174775122Y-86537008D01*
X174769400Y-86580179D01*
X174758933Y-86608333D01*
X174742407Y-86629305D01*
X174736163Y-86635250D01*
X174692957Y-86659889D01*
X174640195Y-86659712D01*
X174569861Y-86634984D01*
X174504282Y-86605384D01*
X174574837Y-86595296D01*
X174645393Y-86585208D01*
X174650441Y-86413229D01*
X174655490Y-86241250D01*
X174593115Y-86241250D01*
X174584462Y-86241079D01*
X174546258Y-86235222D01*
X174530740Y-86223611D01*
X174531273Y-86221296D01*
X174551671Y-86210402D01*
X174592476Y-86205972D01*
X174628843Y-86203904D01*
X174649600Y-86191696D01*
X174654212Y-86161875D01*
X174654331Y-86154799D01*
X174660520Y-86127357D01*
X174679484Y-86121250D01*
X174715916Y-86136994D01*
G37*
G36*
X175795884Y-86448233D02*
G01*
X175794995Y-86458731D01*
X175776433Y-86539863D01*
X175735829Y-86597861D01*
X175668448Y-86639844D01*
X175609110Y-86658719D01*
X175522108Y-86660682D01*
X175444387Y-86633593D01*
X175381711Y-86581212D01*
X175339846Y-86507297D01*
X175335656Y-86482173D01*
X175440284Y-86482173D01*
X175447396Y-86543015D01*
X175463351Y-86582497D01*
X175489382Y-86602151D01*
X175540713Y-86612189D01*
X175594960Y-86600557D01*
X175638201Y-86568380D01*
X175639329Y-86566928D01*
X175669629Y-86508748D01*
X175684224Y-86440190D01*
X175684027Y-86370024D01*
X175669948Y-86307019D01*
X175642901Y-86259946D01*
X175603797Y-86237575D01*
X175559244Y-86237372D01*
X175501982Y-86263387D01*
X175462384Y-86318503D01*
X175452780Y-86347616D01*
X175442063Y-86412772D01*
X175440284Y-86482173D01*
X175335656Y-86482173D01*
X175324556Y-86415608D01*
X175330688Y-86360206D01*
X175363352Y-86285528D01*
X175419166Y-86230204D01*
X175492443Y-86197571D01*
X175577493Y-86190967D01*
X175668629Y-86213730D01*
X175692401Y-86225285D01*
X175754030Y-86278776D01*
X175788991Y-86353950D01*
X175795296Y-86440190D01*
X175795884Y-86448233D01*
G37*
G36*
X176050759Y-85982213D02*
G01*
X176041582Y-85992618D01*
X176028356Y-86013700D01*
X176019864Y-86042273D01*
X176015088Y-86085282D01*
X176013011Y-86149671D01*
X176012613Y-86242387D01*
X176012819Y-86461736D01*
X176269651Y-86201562D01*
X176526483Y-85941389D01*
X176635452Y-85941455D01*
X176744421Y-85941521D01*
X176688220Y-85975789D01*
X176671862Y-85986143D01*
X176640300Y-86011122D01*
X176618464Y-86041090D01*
X176604814Y-86082094D01*
X176597811Y-86140180D01*
X176595916Y-86221393D01*
X176597589Y-86331780D01*
X176598276Y-86360949D01*
X176600829Y-86450594D01*
X176604163Y-86512841D01*
X176609382Y-86553914D01*
X176617593Y-86580035D01*
X176629899Y-86597430D01*
X176647407Y-86612321D01*
X176691504Y-86646160D01*
X176569866Y-86646552D01*
X176448228Y-86646944D01*
X176494901Y-86603689D01*
X176495762Y-86602890D01*
X176514746Y-86583833D01*
X176527595Y-86563770D01*
X176535506Y-86535847D01*
X176539675Y-86493209D01*
X176541298Y-86429002D01*
X176541573Y-86336372D01*
X176541355Y-86244942D01*
X176540145Y-86183243D01*
X176537115Y-86147014D01*
X176531436Y-86131336D01*
X176522280Y-86131289D01*
X176508817Y-86141954D01*
X176507885Y-86142806D01*
X176483795Y-86166067D01*
X176439706Y-86209649D01*
X176380056Y-86269129D01*
X176309281Y-86340084D01*
X176231818Y-86418091D01*
X176221864Y-86428118D01*
X176146275Y-86503003D01*
X176078603Y-86567933D01*
X176023011Y-86619067D01*
X175983660Y-86652564D01*
X175964713Y-86664583D01*
X175959449Y-86662069D01*
X175952386Y-86644790D01*
X175947367Y-86607782D01*
X175944121Y-86547161D01*
X175942373Y-86459043D01*
X175941851Y-86339544D01*
X175941851Y-86014505D01*
X175895375Y-85977947D01*
X175848899Y-85941389D01*
X175969006Y-85941389D01*
X176089112Y-85941389D01*
X176050759Y-85982213D01*
G37*
G36*
X173065585Y-87087313D02*
G01*
X173070997Y-87090714D01*
X173095032Y-87123619D01*
X173102726Y-87165769D01*
X173090231Y-87199629D01*
X173066500Y-87212222D01*
X173027010Y-87208567D01*
X172992988Y-87185713D01*
X172978518Y-87149925D01*
X172978540Y-87147608D01*
X172991531Y-87101684D01*
X173023137Y-87079722D01*
X173065585Y-87087313D01*
G37*
G36*
X175143923Y-87106032D02*
G01*
X175165517Y-87137410D01*
X175158513Y-87187142D01*
X175142849Y-87203449D01*
X175099695Y-87208160D01*
X175079321Y-87204664D01*
X175056463Y-87188331D01*
X175051087Y-87149653D01*
X175052694Y-87121827D01*
X175066447Y-87101134D01*
X175103762Y-87096736D01*
X175143923Y-87106032D01*
G37*
G36*
X172993036Y-87282654D02*
G01*
X173022440Y-87295723D01*
X173064155Y-87319936D01*
X173107355Y-87348294D01*
X173141215Y-87373800D01*
X173154907Y-87389454D01*
X173148302Y-87398725D01*
X173119629Y-87405417D01*
X173110540Y-87405907D01*
X173096402Y-87412883D01*
X173088516Y-87433790D01*
X173085095Y-87475738D01*
X173084351Y-87545840D01*
X173084359Y-87553831D01*
X173085887Y-87624288D01*
X173091474Y-87669649D01*
X173103153Y-87699200D01*
X173122955Y-87722229D01*
X173161559Y-87758194D01*
X173030351Y-87757269D01*
X172992501Y-87756912D01*
X172942675Y-87755275D01*
X172920489Y-87751073D01*
X172920891Y-87742728D01*
X172938830Y-87728659D01*
X172949484Y-87720624D01*
X172962942Y-87704926D01*
X172971447Y-87680896D01*
X172976127Y-87641799D01*
X172978108Y-87580899D01*
X172978518Y-87491459D01*
X172978518Y-87491069D01*
X172979319Y-87409854D01*
X172981488Y-87343361D01*
X172984693Y-87298440D01*
X172988606Y-87281944D01*
X172993036Y-87282654D01*
G37*
G36*
X173844204Y-87307067D02*
G01*
X173903551Y-87336603D01*
X173924723Y-87349943D01*
X173958502Y-87378568D01*
X173964118Y-87398156D01*
X173939837Y-87405417D01*
X173936484Y-87405671D01*
X173922281Y-87417681D01*
X173914069Y-87452238D01*
X173910148Y-87515660D01*
X173908452Y-87595588D01*
X173909687Y-87654645D01*
X173915188Y-87692417D01*
X173926060Y-87716134D01*
X173943412Y-87733030D01*
X173946707Y-87735602D01*
X173955752Y-87746810D01*
X173944857Y-87753262D01*
X173908917Y-87756161D01*
X173842823Y-87756708D01*
X173803838Y-87756505D01*
X173754121Y-87755067D01*
X173731976Y-87750966D01*
X173732357Y-87742673D01*
X173750219Y-87728659D01*
X173770875Y-87710282D01*
X173783059Y-87684479D01*
X173788598Y-87642255D01*
X173789907Y-87574206D01*
X173788613Y-87524396D01*
X173780453Y-87455014D01*
X173765600Y-87414196D01*
X173753430Y-87398643D01*
X173735830Y-87390961D01*
X173711424Y-87410824D01*
X173689616Y-87429492D01*
X173667334Y-87440694D01*
X173641152Y-87426505D01*
X173621193Y-87391108D01*
X173616574Y-87349061D01*
X173626428Y-87323237D01*
X173657990Y-87303399D01*
X173701430Y-87307519D01*
X173747536Y-87336483D01*
X173789907Y-87376288D01*
X173789907Y-87337936D01*
X173791178Y-87323495D01*
X173807462Y-87302689D01*
X173844204Y-87307067D01*
G37*
G36*
X175086141Y-87307151D02*
G01*
X175126592Y-87326992D01*
X175169869Y-87352317D01*
X175204377Y-87376318D01*
X175218521Y-87392187D01*
X175212002Y-87399867D01*
X175183379Y-87405417D01*
X175171852Y-87406324D01*
X175159002Y-87414645D01*
X175151853Y-87437476D01*
X175148766Y-87481737D01*
X175148101Y-87554347D01*
X175148248Y-87591204D01*
X175150295Y-87652356D01*
X175156241Y-87690394D01*
X175167955Y-87713720D01*
X175187304Y-87730736D01*
X175197849Y-87738410D01*
X175207387Y-87749328D01*
X175196828Y-87755259D01*
X175161114Y-87757712D01*
X175095185Y-87758194D01*
X175058603Y-87758108D01*
X175008195Y-87756843D01*
X174985509Y-87752865D01*
X174985486Y-87744665D01*
X175003065Y-87730736D01*
X175011188Y-87724712D01*
X175025517Y-87709270D01*
X175034612Y-87686109D01*
X175039651Y-87648342D01*
X175041810Y-87589078D01*
X175042268Y-87501430D01*
X175042690Y-87448355D01*
X175045861Y-87367121D01*
X175051970Y-87316822D01*
X175060822Y-87299583D01*
X175086141Y-87307151D01*
G37*
G36*
X175711324Y-87309586D02*
G01*
X175767470Y-87338109D01*
X175795108Y-87354662D01*
X175829142Y-87382141D01*
X175831197Y-87399418D01*
X175800740Y-87405417D01*
X175791439Y-87405936D01*
X175777413Y-87413020D01*
X175769591Y-87434083D01*
X175766199Y-87476220D01*
X175765462Y-87546528D01*
X175766570Y-87613824D01*
X175771599Y-87665319D01*
X175782384Y-87698657D01*
X175800740Y-87722917D01*
X175836018Y-87758194D01*
X175708621Y-87758194D01*
X175676699Y-87758130D01*
X175625673Y-87756946D01*
X175602666Y-87753039D01*
X175602607Y-87744828D01*
X175620427Y-87730736D01*
X175621200Y-87730191D01*
X175641455Y-87711549D01*
X175653082Y-87685327D01*
X175658375Y-87642305D01*
X175659629Y-87573266D01*
X175659584Y-87553588D01*
X175657767Y-87492309D01*
X175651259Y-87453985D01*
X175637307Y-87428740D01*
X175613153Y-87406697D01*
X175606886Y-87401860D01*
X175553560Y-87370942D01*
X175513692Y-87370138D01*
X175486359Y-87400395D01*
X175470637Y-87462658D01*
X175465601Y-87557875D01*
X175465706Y-87588684D01*
X175467638Y-87650978D01*
X175473507Y-87689725D01*
X175485250Y-87713465D01*
X175504804Y-87730736D01*
X175514357Y-87737636D01*
X175525087Y-87748998D01*
X175515753Y-87755159D01*
X175481284Y-87757699D01*
X175416609Y-87758194D01*
X175289212Y-87758194D01*
X175324490Y-87722917D01*
X175332584Y-87714077D01*
X175346591Y-87690241D01*
X175354851Y-87655420D01*
X175358774Y-87601527D01*
X175359768Y-87520476D01*
X175359768Y-87517380D01*
X175360371Y-87440104D01*
X175363314Y-87390009D01*
X175370359Y-87359262D01*
X175383263Y-87340027D01*
X175403787Y-87324470D01*
X175413838Y-87318645D01*
X175475958Y-87304609D01*
X175546223Y-87316990D01*
X175613742Y-87354244D01*
X175659629Y-87390338D01*
X175659629Y-87344961D01*
X175662822Y-87316644D01*
X175678228Y-87302317D01*
X175711324Y-87309586D01*
G37*
G36*
X172784490Y-87277053D02*
G01*
X172829624Y-87308849D01*
X172856211Y-87331527D01*
X172859149Y-87343552D01*
X172841817Y-87349173D01*
X172836953Y-87349937D01*
X172820514Y-87355453D01*
X172810275Y-87369557D01*
X172804774Y-87398921D01*
X172802546Y-87450216D01*
X172802129Y-87530116D01*
X172801773Y-87589894D01*
X172799317Y-87652831D01*
X172793325Y-87693898D01*
X172782414Y-87721041D01*
X172765198Y-87742208D01*
X172749479Y-87756222D01*
X172714226Y-87771031D01*
X172664099Y-87767101D01*
X172662676Y-87766833D01*
X172597510Y-87750441D01*
X172557859Y-87732466D01*
X172545817Y-87715754D01*
X172563477Y-87703152D01*
X172612932Y-87697507D01*
X172669837Y-87696458D01*
X172674886Y-87524479D01*
X172679934Y-87352500D01*
X172617559Y-87352500D01*
X172610828Y-87352433D01*
X172568426Y-87345517D01*
X172555185Y-87326042D01*
X172555231Y-87324481D01*
X172570554Y-87305553D01*
X172615749Y-87299583D01*
X172647399Y-87297914D01*
X172672511Y-87285738D01*
X172681895Y-87255148D01*
X172687476Y-87210712D01*
X172784490Y-87277053D01*
G37*
G36*
X173473829Y-87312030D02*
G01*
X173513994Y-87336038D01*
X173541447Y-87361544D01*
X173556666Y-87395389D01*
X173557108Y-87447105D01*
X173556677Y-87452524D01*
X173549949Y-87489639D01*
X173533280Y-87518869D01*
X173500836Y-87545116D01*
X173446785Y-87573281D01*
X173365292Y-87608264D01*
X173336706Y-87627530D01*
X173322476Y-87670000D01*
X173324583Y-87692307D01*
X173340867Y-87711627D01*
X173382047Y-87719792D01*
X173414896Y-87719993D01*
X173455405Y-87705571D01*
X173500845Y-87668081D01*
X173520300Y-87650082D01*
X173552092Y-87625063D01*
X173568256Y-87618858D01*
X173569647Y-87622537D01*
X173567973Y-87651459D01*
X173558673Y-87697027D01*
X173540908Y-87767014D01*
X173431692Y-87766321D01*
X173366073Y-87763270D01*
X173299787Y-87749000D01*
X173255746Y-87720249D01*
X173227085Y-87673917D01*
X173214888Y-87634965D01*
X173216880Y-87587749D01*
X173244483Y-87546915D01*
X173300785Y-87508549D01*
X173388870Y-87468740D01*
X173395339Y-87466085D01*
X173448519Y-87434276D01*
X173468635Y-87398675D01*
X173454582Y-87361095D01*
X173442654Y-87348680D01*
X173414753Y-87336829D01*
X173377558Y-87346823D01*
X173322870Y-87379830D01*
X173302630Y-87393033D01*
X173266967Y-87413130D01*
X173249773Y-87417968D01*
X173249634Y-87417814D01*
X173250298Y-87397615D01*
X173260889Y-87359655D01*
X173268813Y-87339629D01*
X173285853Y-87318284D01*
X173316742Y-87307909D01*
X173372195Y-87303055D01*
X173425894Y-87302527D01*
X173473829Y-87312030D01*
G37*
G36*
X174424841Y-87548559D02*
G01*
X174410950Y-87631900D01*
X174366996Y-87701766D01*
X174294111Y-87751683D01*
X174273171Y-87759762D01*
X174194511Y-87770204D01*
X174118051Y-87753942D01*
X174056209Y-87712994D01*
X174030500Y-87684630D01*
X174026506Y-87673648D01*
X174045671Y-87678667D01*
X174096289Y-87694975D01*
X174175233Y-87702795D01*
X174237131Y-87681240D01*
X174284277Y-87629839D01*
X174289819Y-87620600D01*
X174310574Y-87582630D01*
X174319008Y-87561205D01*
X174316204Y-87557972D01*
X174288929Y-87544126D01*
X174238823Y-87524246D01*
X174173553Y-87501479D01*
X174145355Y-87492141D01*
X174084315Y-87471568D01*
X174040857Y-87456399D01*
X174022962Y-87449393D01*
X174020502Y-87445024D01*
X174027194Y-87419469D01*
X174030246Y-87414544D01*
X174146223Y-87414544D01*
X174154280Y-87439935D01*
X174161206Y-87444621D01*
X174195552Y-87461715D01*
X174244108Y-87481996D01*
X174319073Y-87510964D01*
X174319073Y-87465850D01*
X174310968Y-87409282D01*
X174281257Y-87366954D01*
X174230879Y-87352500D01*
X174194502Y-87361340D01*
X174162412Y-87385171D01*
X174146223Y-87414544D01*
X174030246Y-87414544D01*
X174049333Y-87383738D01*
X174079422Y-87348573D01*
X174109965Y-87324719D01*
X174169897Y-87303981D01*
X174246446Y-87304964D01*
X174315903Y-87333957D01*
X174372581Y-87386916D01*
X174410789Y-87459798D01*
X174411747Y-87465850D01*
X174424841Y-87548559D01*
G37*
G36*
X174582436Y-87317778D02*
G01*
X174607815Y-87321644D01*
X174609250Y-87332102D01*
X174592536Y-87352434D01*
X174583181Y-87363226D01*
X174572713Y-87382185D01*
X174573141Y-87406295D01*
X174585555Y-87444607D01*
X174611045Y-87506175D01*
X174661421Y-87624705D01*
X174709865Y-87519470D01*
X174718173Y-87501208D01*
X174746184Y-87432456D01*
X174756910Y-87386281D01*
X174751018Y-87356335D01*
X174729178Y-87336274D01*
X174722396Y-87331146D01*
X174727723Y-87323522D01*
X174761645Y-87319268D01*
X174827472Y-87317758D01*
X174956634Y-87317222D01*
X174924366Y-87358244D01*
X174907459Y-87384809D01*
X174878406Y-87438407D01*
X174843146Y-87508754D01*
X174805964Y-87587550D01*
X174771828Y-87658731D01*
X174739495Y-87719551D01*
X174713931Y-87760703D01*
X174698754Y-87775833D01*
X174684401Y-87761566D01*
X174659530Y-87720966D01*
X174627963Y-87660391D01*
X174593245Y-87586215D01*
X174561049Y-87516612D01*
X174525091Y-87444666D01*
X174494158Y-87388675D01*
X174472604Y-87356910D01*
X174436396Y-87317222D01*
X174530399Y-87317222D01*
X174582436Y-87317778D01*
G37*
G36*
X176582063Y-87053031D02*
G01*
X176642183Y-87053416D01*
X176687481Y-87055226D01*
X176706899Y-87059914D01*
X176705602Y-87068974D01*
X176688752Y-87083899D01*
X176678263Y-87093267D01*
X176665574Y-87111396D01*
X176656883Y-87139069D01*
X176651074Y-87182719D01*
X176647028Y-87248779D01*
X176643629Y-87343680D01*
X176641973Y-87389631D01*
X176634499Y-87501100D01*
X176621084Y-87584786D01*
X176599225Y-87646188D01*
X176566420Y-87690808D01*
X176520164Y-87724145D01*
X176457956Y-87751702D01*
X176418472Y-87762434D01*
X176336199Y-87770768D01*
X176246342Y-87767537D01*
X176162798Y-87753593D01*
X176099463Y-87729783D01*
X176090256Y-87724318D01*
X176044476Y-87692911D01*
X176011540Y-87658296D01*
X175989029Y-87614060D01*
X175974528Y-87553791D01*
X175965619Y-87471077D01*
X175959885Y-87359505D01*
X175959555Y-87350988D01*
X175955555Y-87257222D01*
X175951285Y-87191867D01*
X175945498Y-87148557D01*
X175936948Y-87120929D01*
X175924388Y-87102618D01*
X175906573Y-87087259D01*
X175862476Y-87053423D01*
X175985948Y-87053423D01*
X176109421Y-87053423D01*
X176065323Y-87087276D01*
X176062531Y-87089441D01*
X176043360Y-87107312D01*
X176030818Y-87129852D01*
X176023115Y-87164711D01*
X176018458Y-87219541D01*
X176015056Y-87301993D01*
X176013706Y-87368352D01*
X176017556Y-87471271D01*
X176030910Y-87548855D01*
X176055073Y-87607088D01*
X176091350Y-87651955D01*
X176093657Y-87654059D01*
X176151403Y-87685750D01*
X176227968Y-87701869D01*
X176310559Y-87701107D01*
X176386382Y-87682154D01*
X176419805Y-87666307D01*
X176459131Y-87637436D01*
X176486428Y-87597579D01*
X176504159Y-87540681D01*
X176514786Y-87460686D01*
X176520770Y-87351536D01*
X176523314Y-87275094D01*
X176524173Y-87210372D01*
X176521635Y-87167563D01*
X176514613Y-87139411D01*
X176502019Y-87118662D01*
X176482766Y-87098061D01*
X176437344Y-87052639D01*
X176582063Y-87053031D01*
G37*
G36*
X177374776Y-84869560D02*
G01*
X177450497Y-84870276D01*
X177583987Y-84871819D01*
X177687752Y-84873635D01*
X177765546Y-84875976D01*
X177821119Y-84879090D01*
X177858224Y-84883227D01*
X177880614Y-84888638D01*
X177892041Y-84895571D01*
X177896257Y-84904278D01*
X177896259Y-84904287D01*
X177888517Y-84927252D01*
X177854546Y-84954955D01*
X177790659Y-84990399D01*
X177738213Y-85018183D01*
X177635194Y-85085827D01*
X177557783Y-85161501D01*
X177499234Y-85252723D01*
X177452805Y-85367011D01*
X177446472Y-85387040D01*
X177439038Y-85415333D01*
X177432880Y-85447788D01*
X177427835Y-85487862D01*
X177423740Y-85539011D01*
X177420430Y-85604695D01*
X177417741Y-85688369D01*
X177415510Y-85793491D01*
X177413573Y-85923518D01*
X177411766Y-86081908D01*
X177409926Y-86272118D01*
X177408871Y-86406708D01*
X177408149Y-86561696D01*
X177408031Y-86702470D01*
X177408492Y-86825520D01*
X177409506Y-86927336D01*
X177411049Y-87004408D01*
X177413096Y-87053225D01*
X177415622Y-87070278D01*
X177416063Y-87070268D01*
X177420381Y-87069183D01*
X177427253Y-87065290D01*
X177438203Y-87057148D01*
X177454762Y-87043319D01*
X177478455Y-87022360D01*
X177510811Y-86992833D01*
X177553357Y-86953296D01*
X177607621Y-86902309D01*
X177675131Y-86838432D01*
X177757414Y-86760225D01*
X177855998Y-86666247D01*
X177972410Y-86555058D01*
X178108178Y-86425218D01*
X178264830Y-86275286D01*
X178443894Y-86103822D01*
X178646896Y-85909386D01*
X178805851Y-85757431D01*
X178977334Y-85594242D01*
X179135541Y-85444498D01*
X179278970Y-85309595D01*
X179406118Y-85190925D01*
X179515486Y-85089883D01*
X179605570Y-85007862D01*
X179674871Y-84946257D01*
X179721886Y-84906461D01*
X179745113Y-84889868D01*
X179751110Y-84887551D01*
X179781426Y-84879779D01*
X179825366Y-84874158D01*
X179887256Y-84870504D01*
X179971421Y-84868634D01*
X180082190Y-84868363D01*
X180223888Y-84869507D01*
X180231236Y-84869591D01*
X180361669Y-84871206D01*
X180461197Y-84872970D01*
X180533986Y-84875264D01*
X180584200Y-84878476D01*
X180616004Y-84882988D01*
X180633565Y-84889187D01*
X180641047Y-84897456D01*
X180642615Y-84908180D01*
X180636317Y-84928712D01*
X180609360Y-84946497D01*
X180554421Y-84962344D01*
X180510216Y-84973767D01*
X180438430Y-84999789D01*
X180368687Y-85036902D01*
X180294870Y-85089141D01*
X180210862Y-85160541D01*
X180110545Y-85255137D01*
X179981157Y-85381047D01*
X179981701Y-86194794D01*
X179981995Y-86323950D01*
X179982984Y-86490780D01*
X179984587Y-86647853D01*
X179986724Y-86790914D01*
X179989317Y-86915712D01*
X179992289Y-87017992D01*
X179995560Y-87093502D01*
X179999053Y-87137987D01*
X180016137Y-87234512D01*
X180061373Y-87369793D01*
X180130541Y-87481959D01*
X180226237Y-87574798D01*
X180351052Y-87652098D01*
X180407889Y-87683632D01*
X180445719Y-87713925D01*
X180457407Y-87740809D01*
X180457403Y-87741784D01*
X180456039Y-87751690D01*
X180449623Y-87759461D01*
X180434377Y-87765357D01*
X180406521Y-87769636D01*
X180362279Y-87772557D01*
X180297872Y-87774378D01*
X180209522Y-87775359D01*
X180093450Y-87775758D01*
X179945879Y-87775833D01*
X179931640Y-87775833D01*
X179786970Y-87775740D01*
X179673470Y-87775300D01*
X179587361Y-87774256D01*
X179524866Y-87772349D01*
X179482205Y-87769320D01*
X179455602Y-87764910D01*
X179441277Y-87758861D01*
X179435453Y-87750913D01*
X179434351Y-87740809D01*
X179441830Y-87719236D01*
X179474723Y-87689483D01*
X179537556Y-87653688D01*
X179558442Y-87642911D01*
X179671055Y-87572984D01*
X179755912Y-87494113D01*
X179819501Y-87398974D01*
X179868310Y-87280241D01*
X179872990Y-87264850D01*
X179879501Y-87237403D01*
X179884969Y-87203520D01*
X179889522Y-87159997D01*
X179893286Y-87103629D01*
X179896387Y-87031211D01*
X179898953Y-86939539D01*
X179901109Y-86825409D01*
X179902983Y-86685614D01*
X179904701Y-86516951D01*
X179906389Y-86316215D01*
X179906597Y-86289202D01*
X179907670Y-86119407D01*
X179908276Y-85961334D01*
X179908430Y-85818349D01*
X179908145Y-85693816D01*
X179907434Y-85591100D01*
X179906312Y-85513565D01*
X179904791Y-85464577D01*
X179902885Y-85447500D01*
X179900027Y-85449615D01*
X179875808Y-85471161D01*
X179828486Y-85514630D01*
X179759822Y-85578368D01*
X179671578Y-85660723D01*
X179565516Y-85760040D01*
X179443397Y-85874669D01*
X179306984Y-86002954D01*
X179158038Y-86143245D01*
X178998321Y-86293887D01*
X178829594Y-86453228D01*
X178653619Y-86619615D01*
X178495851Y-86768743D01*
X178281673Y-86970678D01*
X178091809Y-87148998D01*
X177925650Y-87304264D01*
X177782585Y-87437034D01*
X177662005Y-87547869D01*
X177563298Y-87637328D01*
X177485855Y-87705971D01*
X177429067Y-87754358D01*
X177392322Y-87783048D01*
X177375011Y-87792601D01*
X177335323Y-87793472D01*
X177334779Y-86713090D01*
X177334423Y-86522780D01*
X177333547Y-86333287D01*
X177332205Y-86154363D01*
X177330447Y-85989536D01*
X177328324Y-85842337D01*
X177325889Y-85716295D01*
X177323191Y-85614941D01*
X177320283Y-85541805D01*
X177317214Y-85500417D01*
X177292002Y-85380819D01*
X177248888Y-85265800D01*
X177192537Y-85167285D01*
X177127270Y-85094510D01*
X177093447Y-85069385D01*
X177028036Y-85028556D01*
X176960497Y-84993198D01*
X176941807Y-84984372D01*
X176891382Y-84956529D01*
X176866035Y-84932192D01*
X176859073Y-84905577D01*
X176859073Y-84864884D01*
X177374776Y-84869560D01*
G37*
G36*
X172461712Y-87300954D02*
G01*
X172503815Y-87304739D01*
X172519907Y-87310089D01*
X172519885Y-87310514D01*
X172510151Y-87331974D01*
X172488045Y-87367416D01*
X172483126Y-87375066D01*
X172459343Y-87417796D01*
X172428878Y-87478138D01*
X172395499Y-87547910D01*
X172362977Y-87618932D01*
X172335081Y-87683022D01*
X172315578Y-87731999D01*
X172308240Y-87757683D01*
X172308294Y-87759026D01*
X172316967Y-87789021D01*
X172335970Y-87831209D01*
X172337219Y-87833620D01*
X172356958Y-87866878D01*
X172373092Y-87872658D01*
X172396394Y-87855245D01*
X172423961Y-87838096D01*
X172461268Y-87831794D01*
X172472982Y-87836308D01*
X172494670Y-87865054D01*
X172499286Y-87906076D01*
X172483823Y-87944373D01*
X172477456Y-87950972D01*
X172435294Y-87968430D01*
X172385420Y-87961064D01*
X172340920Y-87930173D01*
X172332038Y-87917831D01*
X172306556Y-87873623D01*
X172272190Y-87807283D01*
X172232319Y-87725440D01*
X172190322Y-87634722D01*
X172166741Y-87582989D01*
X172127118Y-87498453D01*
X172092479Y-87427465D01*
X172065905Y-87376269D01*
X172050474Y-87351111D01*
X172032561Y-87327703D01*
X172031337Y-87309911D01*
X172057212Y-87301623D01*
X172114212Y-87299583D01*
X172160788Y-87302185D01*
X172195549Y-87311417D01*
X172201717Y-87325187D01*
X172175948Y-87341240D01*
X172161737Y-87351968D01*
X172149490Y-87384872D01*
X172151433Y-87400760D01*
X172163300Y-87443812D01*
X172182203Y-87495884D01*
X172203769Y-87546299D01*
X172223623Y-87584378D01*
X172237390Y-87599444D01*
X172238185Y-87599257D01*
X172251884Y-87581226D01*
X172273877Y-87539526D01*
X172299795Y-87482354D01*
X172307481Y-87464178D01*
X172329154Y-87409622D01*
X172337676Y-87376846D01*
X172334250Y-87357618D01*
X172320080Y-87343708D01*
X172313090Y-87338445D01*
X172294387Y-87318996D01*
X172301414Y-87307124D01*
X172337320Y-87301197D01*
X172405254Y-87299583D01*
X172461712Y-87300954D01*
G37*
%TD*%
M02*
