%TF.GenerationSoftware,KiCad,Pcbnew,9.0.6*%
%TF.CreationDate,2026-04-14T17:42:44-04:00*%
%TF.ProjectId,Smart_Glasses_V2_PCB_RIGHT,536d6172-745f-4476-9c61-737365735f56,rev?*%
%TF.SameCoordinates,Original*%
%TF.FileFunction,Copper,L1,Top*%
%TF.FilePolarity,Positive*%
%FSLAX46Y46*%
G04 Gerber Fmt 4.6, Leading zero omitted, Abs format (unit mm)*
G04 Created by KiCad (PCBNEW 9.0.6) date 2026-04-14 17:42:44*
%MOMM*%
%LPD*%
G01*
G04 APERTURE LIST*
G04 Aperture macros list*
%AMRoundRect*
0 Rectangle with rounded corners*
0 $1 Rounding radius*
0 $2 $3 $4 $5 $6 $7 $8 $9 X,Y pos of 4 corners*
0 Add a 4 corners polygon primitive as box body*
4,1,4,$2,$3,$4,$5,$6,$7,$8,$9,$2,$3,0*
0 Add four circle primitives for the rounded corners*
1,1,$1+$1,$2,$3*
1,1,$1+$1,$4,$5*
1,1,$1+$1,$6,$7*
1,1,$1+$1,$8,$9*
0 Add four rect primitives between the rounded corners*
20,1,$1+$1,$2,$3,$4,$5,0*
20,1,$1+$1,$4,$5,$6,$7,0*
20,1,$1+$1,$6,$7,$8,$9,0*
20,1,$1+$1,$8,$9,$2,$3,0*%
%AMFreePoly0*
4,1,23,0.500000,-0.750000,0.000000,-0.750000,0.000000,-0.745722,-0.065263,-0.745722,-0.191342,-0.711940,-0.304381,-0.646677,-0.396677,-0.554381,-0.461940,-0.441342,-0.495722,-0.315263,-0.495722,-0.250000,-0.500000,-0.250000,-0.500000,0.250000,-0.495722,0.250000,-0.495722,0.315263,-0.461940,0.441342,-0.396677,0.554381,-0.304381,0.646677,-0.191342,0.711940,-0.065263,0.745722,0.000000,0.745722,
0.000000,0.750000,0.500000,0.750000,0.500000,-0.750000,0.500000,-0.750000,$1*%
%AMFreePoly1*
4,1,23,0.000000,0.745722,0.065263,0.745722,0.191342,0.711940,0.304381,0.646677,0.396677,0.554381,0.461940,0.441342,0.495722,0.315263,0.495722,0.250000,0.500000,0.250000,0.500000,-0.250000,0.495722,-0.250000,0.495722,-0.315263,0.461940,-0.441342,0.396677,-0.554381,0.304381,-0.646677,0.191342,-0.711940,0.065263,-0.745722,0.000000,-0.745722,0.000000,-0.750000,-0.500000,-0.750000,
-0.500000,0.750000,0.000000,0.750000,0.000000,0.745722,0.000000,0.745722,$1*%
G04 Aperture macros list end*
%TA.AperFunction,SMDPad,CuDef*%
%ADD10RoundRect,0.237500X-0.250000X-0.237500X0.250000X-0.237500X0.250000X0.237500X-0.250000X0.237500X0*%
%TD*%
%TA.AperFunction,SMDPad,CuDef*%
%ADD11RoundRect,0.237500X0.300000X0.237500X-0.300000X0.237500X-0.300000X-0.237500X0.300000X-0.237500X0*%
%TD*%
%TA.AperFunction,SMDPad,CuDef*%
%ADD12RoundRect,0.237500X0.237500X-0.300000X0.237500X0.300000X-0.237500X0.300000X-0.237500X-0.300000X0*%
%TD*%
%TA.AperFunction,ComponentPad*%
%ADD13C,2.000000*%
%TD*%
%TA.AperFunction,SMDPad,CuDef*%
%ADD14FreePoly0,270.000000*%
%TD*%
%TA.AperFunction,SMDPad,CuDef*%
%ADD15FreePoly1,270.000000*%
%TD*%
%TA.AperFunction,SMDPad,CuDef*%
%ADD16R,1.300000X0.300000*%
%TD*%
%TA.AperFunction,SMDPad,CuDef*%
%ADD17R,2.200000X1.900000*%
%TD*%
%TA.AperFunction,SMDPad,CuDef*%
%ADD18RoundRect,0.237500X-0.237500X0.300000X-0.237500X-0.300000X0.237500X-0.300000X0.237500X0.300000X0*%
%TD*%
%TA.AperFunction,SMDPad,CuDef*%
%ADD19RoundRect,0.237500X-0.237500X0.250000X-0.237500X-0.250000X0.237500X-0.250000X0.237500X0.250000X0*%
%TD*%
%TA.AperFunction,SMDPad,CuDef*%
%ADD20RoundRect,0.250000X0.275000X0.350000X-0.275000X0.350000X-0.275000X-0.350000X0.275000X-0.350000X0*%
%TD*%
%TA.AperFunction,SMDPad,CuDef*%
%ADD21RoundRect,0.250000X-0.350000X0.275000X-0.350000X-0.275000X0.350000X-0.275000X0.350000X0.275000X0*%
%TD*%
%TA.AperFunction,ComponentPad*%
%ADD22R,1.600000X1.600000*%
%TD*%
%TA.AperFunction,ComponentPad*%
%ADD23C,1.600000*%
%TD*%
%TA.AperFunction,SMDPad,CuDef*%
%ADD24RoundRect,0.237500X0.250000X0.237500X-0.250000X0.237500X-0.250000X-0.237500X0.250000X-0.237500X0*%
%TD*%
%TA.AperFunction,SMDPad,CuDef*%
%ADD25R,3.000000X3.000000*%
%TD*%
%TA.AperFunction,SMDPad,CuDef*%
%ADD26RoundRect,0.033750X-0.101250X0.386250X-0.101250X-0.386250X0.101250X-0.386250X0.101250X0.386250X0*%
%TD*%
%TA.AperFunction,SMDPad,CuDef*%
%ADD27RoundRect,0.033750X-0.386250X0.101250X-0.386250X-0.101250X0.386250X-0.101250X0.386250X0.101250X0*%
%TD*%
%TA.AperFunction,SMDPad,CuDef*%
%ADD28R,1.100000X1.100000*%
%TD*%
%TA.AperFunction,ViaPad*%
%ADD29C,0.600000*%
%TD*%
%TA.AperFunction,Conductor*%
%ADD30C,0.200000*%
%TD*%
G04 APERTURE END LIST*
D10*
%TO.P,R1,1*%
%TO.N,Push_Button*%
X144175000Y-96500000D03*
%TO.P,R1,2*%
%TO.N,GND*%
X146000000Y-96500000D03*
%TD*%
D11*
%TO.P,C2,1*%
%TO.N,+3.3V*%
X155277500Y-95950000D03*
%TO.P,C2,2*%
%TO.N,GND*%
X153552500Y-95950000D03*
%TD*%
D12*
%TO.P,C4,1*%
%TO.N,Net-(C4-Pad1)*%
X146400000Y-92500000D03*
%TO.P,C4,2*%
%TO.N,GND*%
X146400000Y-90775000D03*
%TD*%
D13*
%TO.P,SW1,1,1*%
%TO.N,+3.3V*%
X134300000Y-92500000D03*
X140800000Y-92500000D03*
%TO.P,SW1,2,2*%
%TO.N,Push_Button*%
X134300000Y-97000000D03*
X140800000Y-97000000D03*
%TD*%
D11*
%TO.P,C1,1*%
%TO.N,+3.3V*%
X155277500Y-97500000D03*
%TO.P,C1,2*%
%TO.N,GND*%
X153552500Y-97500000D03*
%TD*%
D14*
%TO.P,J1,1,Pin_1*%
%TO.N,GAIN_AMP1_R*%
X163250000Y-95950000D03*
D15*
%TO.P,J1,2,Pin_2*%
%TO.N,GND*%
X163250000Y-97250000D03*
%TD*%
D16*
%TO.P,J2,1,1*%
%TO.N,+5V*%
X138655000Y-83300000D03*
%TO.P,J2,2,2*%
%TO.N,+3.3V*%
X138655000Y-83800000D03*
%TO.P,J2,3,3*%
%TO.N,DIN_AMP1_L*%
X138655000Y-84300000D03*
%TO.P,J2,4,4*%
%TO.N,LRCLK_AMP1_L*%
X138655000Y-84800000D03*
%TO.P,J2,5,5*%
%TO.N,BCLK_AMP1_L*%
X138655000Y-85300000D03*
%TO.P,J2,6,6*%
%TO.N,GND*%
X138655000Y-85800000D03*
D17*
%TO.P,J2,S1*%
%TO.N,N/C*%
X135405000Y-87750000D03*
%TO.P,J2,S2*%
X135405000Y-81350000D03*
%TD*%
D18*
%TO.P,C3,1*%
%TO.N,Net-(C3-Pad1)*%
X146300000Y-84900000D03*
%TO.P,C3,2*%
%TO.N,GND*%
X146300000Y-86625000D03*
%TD*%
D19*
%TO.P,R3,1*%
%TO.N,SD_MODE_AMP1_R*%
X150015000Y-94337500D03*
%TO.P,R3,2*%
%TO.N,+3.3V*%
X150015000Y-96162500D03*
%TD*%
D20*
%TO.P,FB1,1*%
%TO.N,Net-(C4-Pad1)*%
X148300000Y-94400000D03*
%TO.P,FB1,2*%
%TO.N,Net-(U2-OUTN)*%
X146000000Y-94400000D03*
%TD*%
D21*
%TO.P,FB2,1*%
%TO.N,Net-(U2-OUTP)*%
X146250000Y-80800000D03*
%TO.P,FB2,2*%
%TO.N,Net-(C3-Pad1)*%
X146250000Y-83100000D03*
%TD*%
D22*
%TO.P,U1,1,D0*%
%TO.N,unconnected-(U1-D0-Pad1)*%
X183050000Y-81497500D03*
D23*
%TO.P,U1,2,D1*%
%TO.N,unconnected-(U1-D1-Pad2)*%
X180510000Y-81497500D03*
%TO.P,U1,3,D2*%
%TO.N,unconnected-(U1-D2-Pad3)*%
X177970000Y-81497500D03*
%TO.P,U1,4,D3*%
%TO.N,LRCLK_AMP1_L*%
X175430000Y-81497500D03*
%TO.P,U1,5,D4*%
%TO.N,unconnected-(U1-D4-Pad5)*%
X172890000Y-81497500D03*
%TO.P,U1,6,D5*%
%TO.N,Push_Button*%
X170350000Y-81497500D03*
%TO.P,U1,7,TX/D6*%
%TO.N,unconnected-(U1-TX{slash}D6-Pad7)*%
X167810000Y-81497500D03*
%TO.P,U1,8,RX/D7*%
%TO.N,unconnected-(U1-RX{slash}D7-Pad8)*%
X167810000Y-96737500D03*
%TO.P,U1,9,D8*%
%TO.N,unconnected-(U1-D8-Pad9)*%
X170350000Y-96737500D03*
%TO.P,U1,10,D9*%
%TO.N,DIN_AMP1_L*%
X172890000Y-96737500D03*
%TO.P,U1,11,D10*%
%TO.N,BCLK_AMP1_L*%
X175430000Y-96737500D03*
%TO.P,U1,12,3V3*%
%TO.N,+3.3V*%
X177970000Y-96737500D03*
%TO.P,U1,13,GND*%
%TO.N,GND*%
X180510000Y-96737500D03*
%TO.P,U1,14,5V*%
%TO.N,+5V*%
X183050000Y-96737500D03*
%TD*%
D24*
%TO.P,R2,1*%
%TO.N,SD_MODE_AMP1_R*%
X155327500Y-94350000D03*
%TO.P,R2,2*%
%TO.N,GND*%
X153502500Y-94350000D03*
%TD*%
D25*
%TO.P,LS1,N*%
%TO.N,Net-(C4-Pad1)*%
X149050000Y-91540000D03*
%TO.P,LS1,P*%
%TO.N,Net-(C3-Pad1)*%
X149050000Y-81760000D03*
%TD*%
D26*
%TO.P,U2,1,DIN*%
%TO.N,DIN_AMP1_L*%
X159115000Y-94715000D03*
%TO.P,U2,2,GAIN_SLOT*%
%TO.N,GAIN_AMP1_R*%
X158615000Y-94715000D03*
%TO.P,U2,3,GND*%
%TO.N,GND*%
X158115000Y-94715000D03*
%TO.P,U2,4,SD_MODE*%
%TO.N,SD_MODE_AMP1_R*%
X157615000Y-94715000D03*
D27*
%TO.P,U2,5*%
%TO.N,N/C*%
X156930000Y-95400000D03*
%TO.P,U2,6*%
X156930000Y-95900000D03*
%TO.P,U2,7,VDD*%
%TO.N,+3.3V*%
X156930000Y-96400000D03*
%TO.P,U2,8,VDD*%
X156930000Y-96900000D03*
D26*
%TO.P,U2,9,OUTP*%
%TO.N,Net-(U2-OUTP)*%
X157615000Y-97585000D03*
%TO.P,U2,10,OUTN*%
%TO.N,Net-(U2-OUTN)*%
X158115000Y-97585000D03*
%TO.P,U2,11,GND*%
%TO.N,GND*%
X158615000Y-97585000D03*
%TO.P,U2,12*%
%TO.N,N/C*%
X159115000Y-97585000D03*
D27*
%TO.P,U2,13*%
X159800000Y-96900000D03*
%TO.P,U2,14,LRCLK*%
%TO.N,LRCLK_AMP1_L*%
X159800000Y-96400000D03*
%TO.P,U2,15,GND*%
%TO.N,GND*%
X159800000Y-95900000D03*
%TO.P,U2,16,BCLK*%
%TO.N,BCLK_AMP1_L*%
X159800000Y-95400000D03*
D28*
%TO.P,U2,17,EP*%
%TO.N,GND*%
X158365000Y-96150000D03*
%TD*%
D29*
%TO.N,+3.3V*%
X160200000Y-98550000D03*
X155277500Y-95950000D03*
%TO.N,GND*%
X138650000Y-86550000D03*
X135900000Y-85400000D03*
X159850000Y-81200000D03*
X135900000Y-90350000D03*
X157400000Y-83400000D03*
X164850000Y-85550000D03*
X186900000Y-80250000D03*
X143600000Y-82900000D03*
X165550000Y-96850000D03*
X164750000Y-81300000D03*
X176850000Y-90050000D03*
X174350000Y-84100000D03*
X148300000Y-85350000D03*
X155150000Y-83500000D03*
X184200000Y-92300000D03*
X156650000Y-92750000D03*
X137650000Y-94800000D03*
X182250000Y-88200000D03*
X178200000Y-98350000D03*
X172850000Y-90050000D03*
X133850000Y-90300000D03*
X144100000Y-98150000D03*
X142050000Y-89600000D03*
X182350000Y-84200000D03*
X148500000Y-98000000D03*
X140650000Y-88400000D03*
X143600000Y-85150000D03*
X155200000Y-85650000D03*
X140700000Y-89550000D03*
X152900000Y-85550000D03*
X181150000Y-94150000D03*
X184250000Y-88150000D03*
X141250000Y-82900000D03*
X176850000Y-94150000D03*
X147250000Y-97150000D03*
X186200000Y-92300000D03*
X179050000Y-92100000D03*
X152900000Y-81150000D03*
X186300000Y-82050000D03*
X151700000Y-96450000D03*
X139400000Y-94700000D03*
X186300000Y-84150000D03*
X159750000Y-85700000D03*
X164750000Y-83550000D03*
X142050000Y-90900000D03*
X138450000Y-88400000D03*
X143800000Y-90850000D03*
X172850000Y-87950000D03*
X135850000Y-83600000D03*
X180200000Y-88150000D03*
X161200000Y-97750000D03*
X141050000Y-80450000D03*
X186250000Y-86200000D03*
X139500000Y-88400000D03*
X133600000Y-85400000D03*
X157350000Y-81200000D03*
X135850000Y-94800000D03*
X133550000Y-83600000D03*
X178400000Y-84100000D03*
X186200000Y-94250000D03*
X180350000Y-84150000D03*
X138350000Y-87200000D03*
X184350000Y-84200000D03*
X179000000Y-94150000D03*
X138600000Y-80450000D03*
X152900000Y-83300000D03*
X159800000Y-83400000D03*
X180100000Y-86100000D03*
X174850000Y-90050000D03*
X157400000Y-85600000D03*
X186200000Y-96250000D03*
X174800000Y-92100000D03*
X155050000Y-81200000D03*
X182100000Y-90200000D03*
X162150000Y-83500000D03*
X181800000Y-98350000D03*
X184150000Y-94250000D03*
X139450000Y-89600000D03*
X184150000Y-90300000D03*
X182150000Y-86100000D03*
X176400000Y-84100000D03*
X176850000Y-92100000D03*
X186200000Y-90300000D03*
X186200000Y-88200000D03*
X143650000Y-80500000D03*
X139500000Y-87200000D03*
X174900000Y-87950000D03*
X184200000Y-86150000D03*
X162300000Y-81200000D03*
%TO.N,Net-(U2-OUTN)*%
X146000000Y-94400000D03*
X156200000Y-98599000D03*
%TO.N,Net-(U2-OUTP)*%
X146250000Y-80800000D03*
X156650000Y-97800000D03*
%TO.N,GAIN_AMP1_R*%
X158050000Y-93100000D03*
X163250000Y-95950000D03*
%TO.N,BCLK_AMP1_L*%
X155000000Y-90000000D03*
X159400000Y-90000000D03*
%TO.N,LRCLK_AMP1_L*%
X161300000Y-93650000D03*
X155050000Y-89100000D03*
X157900000Y-89100000D03*
X161200000Y-96750000D03*
%TO.N,+5V*%
X162600000Y-86550000D03*
%TO.N,DIN_AMP1_L*%
X169399000Y-88499000D03*
X166799000Y-88499000D03*
X172890000Y-93740000D03*
%TO.N,Push_Button*%
X149500000Y-87550000D03*
X144112500Y-96562500D03*
%TD*%
D30*
%TO.N,+3.3V*%
X156930000Y-96900000D02*
X156930000Y-96400000D01*
X138655000Y-83800000D02*
X137753000Y-83800000D01*
X155277500Y-98172500D02*
X155050000Y-98400000D01*
X143850000Y-95550000D02*
X149402500Y-95550000D01*
X155277500Y-97500000D02*
X155277500Y-98172500D01*
X155900000Y-96400000D02*
X156930000Y-96400000D01*
X155450000Y-95950000D02*
X155900000Y-96400000D01*
X149402500Y-95550000D02*
X150015000Y-96162500D01*
X177970000Y-96737500D02*
X176157500Y-98550000D01*
X155050000Y-98400000D02*
X150500000Y-98400000D01*
X137753000Y-83800000D02*
X137300000Y-84253000D01*
X155277500Y-95950000D02*
X155450000Y-95950000D01*
X137300000Y-89000000D02*
X140800000Y-92500000D01*
X150500000Y-98400000D02*
X150015000Y-97915000D01*
X176157500Y-98550000D02*
X160200000Y-98550000D01*
X140800000Y-92500000D02*
X134300000Y-92500000D01*
X140800000Y-92500000D02*
X143850000Y-95550000D01*
X150015000Y-97915000D02*
X150015000Y-96162500D01*
X137300000Y-84253000D02*
X137300000Y-89000000D01*
X155277500Y-95950000D02*
X155277500Y-97500000D01*
%TO.N,GND*%
X158115000Y-94715000D02*
X158115000Y-95900000D01*
X138655000Y-85800000D02*
X138655000Y-86095000D01*
X158365000Y-96150000D02*
X158615000Y-96400000D01*
X146400000Y-90775000D02*
X143875000Y-90775000D01*
X158115000Y-95900000D02*
X158365000Y-96150000D01*
X159800000Y-95900000D02*
X161517248Y-95900000D01*
X161517248Y-95900000D02*
X162867248Y-97250000D01*
X158365000Y-96150000D02*
X158615000Y-95900000D01*
X158615000Y-96400000D02*
X158615000Y-97585000D01*
X158615000Y-95900000D02*
X159800000Y-95900000D01*
X143875000Y-90775000D02*
X143800000Y-90850000D01*
X162867248Y-97250000D02*
X163250000Y-97250000D01*
X153502500Y-97450000D02*
X153552500Y-97500000D01*
X158115000Y-94215000D02*
X156650000Y-92750000D01*
X138655000Y-86095000D02*
X138650000Y-86100000D01*
X158115000Y-94715000D02*
X158115000Y-94215000D01*
X138655000Y-85800000D02*
X138655000Y-86545000D01*
X138655000Y-86545000D02*
X138650000Y-86550000D01*
X153502500Y-94350000D02*
X153502500Y-97450000D01*
%TO.N,Net-(C3-Pad1)*%
X146250000Y-83100000D02*
X147710000Y-83100000D01*
X146250000Y-84850000D02*
X146300000Y-84900000D01*
X147710000Y-83100000D02*
X149050000Y-81760000D01*
X146250000Y-83100000D02*
X146250000Y-84850000D01*
%TO.N,Net-(C4-Pad1)*%
X149050000Y-93650000D02*
X148300000Y-94400000D01*
X148090000Y-92500000D02*
X146400000Y-92500000D01*
X149050000Y-91540000D02*
X149050000Y-93650000D01*
X149050000Y-91540000D02*
X148090000Y-92500000D01*
%TO.N,Net-(U2-OUTN)*%
X158115000Y-98235000D02*
X157751000Y-98599000D01*
X156200000Y-98599000D02*
X156150000Y-98599000D01*
X157751000Y-98599000D02*
X156200000Y-98599000D01*
X158115000Y-97585000D02*
X158115000Y-98235000D01*
%TO.N,Net-(U2-OUTP)*%
X157400000Y-97800000D02*
X156650000Y-97800000D01*
X157615000Y-97585000D02*
X157400000Y-97800000D01*
%TO.N,GAIN_AMP1_R*%
X158615000Y-93665000D02*
X158050000Y-93100000D01*
X158615000Y-94715000D02*
X158615000Y-93665000D01*
%TO.N,BCLK_AMP1_L*%
X139422800Y-85300000D02*
X143722800Y-89600000D01*
X160699000Y-91299000D02*
X160699000Y-94501000D01*
X160699000Y-94501000D02*
X159800000Y-95400000D01*
X175430000Y-94730000D02*
X175041000Y-94341000D01*
X154600000Y-89600000D02*
X155000000Y-90000000D01*
X175041000Y-94341000D02*
X161709000Y-94341000D01*
X160650000Y-95400000D02*
X159800000Y-95400000D01*
X175430000Y-96737500D02*
X175430000Y-94730000D01*
X159400000Y-90000000D02*
X160699000Y-91299000D01*
X143722800Y-89600000D02*
X154600000Y-89600000D01*
X138655000Y-85300000D02*
X139422800Y-85300000D01*
X161709000Y-94341000D02*
X160650000Y-95400000D01*
%TO.N,LRCLK_AMP1_L*%
X163277500Y-93650000D02*
X161300000Y-93650000D01*
X143789900Y-89100000D02*
X155050000Y-89100000D01*
X157900000Y-89100000D02*
X167827500Y-89100000D01*
X175430000Y-81497500D02*
X167827500Y-89100000D01*
X163527500Y-93400000D02*
X163277500Y-93650000D01*
X167827500Y-89100000D02*
X163527500Y-93400000D01*
X139489900Y-84800000D02*
X143789900Y-89100000D01*
X159800000Y-96400000D02*
X160850000Y-96400000D01*
X138655000Y-84800000D02*
X139489900Y-84800000D01*
X160850000Y-96400000D02*
X161200000Y-96750000D01*
%TO.N,+5V*%
X144107000Y-87850000D02*
X148200000Y-87850000D01*
X139557000Y-83300000D02*
X144107000Y-87850000D01*
X149500000Y-86550000D02*
X150550000Y-86550000D01*
X148200000Y-87850000D02*
X149500000Y-86550000D01*
X150550000Y-86550000D02*
X162600000Y-86550000D01*
X138655000Y-83300000D02*
X139557000Y-83300000D01*
%TO.N,DIN_AMP1_L*%
X155849000Y-88499000D02*
X143756000Y-88499000D01*
X169399000Y-88499000D02*
X172890000Y-91990000D01*
X139557000Y-84300000D02*
X138655000Y-84300000D01*
X159115000Y-91765000D02*
X155849000Y-88499000D01*
X172890000Y-91990000D02*
X172890000Y-93740000D01*
X155849000Y-88499000D02*
X166799000Y-88499000D01*
X159115000Y-94715000D02*
X159115000Y-91765000D01*
X143756000Y-88499000D02*
X139557000Y-84300000D01*
%TO.N,Push_Button*%
X144112500Y-96562500D02*
X144175000Y-96500000D01*
X149500000Y-87550000D02*
X164297500Y-87550000D01*
X140800000Y-97000000D02*
X134300000Y-97000000D01*
X140800000Y-97000000D02*
X143675000Y-97000000D01*
X164297500Y-87550000D02*
X170350000Y-81497500D01*
X143675000Y-97000000D02*
X144112500Y-96562500D01*
%TO.N,SD_MODE_AMP1_R*%
X155327500Y-94350000D02*
X154377500Y-93400000D01*
X154377500Y-93400000D02*
X150952500Y-93400000D01*
X155327500Y-94350000D02*
X157250000Y-94350000D01*
X150952500Y-93400000D02*
X150015000Y-94337500D01*
X157250000Y-94350000D02*
X157615000Y-94715000D01*
%TD*%
%TA.AperFunction,Conductor*%
%TO.N,GND*%
G36*
X145602606Y-79620185D02*
G01*
X145648361Y-79672989D01*
X145658305Y-79742147D01*
X145629280Y-79805703D01*
X145586015Y-79834576D01*
X145587209Y-79837136D01*
X145580663Y-79840187D01*
X145431342Y-79932289D01*
X145307289Y-80056342D01*
X145215187Y-80205663D01*
X145215185Y-80205668D01*
X145207446Y-80229023D01*
X145160001Y-80372203D01*
X145160001Y-80372204D01*
X145160000Y-80372204D01*
X145149500Y-80474983D01*
X145149500Y-81125001D01*
X145149501Y-81125019D01*
X145160000Y-81227796D01*
X145160001Y-81227799D01*
X145215185Y-81394331D01*
X145215186Y-81394334D01*
X145307288Y-81543656D01*
X145431344Y-81667712D01*
X145580666Y-81759814D01*
X145747203Y-81814999D01*
X145849991Y-81825500D01*
X146650008Y-81825499D01*
X146650016Y-81825498D01*
X146650019Y-81825498D01*
X146706302Y-81819748D01*
X146752797Y-81814999D01*
X146886497Y-81770694D01*
X146914960Y-81769715D01*
X146943147Y-81765663D01*
X146949425Y-81768530D01*
X146956324Y-81768293D01*
X146980798Y-81782858D01*
X147006703Y-81794688D01*
X147010434Y-81800494D01*
X147016366Y-81804024D01*
X147029081Y-81829509D01*
X147044477Y-81853466D01*
X147045871Y-81863161D01*
X147047559Y-81866545D01*
X147049500Y-81888401D01*
X147049500Y-82011598D01*
X147029815Y-82078637D01*
X146977011Y-82124392D01*
X146907853Y-82134336D01*
X146886497Y-82129304D01*
X146752799Y-82085001D01*
X146752795Y-82085000D01*
X146650010Y-82074500D01*
X145849998Y-82074500D01*
X145849980Y-82074501D01*
X145747203Y-82085000D01*
X145747200Y-82085001D01*
X145580668Y-82140185D01*
X145580663Y-82140187D01*
X145431342Y-82232289D01*
X145307289Y-82356342D01*
X145215187Y-82505663D01*
X145215186Y-82505666D01*
X145160001Y-82672203D01*
X145160001Y-82672204D01*
X145160000Y-82672204D01*
X145149500Y-82774983D01*
X145149500Y-83425001D01*
X145149501Y-83425019D01*
X145160000Y-83527796D01*
X145160001Y-83527799D01*
X145215185Y-83694331D01*
X145215187Y-83694336D01*
X145307289Y-83843657D01*
X145431343Y-83967711D01*
X145431347Y-83967714D01*
X145437408Y-83971453D01*
X145484132Y-84023402D01*
X145495352Y-84092365D01*
X145477848Y-84142086D01*
X145389095Y-84285977D01*
X145389092Y-84285984D01*
X145334826Y-84449747D01*
X145334826Y-84449748D01*
X145334825Y-84449748D01*
X145324500Y-84550815D01*
X145324500Y-85249169D01*
X145324501Y-85249187D01*
X145334825Y-85350252D01*
X145371109Y-85459749D01*
X145389092Y-85514016D01*
X145479659Y-85660849D01*
X145479661Y-85660851D01*
X145493982Y-85675172D01*
X145527467Y-85736495D01*
X145522483Y-85806187D01*
X145493985Y-85850532D01*
X145480052Y-85864465D01*
X145389551Y-86011188D01*
X145389546Y-86011199D01*
X145335319Y-86174847D01*
X145325000Y-86275845D01*
X145325000Y-86375000D01*
X147274999Y-86375000D01*
X147274999Y-86275860D01*
X147274998Y-86275845D01*
X147264680Y-86174847D01*
X147210453Y-86011199D01*
X147210448Y-86011188D01*
X147119947Y-85864465D01*
X147119944Y-85864461D01*
X147106017Y-85850534D01*
X147072532Y-85789211D01*
X147077516Y-85719519D01*
X147106017Y-85675172D01*
X147120340Y-85660850D01*
X147210908Y-85514016D01*
X147265174Y-85350253D01*
X147275500Y-85249177D01*
X147275499Y-84550824D01*
X147265174Y-84449747D01*
X147210908Y-84285984D01*
X147120340Y-84139150D01*
X147096460Y-84115270D01*
X147094691Y-84112031D01*
X147091558Y-84110078D01*
X147078070Y-84081591D01*
X147062975Y-84053947D01*
X147063238Y-84050266D01*
X147061658Y-84046929D01*
X147065711Y-84015678D01*
X147067959Y-83984255D01*
X147070310Y-83980229D01*
X147070646Y-83977640D01*
X147078687Y-83965885D01*
X147089316Y-83947688D01*
X147092721Y-83943646D01*
X147192712Y-83843656D01*
X147235696Y-83773966D01*
X147241598Y-83766963D01*
X147263391Y-83752528D01*
X147282831Y-83735043D01*
X147292057Y-83733541D01*
X147299849Y-83728381D01*
X147325986Y-83728019D01*
X147351794Y-83723820D01*
X147366619Y-83727458D01*
X147369712Y-83727416D01*
X147371833Y-83728738D01*
X147379757Y-83730683D01*
X147442513Y-83754090D01*
X147442516Y-83754091D01*
X147449444Y-83754835D01*
X147502127Y-83760500D01*
X150597872Y-83760499D01*
X150657483Y-83754091D01*
X150792331Y-83703796D01*
X150907546Y-83617546D01*
X150993796Y-83502331D01*
X151044091Y-83367483D01*
X151050500Y-83307873D01*
X151050499Y-80212128D01*
X151044091Y-80152517D01*
X151003039Y-80042452D01*
X150993797Y-80017671D01*
X150993793Y-80017664D01*
X150907547Y-79902455D01*
X150802433Y-79823766D01*
X150760563Y-79767832D01*
X150755579Y-79698141D01*
X150789065Y-79636818D01*
X150850388Y-79603334D01*
X150876745Y-79600500D01*
X187575500Y-79600500D01*
X187642539Y-79620185D01*
X187688294Y-79672989D01*
X187699500Y-79724500D01*
X187699500Y-98575500D01*
X187679815Y-98642539D01*
X187627011Y-98688294D01*
X187575500Y-98699500D01*
X177156597Y-98699500D01*
X177089558Y-98679815D01*
X177043803Y-98627011D01*
X177033859Y-98557853D01*
X177062884Y-98494297D01*
X177068916Y-98487819D01*
X177409949Y-98146785D01*
X177525158Y-98031575D01*
X177586479Y-97998092D01*
X177651151Y-98001325D01*
X177665466Y-98005977D01*
X177867648Y-98038000D01*
X177867649Y-98038000D01*
X178072351Y-98038000D01*
X178072352Y-98038000D01*
X178274534Y-98005977D01*
X178469219Y-97942720D01*
X178651610Y-97849787D01*
X178773541Y-97761200D01*
X178817213Y-97729471D01*
X178817215Y-97729468D01*
X178817219Y-97729466D01*
X178961966Y-97584719D01*
X178961968Y-97584715D01*
X178961971Y-97584713D01*
X179082286Y-97419111D01*
X179082415Y-97418859D01*
X179129795Y-97325869D01*
X179177769Y-97275073D01*
X179245590Y-97258278D01*
X179311725Y-97280815D01*
X179350765Y-97325869D01*
X179398141Y-97418850D01*
X179398147Y-97418859D01*
X179430523Y-97463421D01*
X179430524Y-97463422D01*
X180027037Y-96866909D01*
X180044075Y-96930493D01*
X180109901Y-97044507D01*
X180202993Y-97137599D01*
X180317007Y-97203425D01*
X180380590Y-97220462D01*
X179784076Y-97816974D01*
X179828650Y-97849359D01*
X180010968Y-97942255D01*
X180205582Y-98005490D01*
X180407683Y-98037500D01*
X180612317Y-98037500D01*
X180814417Y-98005490D01*
X181009031Y-97942255D01*
X181191349Y-97849359D01*
X181235921Y-97816974D01*
X180639409Y-97220462D01*
X180702993Y-97203425D01*
X180817007Y-97137599D01*
X180910099Y-97044507D01*
X180975925Y-96930493D01*
X180992962Y-96866909D01*
X181589474Y-97463421D01*
X181621861Y-97418847D01*
X181621861Y-97418846D01*
X181669234Y-97325871D01*
X181717208Y-97275075D01*
X181785028Y-97258279D01*
X181851164Y-97280816D01*
X181890203Y-97325869D01*
X181937713Y-97419111D01*
X182058028Y-97584713D01*
X182202786Y-97729471D01*
X182349330Y-97835939D01*
X182368390Y-97849787D01*
X182484607Y-97909003D01*
X182550776Y-97942718D01*
X182550778Y-97942718D01*
X182550781Y-97942720D01*
X182655137Y-97976627D01*
X182745465Y-98005977D01*
X182846557Y-98021988D01*
X182947648Y-98038000D01*
X182947649Y-98038000D01*
X183152351Y-98038000D01*
X183152352Y-98038000D01*
X183354534Y-98005977D01*
X183549219Y-97942720D01*
X183731610Y-97849787D01*
X183853541Y-97761200D01*
X183897213Y-97729471D01*
X183897215Y-97729468D01*
X183897219Y-97729466D01*
X184041966Y-97584719D01*
X184041968Y-97584715D01*
X184041971Y-97584713D01*
X184121319Y-97475498D01*
X184162287Y-97419110D01*
X184255220Y-97236719D01*
X184318477Y-97042034D01*
X184350500Y-96839852D01*
X184350500Y-96635148D01*
X184343732Y-96592416D01*
X184318477Y-96432965D01*
X184266038Y-96271575D01*
X184255220Y-96238281D01*
X184255218Y-96238278D01*
X184255218Y-96238276D01*
X184216203Y-96161706D01*
X184162287Y-96055890D01*
X184138019Y-96022488D01*
X184041971Y-95890286D01*
X183897213Y-95745528D01*
X183731613Y-95625215D01*
X183731612Y-95625214D01*
X183731610Y-95625213D01*
X183674653Y-95596191D01*
X183549223Y-95532281D01*
X183354534Y-95469022D01*
X183179621Y-95441319D01*
X183152352Y-95437000D01*
X182947648Y-95437000D01*
X182923329Y-95440851D01*
X182745465Y-95469022D01*
X182550776Y-95532281D01*
X182368386Y-95625215D01*
X182202786Y-95745528D01*
X182058028Y-95890286D01*
X181937713Y-96055888D01*
X181890203Y-96149130D01*
X181842228Y-96199926D01*
X181774407Y-96216720D01*
X181708272Y-96194182D01*
X181669234Y-96149128D01*
X181621861Y-96056152D01*
X181589474Y-96011577D01*
X181589474Y-96011576D01*
X180992962Y-96608089D01*
X180975925Y-96544507D01*
X180910099Y-96430493D01*
X180817007Y-96337401D01*
X180702993Y-96271575D01*
X180639408Y-96254537D01*
X181235922Y-95658024D01*
X181235921Y-95658023D01*
X181191359Y-95625647D01*
X181191350Y-95625641D01*
X181009031Y-95532744D01*
X180814417Y-95469509D01*
X180612317Y-95437500D01*
X180407683Y-95437500D01*
X180205582Y-95469509D01*
X180010968Y-95532744D01*
X179828644Y-95625643D01*
X179784077Y-95658023D01*
X179784077Y-95658024D01*
X180380591Y-96254537D01*
X180317007Y-96271575D01*
X180202993Y-96337401D01*
X180109901Y-96430493D01*
X180044075Y-96544507D01*
X180027037Y-96608090D01*
X179430524Y-96011577D01*
X179430523Y-96011577D01*
X179398143Y-96056144D01*
X179350765Y-96149130D01*
X179302790Y-96199926D01*
X179234969Y-96216721D01*
X179168834Y-96194183D01*
X179129795Y-96149130D01*
X179082284Y-96055885D01*
X178961971Y-95890286D01*
X178817213Y-95745528D01*
X178651613Y-95625215D01*
X178651612Y-95625214D01*
X178651610Y-95625213D01*
X178594653Y-95596191D01*
X178469223Y-95532281D01*
X178274534Y-95469022D01*
X178099621Y-95441319D01*
X178072352Y-95437000D01*
X177867648Y-95437000D01*
X177843329Y-95440851D01*
X177665465Y-95469022D01*
X177470776Y-95532281D01*
X177288386Y-95625215D01*
X177122786Y-95745528D01*
X176978028Y-95890286D01*
X176857715Y-96055886D01*
X176810485Y-96148580D01*
X176762510Y-96199376D01*
X176694689Y-96216171D01*
X176628554Y-96193634D01*
X176589515Y-96148580D01*
X176542420Y-96056152D01*
X176542287Y-96055890D01*
X176518019Y-96022488D01*
X176421971Y-95890286D01*
X176277213Y-95745528D01*
X176111610Y-95625212D01*
X176098200Y-95618379D01*
X176047406Y-95570403D01*
X176030500Y-95507897D01*
X176030500Y-94650945D01*
X176030500Y-94650943D01*
X176009558Y-94572785D01*
X175989577Y-94498215D01*
X175944452Y-94420057D01*
X175910520Y-94361284D01*
X175798716Y-94249480D01*
X175798715Y-94249479D01*
X175794385Y-94245149D01*
X175794374Y-94245139D01*
X175528590Y-93979355D01*
X175528588Y-93979352D01*
X175409717Y-93860481D01*
X175409716Y-93860480D01*
X175313292Y-93804810D01*
X175272785Y-93781423D01*
X175120057Y-93740499D01*
X174961943Y-93740499D01*
X174954347Y-93740499D01*
X174954331Y-93740500D01*
X173808046Y-93740500D01*
X173741007Y-93720815D01*
X173695252Y-93668011D01*
X173686429Y-93640691D01*
X173674624Y-93581344D01*
X173659737Y-93506503D01*
X173659735Y-93506498D01*
X173599397Y-93360827D01*
X173599390Y-93360814D01*
X173511398Y-93229125D01*
X173490520Y-93162447D01*
X173490500Y-93160234D01*
X173490500Y-92079060D01*
X173490501Y-92079047D01*
X173490501Y-91910944D01*
X173487350Y-91899184D01*
X173449577Y-91758216D01*
X173404697Y-91680480D01*
X173370524Y-91621290D01*
X173370518Y-91621282D01*
X170233573Y-88484337D01*
X170200088Y-88423014D01*
X170199637Y-88420847D01*
X170183618Y-88340314D01*
X170168737Y-88265503D01*
X170168735Y-88265498D01*
X170108397Y-88119827D01*
X170108390Y-88119814D01*
X170020789Y-87988711D01*
X170020786Y-87988707D01*
X169992087Y-87960008D01*
X169958602Y-87898685D01*
X169963586Y-87828993D01*
X169992085Y-87784648D01*
X174985159Y-82791575D01*
X175046480Y-82758092D01*
X175111154Y-82761326D01*
X175125466Y-82765977D01*
X175327648Y-82798000D01*
X175327649Y-82798000D01*
X175532351Y-82798000D01*
X175532352Y-82798000D01*
X175734534Y-82765977D01*
X175929219Y-82702720D01*
X176111610Y-82609787D01*
X176254919Y-82505668D01*
X176277213Y-82489471D01*
X176277215Y-82489468D01*
X176277219Y-82489466D01*
X176421966Y-82344719D01*
X176421968Y-82344715D01*
X176421971Y-82344713D01*
X176542284Y-82179114D01*
X176542285Y-82179113D01*
X176542287Y-82179110D01*
X176589516Y-82086417D01*
X176637489Y-82035623D01*
X176705310Y-82018828D01*
X176771445Y-82041365D01*
X176810483Y-82086417D01*
X176837880Y-82140185D01*
X176857715Y-82179114D01*
X176978028Y-82344713D01*
X177122786Y-82489471D01*
X177277749Y-82602056D01*
X177288390Y-82609787D01*
X177382124Y-82657547D01*
X177470776Y-82702718D01*
X177470778Y-82702718D01*
X177470781Y-82702720D01*
X177575137Y-82736627D01*
X177665465Y-82765977D01*
X177722377Y-82774991D01*
X177867648Y-82798000D01*
X177867649Y-82798000D01*
X178072351Y-82798000D01*
X178072352Y-82798000D01*
X178274534Y-82765977D01*
X178469219Y-82702720D01*
X178651610Y-82609787D01*
X178794919Y-82505668D01*
X178817213Y-82489471D01*
X178817215Y-82489468D01*
X178817219Y-82489466D01*
X178961966Y-82344719D01*
X178961968Y-82344715D01*
X178961971Y-82344713D01*
X179082284Y-82179114D01*
X179082285Y-82179113D01*
X179082287Y-82179110D01*
X179129516Y-82086417D01*
X179177489Y-82035623D01*
X179245310Y-82018828D01*
X179311445Y-82041365D01*
X179350483Y-82086417D01*
X179377880Y-82140185D01*
X179397715Y-82179114D01*
X179518028Y-82344713D01*
X179662786Y-82489471D01*
X179817749Y-82602056D01*
X179828390Y-82609787D01*
X179922124Y-82657547D01*
X180010776Y-82702718D01*
X180010778Y-82702718D01*
X180010781Y-82702720D01*
X180115137Y-82736627D01*
X180205465Y-82765977D01*
X180262377Y-82774991D01*
X180407648Y-82798000D01*
X180407649Y-82798000D01*
X180612351Y-82798000D01*
X180612352Y-82798000D01*
X180814534Y-82765977D01*
X181009219Y-82702720D01*
X181191610Y-82609787D01*
X181334919Y-82505668D01*
X181357213Y-82489471D01*
X181357215Y-82489468D01*
X181357219Y-82489466D01*
X181501966Y-82344719D01*
X181528330Y-82308430D01*
X181583658Y-82265765D01*
X181653271Y-82259784D01*
X181715067Y-82292389D01*
X181749426Y-82353226D01*
X181751938Y-82368059D01*
X181755907Y-82404980D01*
X181806202Y-82539828D01*
X181806206Y-82539835D01*
X181892452Y-82655044D01*
X181892455Y-82655047D01*
X182007664Y-82741293D01*
X182007671Y-82741297D01*
X182142517Y-82791591D01*
X182142516Y-82791591D01*
X182149444Y-82792335D01*
X182202127Y-82798000D01*
X183897872Y-82797999D01*
X183957483Y-82791591D01*
X184092331Y-82741296D01*
X184207546Y-82655046D01*
X184293796Y-82539831D01*
X184344091Y-82404983D01*
X184350500Y-82345373D01*
X184350499Y-80649628D01*
X184344091Y-80590017D01*
X184293796Y-80455169D01*
X184293795Y-80455168D01*
X184293793Y-80455164D01*
X184207547Y-80339955D01*
X184207544Y-80339952D01*
X184092335Y-80253706D01*
X184092328Y-80253702D01*
X183957482Y-80203408D01*
X183957483Y-80203408D01*
X183897883Y-80197001D01*
X183897881Y-80197000D01*
X183897873Y-80197000D01*
X183897864Y-80197000D01*
X182202129Y-80197000D01*
X182202123Y-80197001D01*
X182142516Y-80203408D01*
X182007671Y-80253702D01*
X182007664Y-80253706D01*
X181892455Y-80339952D01*
X181892452Y-80339955D01*
X181806206Y-80455164D01*
X181806202Y-80455171D01*
X181755908Y-80590016D01*
X181751939Y-80626940D01*
X181725201Y-80691491D01*
X181667809Y-80731339D01*
X181597983Y-80733832D01*
X181537895Y-80698179D01*
X181528332Y-80686570D01*
X181501967Y-80650282D01*
X181357213Y-80505528D01*
X181191613Y-80385215D01*
X181191612Y-80385214D01*
X181191610Y-80385213D01*
X181126654Y-80352116D01*
X181009223Y-80292281D01*
X180814534Y-80229022D01*
X180639995Y-80201378D01*
X180612352Y-80197000D01*
X180407648Y-80197000D01*
X180383329Y-80200851D01*
X180205465Y-80229022D01*
X180010776Y-80292281D01*
X179828386Y-80385215D01*
X179662786Y-80505528D01*
X179518028Y-80650286D01*
X179397715Y-80815886D01*
X179350485Y-80908580D01*
X179302510Y-80959376D01*
X179234689Y-80976171D01*
X179168554Y-80953634D01*
X179129515Y-80908580D01*
X179128883Y-80907340D01*
X179082287Y-80815890D01*
X179020858Y-80731339D01*
X178961971Y-80650286D01*
X178817213Y-80505528D01*
X178651613Y-80385215D01*
X178651612Y-80385214D01*
X178651610Y-80385213D01*
X178586654Y-80352116D01*
X178469223Y-80292281D01*
X178274534Y-80229022D01*
X178099995Y-80201378D01*
X178072352Y-80197000D01*
X177867648Y-80197000D01*
X177843329Y-80200851D01*
X177665465Y-80229022D01*
X177470776Y-80292281D01*
X177288386Y-80385215D01*
X177122786Y-80505528D01*
X176978028Y-80650286D01*
X176857715Y-80815886D01*
X176810485Y-80908580D01*
X176762510Y-80959376D01*
X176694689Y-80976171D01*
X176628554Y-80953634D01*
X176589515Y-80908580D01*
X176588883Y-80907340D01*
X176542287Y-80815890D01*
X176480858Y-80731339D01*
X176421971Y-80650286D01*
X176277213Y-80505528D01*
X176111613Y-80385215D01*
X176111612Y-80385214D01*
X176111610Y-80385213D01*
X176046654Y-80352116D01*
X175929223Y-80292281D01*
X175734534Y-80229022D01*
X175559995Y-80201378D01*
X175532352Y-80197000D01*
X175327648Y-80197000D01*
X175303329Y-80200851D01*
X175125465Y-80229022D01*
X174930776Y-80292281D01*
X174748386Y-80385215D01*
X174582786Y-80505528D01*
X174438028Y-80650286D01*
X174317715Y-80815886D01*
X174270485Y-80908580D01*
X174222510Y-80959376D01*
X174154689Y-80976171D01*
X174088554Y-80953634D01*
X174049515Y-80908580D01*
X174048883Y-80907340D01*
X174002287Y-80815890D01*
X173940858Y-80731339D01*
X173881971Y-80650286D01*
X173737213Y-80505528D01*
X173571613Y-80385215D01*
X173571612Y-80385214D01*
X173571610Y-80385213D01*
X173506654Y-80352116D01*
X173389223Y-80292281D01*
X173194534Y-80229022D01*
X173019995Y-80201378D01*
X172992352Y-80197000D01*
X172787648Y-80197000D01*
X172763329Y-80200851D01*
X172585465Y-80229022D01*
X172390776Y-80292281D01*
X172208386Y-80385215D01*
X172042786Y-80505528D01*
X171898028Y-80650286D01*
X171777715Y-80815886D01*
X171730485Y-80908580D01*
X171682510Y-80959376D01*
X171614689Y-80976171D01*
X171548554Y-80953634D01*
X171509515Y-80908580D01*
X171508883Y-80907340D01*
X171462287Y-80815890D01*
X171400858Y-80731339D01*
X171341971Y-80650286D01*
X171197213Y-80505528D01*
X171031613Y-80385215D01*
X171031612Y-80385214D01*
X171031610Y-80385213D01*
X170966654Y-80352116D01*
X170849223Y-80292281D01*
X170654534Y-80229022D01*
X170479995Y-80201378D01*
X170452352Y-80197000D01*
X170247648Y-80197000D01*
X170223329Y-80200851D01*
X170045465Y-80229022D01*
X169850776Y-80292281D01*
X169668386Y-80385215D01*
X169502786Y-80505528D01*
X169358028Y-80650286D01*
X169237715Y-80815886D01*
X169190485Y-80908580D01*
X169142510Y-80959376D01*
X169074689Y-80976171D01*
X169008554Y-80953634D01*
X168969515Y-80908580D01*
X168968883Y-80907340D01*
X168922287Y-80815890D01*
X168860858Y-80731339D01*
X168801971Y-80650286D01*
X168657213Y-80505528D01*
X168491613Y-80385215D01*
X168491612Y-80385214D01*
X168491610Y-80385213D01*
X168426654Y-80352116D01*
X168309223Y-80292281D01*
X168114534Y-80229022D01*
X167939995Y-80201378D01*
X167912352Y-80197000D01*
X167707648Y-80197000D01*
X167683329Y-80200851D01*
X167505465Y-80229022D01*
X167310776Y-80292281D01*
X167128386Y-80385215D01*
X166962786Y-80505528D01*
X166818028Y-80650286D01*
X166697715Y-80815886D01*
X166604781Y-80998276D01*
X166541522Y-81192965D01*
X166509500Y-81395148D01*
X166509500Y-81599851D01*
X166541522Y-81802034D01*
X166604781Y-81996723D01*
X166668691Y-82122153D01*
X166674899Y-82134336D01*
X166697715Y-82179113D01*
X166818028Y-82344713D01*
X166962786Y-82489471D01*
X167117749Y-82602056D01*
X167128390Y-82609787D01*
X167222124Y-82657547D01*
X167310776Y-82702718D01*
X167310778Y-82702718D01*
X167310781Y-82702720D01*
X167415137Y-82736627D01*
X167505465Y-82765977D01*
X167562377Y-82774991D01*
X167707648Y-82798000D01*
X167707649Y-82798000D01*
X167900901Y-82798000D01*
X167967940Y-82817685D01*
X168013695Y-82870489D01*
X168023639Y-82939647D01*
X167994614Y-83003203D01*
X167988582Y-83009681D01*
X164085084Y-86913181D01*
X164023761Y-86946666D01*
X163997403Y-86949500D01*
X163486555Y-86949500D01*
X163419516Y-86929815D01*
X163373761Y-86877011D01*
X163363817Y-86807853D01*
X163368840Y-86789588D01*
X163367969Y-86789324D01*
X163369731Y-86783509D01*
X163369737Y-86783497D01*
X163400500Y-86628842D01*
X163400500Y-86471158D01*
X163400500Y-86471155D01*
X163400499Y-86471153D01*
X163384407Y-86390253D01*
X163369737Y-86316503D01*
X163365349Y-86305909D01*
X163309397Y-86170827D01*
X163309390Y-86170814D01*
X163221789Y-86039711D01*
X163221786Y-86039707D01*
X163110292Y-85928213D01*
X163110288Y-85928210D01*
X162979185Y-85840609D01*
X162979172Y-85840602D01*
X162833501Y-85780264D01*
X162833489Y-85780261D01*
X162678845Y-85749500D01*
X162678842Y-85749500D01*
X162521158Y-85749500D01*
X162521155Y-85749500D01*
X162366510Y-85780261D01*
X162366498Y-85780264D01*
X162220827Y-85840602D01*
X162220814Y-85840609D01*
X162089125Y-85928602D01*
X162022447Y-85949480D01*
X162020234Y-85949500D01*
X149586670Y-85949500D01*
X149586654Y-85949499D01*
X149579058Y-85949499D01*
X149420943Y-85949499D01*
X149375391Y-85961705D01*
X149268214Y-85990423D01*
X149268209Y-85990426D01*
X149131290Y-86069475D01*
X149131282Y-86069481D01*
X147987584Y-87213181D01*
X147926261Y-87246666D01*
X147899903Y-87249500D01*
X147378628Y-87249500D01*
X147311589Y-87229815D01*
X147265834Y-87177011D01*
X147255890Y-87107853D01*
X147260922Y-87086496D01*
X147264680Y-87075152D01*
X147274999Y-86974154D01*
X147275000Y-86974141D01*
X147275000Y-86875000D01*
X145325001Y-86875000D01*
X145325001Y-86974154D01*
X145335319Y-87075152D01*
X145339078Y-87086496D01*
X145341480Y-87156325D01*
X145305748Y-87216367D01*
X145243227Y-87247559D01*
X145221372Y-87249500D01*
X144407098Y-87249500D01*
X144340059Y-87229815D01*
X144319417Y-87213181D01*
X140044590Y-82938355D01*
X140044588Y-82938352D01*
X139925717Y-82819481D01*
X139925716Y-82819480D01*
X139833045Y-82765977D01*
X139833044Y-82765976D01*
X139788783Y-82740422D01*
X139732881Y-82725443D01*
X139636057Y-82699499D01*
X139636054Y-82699499D01*
X139551726Y-82699499D01*
X139508393Y-82691681D01*
X139412482Y-82655908D01*
X139412483Y-82655908D01*
X139352883Y-82649501D01*
X139352881Y-82649500D01*
X139352873Y-82649500D01*
X139352864Y-82649500D01*
X137957129Y-82649500D01*
X137957123Y-82649501D01*
X137897516Y-82655908D01*
X137762671Y-82706202D01*
X137762664Y-82706206D01*
X137647455Y-82792452D01*
X137647452Y-82792455D01*
X137561206Y-82907664D01*
X137561202Y-82907671D01*
X137510908Y-83042517D01*
X137504501Y-83102116D01*
X137504500Y-83102135D01*
X137504500Y-83178481D01*
X137484815Y-83245520D01*
X137442501Y-83285867D01*
X137384290Y-83319476D01*
X137384281Y-83319482D01*
X136924217Y-83779546D01*
X136924214Y-83779548D01*
X136924215Y-83779549D01*
X136819477Y-83884287D01*
X136795055Y-83926590D01*
X136795054Y-83926592D01*
X136740423Y-84021215D01*
X136699499Y-84173943D01*
X136699499Y-84173945D01*
X136699499Y-84342046D01*
X136699500Y-84342059D01*
X136699500Y-86177218D01*
X136679815Y-86244257D01*
X136627011Y-86290012D01*
X136562250Y-86300508D01*
X136558975Y-86300156D01*
X136552873Y-86299500D01*
X136552870Y-86299500D01*
X134257129Y-86299500D01*
X134257123Y-86299501D01*
X134197516Y-86305908D01*
X134062671Y-86356202D01*
X134062664Y-86356206D01*
X133947455Y-86442452D01*
X133947452Y-86442455D01*
X133861206Y-86557664D01*
X133861202Y-86557671D01*
X133810908Y-86692517D01*
X133804501Y-86752116D01*
X133804500Y-86752135D01*
X133804500Y-88747870D01*
X133804501Y-88747876D01*
X133810908Y-88807483D01*
X133861202Y-88942328D01*
X133861206Y-88942335D01*
X133947452Y-89057544D01*
X133947455Y-89057547D01*
X134062664Y-89143793D01*
X134062671Y-89143797D01*
X134197517Y-89194091D01*
X134197516Y-89194091D01*
X134202456Y-89194622D01*
X134257127Y-89200500D01*
X136552872Y-89200499D01*
X136612483Y-89194091D01*
X136612488Y-89194089D01*
X136616129Y-89193229D01*
X136619048Y-89193385D01*
X136620196Y-89193262D01*
X136620215Y-89193447D01*
X136642161Y-89194622D01*
X136668117Y-89192144D01*
X136676491Y-89196461D01*
X136685898Y-89196965D01*
X136707047Y-89212213D01*
X136730220Y-89224160D01*
X136738869Y-89235157D01*
X136742573Y-89237828D01*
X136752037Y-89251900D01*
X136761758Y-89268738D01*
X136769358Y-89281900D01*
X136769359Y-89281904D01*
X136769360Y-89281904D01*
X136819479Y-89368714D01*
X136819481Y-89368717D01*
X136938349Y-89487585D01*
X136938355Y-89487590D01*
X139138584Y-91687819D01*
X139172069Y-91749142D01*
X139167085Y-91818834D01*
X139125213Y-91874767D01*
X139059749Y-91899184D01*
X139050903Y-91899500D01*
X135754068Y-91899500D01*
X135687029Y-91879815D01*
X135643583Y-91831795D01*
X135636979Y-91818834D01*
X135583343Y-91713567D01*
X135444517Y-91522490D01*
X135277510Y-91355483D01*
X135086433Y-91216657D01*
X135064377Y-91205419D01*
X134875996Y-91109433D01*
X134651368Y-91036446D01*
X134418097Y-90999500D01*
X134418092Y-90999500D01*
X134181908Y-90999500D01*
X134181903Y-90999500D01*
X133948631Y-91036446D01*
X133724003Y-91109433D01*
X133513566Y-91216657D01*
X133426192Y-91280139D01*
X133322490Y-91355483D01*
X133322488Y-91355485D01*
X133322487Y-91355485D01*
X133155485Y-91522487D01*
X133155485Y-91522488D01*
X133155483Y-91522490D01*
X133118975Y-91572739D01*
X133016657Y-91713566D01*
X132909433Y-91924003D01*
X132836446Y-92148631D01*
X132799500Y-92381902D01*
X132799500Y-92618097D01*
X132836446Y-92851368D01*
X132909433Y-93075996D01*
X132989699Y-93233525D01*
X133016657Y-93286433D01*
X133155483Y-93477510D01*
X133322490Y-93644517D01*
X133513567Y-93783343D01*
X133612991Y-93834002D01*
X133724003Y-93890566D01*
X133724005Y-93890566D01*
X133724008Y-93890568D01*
X133816292Y-93920553D01*
X133948631Y-93963553D01*
X134181903Y-94000500D01*
X134181908Y-94000500D01*
X134418097Y-94000500D01*
X134651368Y-93963553D01*
X134684468Y-93952798D01*
X134875992Y-93890568D01*
X135086433Y-93783343D01*
X135277510Y-93644517D01*
X135444517Y-93477510D01*
X135583343Y-93286433D01*
X135643583Y-93168204D01*
X135691558Y-93117409D01*
X135754068Y-93100500D01*
X139345932Y-93100500D01*
X139412971Y-93120185D01*
X139456416Y-93168203D01*
X139516657Y-93286433D01*
X139655483Y-93477510D01*
X139822490Y-93644517D01*
X140013567Y-93783343D01*
X140112991Y-93834002D01*
X140224003Y-93890566D01*
X140224005Y-93890566D01*
X140224008Y-93890568D01*
X140316292Y-93920553D01*
X140448631Y-93963553D01*
X140681903Y-94000500D01*
X140681908Y-94000500D01*
X140918097Y-94000500D01*
X141024126Y-93983705D01*
X141151368Y-93963553D01*
X141277566Y-93922547D01*
X141347404Y-93920553D01*
X141403563Y-93952798D01*
X143238593Y-95787828D01*
X143272078Y-95849151D01*
X143267094Y-95918843D01*
X143256455Y-95940599D01*
X143251592Y-95948484D01*
X143197326Y-96112247D01*
X143197326Y-96112248D01*
X143197325Y-96112248D01*
X143187000Y-96213315D01*
X143187000Y-96275500D01*
X143167315Y-96342539D01*
X143114511Y-96388294D01*
X143063000Y-96399500D01*
X142254068Y-96399500D01*
X142187029Y-96379815D01*
X142143583Y-96331795D01*
X142083343Y-96213567D01*
X141944517Y-96022490D01*
X141777510Y-95855483D01*
X141586433Y-95716657D01*
X141552170Y-95699199D01*
X141375996Y-95609433D01*
X141151368Y-95536446D01*
X140918097Y-95499500D01*
X140918092Y-95499500D01*
X140681908Y-95499500D01*
X140681903Y-95499500D01*
X140448631Y-95536446D01*
X140224003Y-95609433D01*
X140013566Y-95716657D01*
X139907611Y-95793639D01*
X139822490Y-95855483D01*
X139822488Y-95855485D01*
X139822487Y-95855485D01*
X139655485Y-96022487D01*
X139655485Y-96022488D01*
X139655483Y-96022490D01*
X139631032Y-96056144D01*
X139516657Y-96213566D01*
X139456417Y-96331795D01*
X139408442Y-96382591D01*
X139345932Y-96399500D01*
X135754068Y-96399500D01*
X135687029Y-96379815D01*
X135643583Y-96331795D01*
X135583343Y-96213567D01*
X135444517Y-96022490D01*
X135277510Y-95855483D01*
X135086433Y-95716657D01*
X135052170Y-95699199D01*
X134875996Y-95609433D01*
X134651368Y-95536446D01*
X134418097Y-95499500D01*
X134418092Y-95499500D01*
X134181908Y-95499500D01*
X134181903Y-95499500D01*
X133948631Y-95536446D01*
X133724003Y-95609433D01*
X133513566Y-95716657D01*
X133407611Y-95793639D01*
X133322490Y-95855483D01*
X133322488Y-95855485D01*
X133322487Y-95855485D01*
X133155485Y-96022487D01*
X133155485Y-96022488D01*
X133155483Y-96022490D01*
X133131032Y-96056144D01*
X133016657Y-96213566D01*
X132909433Y-96424003D01*
X132836446Y-96648631D01*
X132799500Y-96881902D01*
X132799500Y-97118097D01*
X132836446Y-97351368D01*
X132909433Y-97575996D01*
X133013285Y-97779815D01*
X133016657Y-97786433D01*
X133155483Y-97977510D01*
X133322490Y-98144517D01*
X133513567Y-98283343D01*
X133612991Y-98334002D01*
X133724003Y-98390566D01*
X133724005Y-98390566D01*
X133724008Y-98390568D01*
X133880185Y-98441313D01*
X133930215Y-98457569D01*
X133987890Y-98497007D01*
X134015088Y-98561366D01*
X134003173Y-98630212D01*
X133955929Y-98681688D01*
X133891896Y-98699500D01*
X132574500Y-98699500D01*
X132507461Y-98679815D01*
X132461706Y-98627011D01*
X132450500Y-98575500D01*
X132450500Y-80352135D01*
X133804500Y-80352135D01*
X133804500Y-82347870D01*
X133804501Y-82347876D01*
X133810908Y-82407483D01*
X133861202Y-82542328D01*
X133861206Y-82542335D01*
X133947452Y-82657544D01*
X133947455Y-82657547D01*
X134062664Y-82743793D01*
X134062671Y-82743797D01*
X134197517Y-82794091D01*
X134197516Y-82794091D01*
X134204444Y-82794835D01*
X134257127Y-82800500D01*
X136552872Y-82800499D01*
X136612483Y-82794091D01*
X136747331Y-82743796D01*
X136862546Y-82657546D01*
X136948796Y-82542331D01*
X136999091Y-82407483D01*
X137005500Y-82347873D01*
X137005499Y-80352128D01*
X136999091Y-80292517D01*
X136984615Y-80253706D01*
X136948797Y-80157671D01*
X136948793Y-80157664D01*
X136862547Y-80042455D01*
X136862544Y-80042452D01*
X136747335Y-79956206D01*
X136747328Y-79956202D01*
X136612482Y-79905908D01*
X136612483Y-79905908D01*
X136552883Y-79899501D01*
X136552881Y-79899500D01*
X136552873Y-79899500D01*
X136552864Y-79899500D01*
X134257129Y-79899500D01*
X134257123Y-79899501D01*
X134197516Y-79905908D01*
X134062671Y-79956202D01*
X134062664Y-79956206D01*
X133947455Y-80042452D01*
X133947452Y-80042455D01*
X133861206Y-80157664D01*
X133861202Y-80157671D01*
X133810908Y-80292517D01*
X133804501Y-80352116D01*
X133804501Y-80352123D01*
X133804500Y-80352135D01*
X132450500Y-80352135D01*
X132450500Y-79724500D01*
X132470185Y-79657461D01*
X132522989Y-79611706D01*
X132574500Y-79600500D01*
X145535567Y-79600500D01*
X145602606Y-79620185D01*
G37*
%TD.AperFunction*%
%TA.AperFunction,Conductor*%
G36*
X148924185Y-96153050D02*
G01*
X148933146Y-96151762D01*
X148957184Y-96162740D01*
X148982539Y-96170185D01*
X148988466Y-96177026D01*
X148996702Y-96180787D01*
X149010989Y-96203019D01*
X149028294Y-96222989D01*
X149030581Y-96233503D01*
X149034477Y-96239565D01*
X149039500Y-96274499D01*
X149039500Y-96461668D01*
X149039501Y-96461687D01*
X149049825Y-96562752D01*
X149059655Y-96592416D01*
X149103024Y-96723294D01*
X149104092Y-96726515D01*
X149104093Y-96726518D01*
X149118577Y-96750000D01*
X149194660Y-96873350D01*
X149316650Y-96995340D01*
X149355597Y-97019362D01*
X149402320Y-97071307D01*
X149414500Y-97124900D01*
X149414500Y-97828330D01*
X149414499Y-97828348D01*
X149414499Y-97994054D01*
X149414498Y-97994054D01*
X149455423Y-98146785D01*
X149484358Y-98196900D01*
X149484359Y-98196904D01*
X149484360Y-98196904D01*
X149534479Y-98283714D01*
X149534481Y-98283717D01*
X149738583Y-98487819D01*
X149772068Y-98549142D01*
X149767084Y-98618834D01*
X149725212Y-98674767D01*
X149659748Y-98699184D01*
X149650902Y-98699500D01*
X141208104Y-98699500D01*
X141141065Y-98679815D01*
X141095310Y-98627011D01*
X141085366Y-98557853D01*
X141114391Y-98494297D01*
X141169785Y-98457569D01*
X141219815Y-98441313D01*
X141375992Y-98390568D01*
X141586433Y-98283343D01*
X141777510Y-98144517D01*
X141944517Y-97977510D01*
X142083343Y-97786433D01*
X142143583Y-97668204D01*
X142191558Y-97617409D01*
X142254068Y-97600500D01*
X143588331Y-97600500D01*
X143588347Y-97600501D01*
X143595943Y-97600501D01*
X143754054Y-97600501D01*
X143754057Y-97600501D01*
X143906785Y-97559577D01*
X143956904Y-97530639D01*
X144023641Y-97492109D01*
X144085638Y-97475499D01*
X144474170Y-97475499D01*
X144474176Y-97475499D01*
X144575253Y-97465174D01*
X144739016Y-97410908D01*
X144885850Y-97320340D01*
X145000175Y-97206014D01*
X145061494Y-97172532D01*
X145131186Y-97177516D01*
X145175534Y-97206017D01*
X145289461Y-97319944D01*
X145289465Y-97319947D01*
X145436188Y-97410448D01*
X145436199Y-97410453D01*
X145599847Y-97464680D01*
X145700851Y-97474999D01*
X146250000Y-97474999D01*
X146299140Y-97474999D01*
X146299154Y-97474998D01*
X146400152Y-97464680D01*
X146563800Y-97410453D01*
X146563811Y-97410448D01*
X146710534Y-97319947D01*
X146710538Y-97319944D01*
X146832444Y-97198038D01*
X146832447Y-97198034D01*
X146922948Y-97051311D01*
X146922953Y-97051300D01*
X146977180Y-96887652D01*
X146987499Y-96786654D01*
X146987500Y-96786641D01*
X146987500Y-96750000D01*
X146250000Y-96750000D01*
X146250000Y-97474999D01*
X145700851Y-97474999D01*
X145749999Y-97474998D01*
X145750000Y-97474998D01*
X145750000Y-96624000D01*
X145769685Y-96556961D01*
X145822489Y-96511206D01*
X145874000Y-96500000D01*
X146000000Y-96500000D01*
X146000000Y-96374000D01*
X146019685Y-96306961D01*
X146072489Y-96261206D01*
X146124000Y-96250000D01*
X146987499Y-96250000D01*
X146997683Y-96239815D01*
X147007184Y-96207461D01*
X147059988Y-96161706D01*
X147111499Y-96150500D01*
X148915500Y-96150500D01*
X148924185Y-96153050D01*
G37*
%TD.AperFunction*%
%TA.AperFunction,Conductor*%
G36*
X174772539Y-94961185D02*
G01*
X174818294Y-95013989D01*
X174829500Y-95065500D01*
X174829500Y-95507897D01*
X174809815Y-95574936D01*
X174761800Y-95618379D01*
X174748389Y-95625212D01*
X174582786Y-95745528D01*
X174438028Y-95890286D01*
X174317715Y-96055886D01*
X174270485Y-96148580D01*
X174222510Y-96199376D01*
X174154689Y-96216171D01*
X174088554Y-96193634D01*
X174049515Y-96148580D01*
X174002420Y-96056152D01*
X174002287Y-96055890D01*
X173978019Y-96022488D01*
X173881971Y-95890286D01*
X173737213Y-95745528D01*
X173571613Y-95625215D01*
X173571612Y-95625214D01*
X173571610Y-95625213D01*
X173514653Y-95596191D01*
X173389223Y-95532281D01*
X173194534Y-95469022D01*
X173019621Y-95441319D01*
X172992352Y-95437000D01*
X172787648Y-95437000D01*
X172763329Y-95440851D01*
X172585465Y-95469022D01*
X172390776Y-95532281D01*
X172208386Y-95625215D01*
X172042786Y-95745528D01*
X171898028Y-95890286D01*
X171777715Y-96055886D01*
X171730485Y-96148580D01*
X171682510Y-96199376D01*
X171614689Y-96216171D01*
X171548554Y-96193634D01*
X171509515Y-96148580D01*
X171462420Y-96056152D01*
X171462287Y-96055890D01*
X171438019Y-96022488D01*
X171341971Y-95890286D01*
X171197213Y-95745528D01*
X171031613Y-95625215D01*
X171031612Y-95625214D01*
X171031610Y-95625213D01*
X170974653Y-95596191D01*
X170849223Y-95532281D01*
X170654534Y-95469022D01*
X170479621Y-95441319D01*
X170452352Y-95437000D01*
X170247648Y-95437000D01*
X170223329Y-95440851D01*
X170045465Y-95469022D01*
X169850776Y-95532281D01*
X169668386Y-95625215D01*
X169502786Y-95745528D01*
X169358028Y-95890286D01*
X169237715Y-96055886D01*
X169190485Y-96148580D01*
X169142510Y-96199376D01*
X169074689Y-96216171D01*
X169008554Y-96193634D01*
X168969515Y-96148580D01*
X168922420Y-96056152D01*
X168922287Y-96055890D01*
X168898019Y-96022488D01*
X168801971Y-95890286D01*
X168657213Y-95745528D01*
X168491613Y-95625215D01*
X168491612Y-95625214D01*
X168491610Y-95625213D01*
X168434653Y-95596191D01*
X168309223Y-95532281D01*
X168114534Y-95469022D01*
X167939621Y-95441319D01*
X167912352Y-95437000D01*
X167707648Y-95437000D01*
X167683329Y-95440851D01*
X167505465Y-95469022D01*
X167310776Y-95532281D01*
X167128386Y-95625215D01*
X166962786Y-95745528D01*
X166818028Y-95890286D01*
X166697715Y-96055886D01*
X166604781Y-96238276D01*
X166541522Y-96432965D01*
X166509500Y-96635148D01*
X166509500Y-96839851D01*
X166541522Y-97042034D01*
X166604781Y-97236723D01*
X166663197Y-97351368D01*
X166697585Y-97418859D01*
X166697715Y-97419113D01*
X166818028Y-97584713D01*
X166818034Y-97584719D01*
X166962781Y-97729466D01*
X166962786Y-97729470D01*
X166964827Y-97731213D01*
X166965388Y-97732073D01*
X166966226Y-97732911D01*
X166966050Y-97733086D01*
X167003017Y-97789722D01*
X167003513Y-97859590D01*
X166966157Y-97918635D01*
X166902808Y-97948110D01*
X166884291Y-97949500D01*
X160779766Y-97949500D01*
X160712727Y-97929815D01*
X160710875Y-97928602D01*
X160579185Y-97840609D01*
X160579172Y-97840602D01*
X160433501Y-97780264D01*
X160433491Y-97780261D01*
X160337665Y-97761200D01*
X160275754Y-97728815D01*
X160241180Y-97668099D01*
X160244920Y-97598329D01*
X160285787Y-97541658D01*
X160316359Y-97524232D01*
X160450553Y-97471313D01*
X160561967Y-97386825D01*
X160627277Y-97362003D01*
X160695641Y-97376431D01*
X160705782Y-97382528D01*
X160820814Y-97459390D01*
X160820827Y-97459397D01*
X160918853Y-97500000D01*
X160966503Y-97519737D01*
X161076707Y-97541658D01*
X161121153Y-97550499D01*
X161121156Y-97550500D01*
X161121158Y-97550500D01*
X161278844Y-97550500D01*
X161278845Y-97550499D01*
X161433497Y-97519737D01*
X161565225Y-97465174D01*
X161579172Y-97459397D01*
X161579172Y-97459396D01*
X161579179Y-97459394D01*
X161710289Y-97371789D01*
X161821789Y-97260289D01*
X161909394Y-97129179D01*
X161969737Y-96983497D01*
X161984268Y-96910446D01*
X162016652Y-96848535D01*
X162077368Y-96813961D01*
X162147138Y-96817700D01*
X162187088Y-96840925D01*
X162224510Y-96873351D01*
X162226706Y-96875254D01*
X162253854Y-96887652D01*
X162357580Y-96935023D01*
X162357583Y-96935023D01*
X162357584Y-96935024D01*
X162500000Y-96955500D01*
X162500003Y-96955500D01*
X164000000Y-96955500D01*
X164071940Y-96950355D01*
X164209992Y-96909819D01*
X164331032Y-96832031D01*
X164425254Y-96723294D01*
X164485024Y-96592416D01*
X164505500Y-96450000D01*
X164505500Y-95884174D01*
X164488275Y-95753338D01*
X164454200Y-95626171D01*
X164403701Y-95504257D01*
X164403698Y-95504252D01*
X164403697Y-95504249D01*
X164403696Y-95504248D01*
X164337879Y-95390250D01*
X164337875Y-95390243D01*
X164291387Y-95329660D01*
X164257544Y-95285555D01*
X164257541Y-95285551D01*
X164164449Y-95192459D01*
X164127197Y-95163874D01*
X164085995Y-95107447D01*
X164081841Y-95037701D01*
X164116054Y-94976781D01*
X164177772Y-94944029D01*
X164202685Y-94941500D01*
X174705500Y-94941500D01*
X174772539Y-94961185D01*
G37*
%TD.AperFunction*%
%TA.AperFunction,Conductor*%
G36*
X152458039Y-94020185D02*
G01*
X152503794Y-94072989D01*
X152508188Y-94093188D01*
X152515000Y-94100000D01*
X153378500Y-94100000D01*
X153445539Y-94119685D01*
X153491294Y-94172489D01*
X153502500Y-94224000D01*
X153502500Y-94350000D01*
X153628500Y-94350000D01*
X153695539Y-94369685D01*
X153741294Y-94422489D01*
X153752500Y-94474000D01*
X153752500Y-94845000D01*
X153766181Y-94858681D01*
X153799666Y-94920004D01*
X153802500Y-94946362D01*
X153802500Y-97376000D01*
X153782815Y-97443039D01*
X153730011Y-97488794D01*
X153678500Y-97500000D01*
X153552500Y-97500000D01*
X153552500Y-97626000D01*
X153532815Y-97693039D01*
X153480011Y-97738794D01*
X153428500Y-97750000D01*
X152515001Y-97750000D01*
X152501820Y-97763181D01*
X152440497Y-97796666D01*
X152414139Y-97799500D01*
X150800098Y-97799500D01*
X150770657Y-97790855D01*
X150740671Y-97784332D01*
X150735655Y-97780577D01*
X150733059Y-97779815D01*
X150712417Y-97763181D01*
X150651819Y-97702583D01*
X150618334Y-97641260D01*
X150615500Y-97614902D01*
X150615500Y-97213345D01*
X152515000Y-97213345D01*
X152515000Y-97250000D01*
X153302500Y-97250000D01*
X153302500Y-96200000D01*
X152515001Y-96200000D01*
X152515001Y-96236654D01*
X152525319Y-96337652D01*
X152579546Y-96501300D01*
X152579551Y-96501311D01*
X152670054Y-96648037D01*
X152670098Y-96648093D01*
X152670116Y-96648138D01*
X152673846Y-96654185D01*
X152672812Y-96654822D01*
X152696236Y-96712889D01*
X152683193Y-96781531D01*
X152670098Y-96801907D01*
X152670054Y-96801962D01*
X152579551Y-96948688D01*
X152579546Y-96948699D01*
X152525319Y-97112347D01*
X152515000Y-97213345D01*
X150615500Y-97213345D01*
X150615500Y-97124900D01*
X150635185Y-97057861D01*
X150674401Y-97019363D01*
X150713350Y-96995340D01*
X150835340Y-96873350D01*
X150925908Y-96726516D01*
X150980174Y-96562753D01*
X150990500Y-96461677D01*
X150990499Y-95863324D01*
X150989948Y-95857934D01*
X150980174Y-95762247D01*
X150959547Y-95700000D01*
X150947401Y-95663345D01*
X152515000Y-95663345D01*
X152515000Y-95700000D01*
X153302500Y-95700000D01*
X153302500Y-95455000D01*
X153288819Y-95441319D01*
X153255334Y-95379996D01*
X153252500Y-95353638D01*
X153252500Y-94600000D01*
X152515001Y-94600000D01*
X152515001Y-94636654D01*
X152525319Y-94737652D01*
X152579546Y-94901300D01*
X152579551Y-94901311D01*
X152670052Y-95048034D01*
X152670055Y-95048038D01*
X152684336Y-95062319D01*
X152717821Y-95123642D01*
X152712837Y-95193334D01*
X152684336Y-95237681D01*
X152670055Y-95251961D01*
X152670052Y-95251965D01*
X152579551Y-95398688D01*
X152579546Y-95398699D01*
X152525319Y-95562347D01*
X152515000Y-95663345D01*
X150947401Y-95663345D01*
X150925908Y-95598484D01*
X150835340Y-95451650D01*
X150721371Y-95337681D01*
X150687886Y-95276358D01*
X150692870Y-95206666D01*
X150721371Y-95162319D01*
X150776661Y-95107029D01*
X150835340Y-95048350D01*
X150925908Y-94901516D01*
X150980174Y-94737753D01*
X150990500Y-94636677D01*
X150990499Y-94262596D01*
X150999145Y-94233150D01*
X151005667Y-94203170D01*
X151009420Y-94198156D01*
X151010183Y-94195558D01*
X151026813Y-94174921D01*
X151164917Y-94036817D01*
X151226239Y-94003334D01*
X151252597Y-94000500D01*
X152391000Y-94000500D01*
X152458039Y-94020185D01*
G37*
%TD.AperFunction*%
%TA.AperFunction,Conductor*%
G36*
X162364354Y-94961185D02*
G01*
X162410109Y-95013989D01*
X162420053Y-95083147D01*
X162391028Y-95146703D01*
X162372802Y-95163875D01*
X162335555Y-95192455D01*
X162335545Y-95192464D01*
X162242464Y-95285545D01*
X162242455Y-95285555D01*
X162162132Y-95390232D01*
X162162120Y-95390250D01*
X162096303Y-95504248D01*
X162096302Y-95504249D01*
X162045800Y-95626170D01*
X162011724Y-95753341D01*
X161994500Y-95884166D01*
X161994500Y-96113059D01*
X161974815Y-96180098D01*
X161922011Y-96225853D01*
X161852853Y-96235797D01*
X161789297Y-96206772D01*
X161782819Y-96200740D01*
X161710292Y-96128213D01*
X161710288Y-96128210D01*
X161579185Y-96040609D01*
X161579172Y-96040602D01*
X161433501Y-95980264D01*
X161433491Y-95980261D01*
X161278151Y-95949362D01*
X161233125Y-95930628D01*
X161223159Y-95923923D01*
X161218716Y-95919480D01*
X161203483Y-95910685D01*
X161199951Y-95908309D01*
X161180238Y-95884568D01*
X161158954Y-95862246D01*
X161158122Y-95857934D01*
X161155316Y-95854554D01*
X161151567Y-95823926D01*
X161145730Y-95793639D01*
X161147362Y-95789561D01*
X161146829Y-95785202D01*
X161160231Y-95757415D01*
X161171698Y-95728775D01*
X161176842Y-95722978D01*
X161177184Y-95722271D01*
X161177813Y-95721884D01*
X161181479Y-95717754D01*
X161921416Y-94977819D01*
X161982739Y-94944334D01*
X162009097Y-94941500D01*
X162297315Y-94941500D01*
X162364354Y-94961185D01*
G37*
%TD.AperFunction*%
%TA.AperFunction,Conductor*%
G36*
X138748039Y-85970184D02*
G01*
X138793794Y-86022988D01*
X138805000Y-86074499D01*
X138805000Y-86450000D01*
X139352828Y-86450000D01*
X139352844Y-86449999D01*
X139412372Y-86443598D01*
X139412376Y-86443597D01*
X139555398Y-86390253D01*
X139556293Y-86392652D01*
X139611395Y-86380665D01*
X139676860Y-86405080D01*
X139690233Y-86416668D01*
X143237939Y-89964374D01*
X143237949Y-89964385D01*
X143242279Y-89968715D01*
X143242280Y-89968716D01*
X143354084Y-90080520D01*
X143410180Y-90112906D01*
X143440895Y-90130639D01*
X143440897Y-90130641D01*
X143491013Y-90159576D01*
X143491015Y-90159577D01*
X143643742Y-90200500D01*
X143643743Y-90200500D01*
X145310709Y-90200500D01*
X145377748Y-90220185D01*
X145423503Y-90272989D01*
X145434067Y-90337103D01*
X145425000Y-90425845D01*
X145425000Y-90525000D01*
X146276000Y-90525000D01*
X146343039Y-90544685D01*
X146388794Y-90597489D01*
X146400000Y-90649000D01*
X146400000Y-90901000D01*
X146380315Y-90968039D01*
X146327511Y-91013794D01*
X146276000Y-91025000D01*
X145425001Y-91025000D01*
X145425001Y-91124154D01*
X145435319Y-91225152D01*
X145489546Y-91388800D01*
X145489551Y-91388811D01*
X145580052Y-91535534D01*
X145580055Y-91535538D01*
X145593982Y-91549465D01*
X145627467Y-91610788D01*
X145622483Y-91680480D01*
X145593984Y-91724825D01*
X145579661Y-91739148D01*
X145489093Y-91885981D01*
X145489091Y-91885986D01*
X145476492Y-91924008D01*
X145434826Y-92049747D01*
X145434826Y-92049748D01*
X145434825Y-92049748D01*
X145424500Y-92150815D01*
X145424500Y-92849169D01*
X145424501Y-92849187D01*
X145434825Y-92950252D01*
X145489092Y-93114015D01*
X145489096Y-93114024D01*
X145521238Y-93166133D01*
X145539679Y-93233525D01*
X145518757Y-93300189D01*
X145465115Y-93344958D01*
X145454706Y-93348935D01*
X145405671Y-93365184D01*
X145405663Y-93365187D01*
X145256342Y-93457289D01*
X145132289Y-93581342D01*
X145040187Y-93730663D01*
X145040185Y-93730668D01*
X145020384Y-93790423D01*
X144985001Y-93897203D01*
X144985001Y-93897204D01*
X144985000Y-93897204D01*
X144974500Y-93999983D01*
X144974500Y-94800001D01*
X144974501Y-94800008D01*
X144975817Y-94812894D01*
X144975818Y-94812896D01*
X144963050Y-94881589D01*
X144915170Y-94932474D01*
X144852460Y-94949500D01*
X144150097Y-94949500D01*
X144083058Y-94929815D01*
X144062416Y-94913181D01*
X142252798Y-93103563D01*
X142219313Y-93042240D01*
X142222547Y-92977566D01*
X142263553Y-92851368D01*
X142291408Y-92675500D01*
X142300500Y-92618097D01*
X142300500Y-92381902D01*
X142263553Y-92148631D01*
X142219722Y-92013735D01*
X142190568Y-91924008D01*
X142190566Y-91924005D01*
X142190566Y-91924003D01*
X142083342Y-91713566D01*
X141944517Y-91522490D01*
X141777510Y-91355483D01*
X141586433Y-91216657D01*
X141564377Y-91205419D01*
X141375996Y-91109433D01*
X141151368Y-91036446D01*
X140918097Y-90999500D01*
X140918092Y-90999500D01*
X140681908Y-90999500D01*
X140681903Y-90999500D01*
X140448628Y-91036447D01*
X140322433Y-91077450D01*
X140252592Y-91079445D01*
X140196435Y-91047200D01*
X137936819Y-88787584D01*
X137903334Y-88726261D01*
X137900500Y-88699903D01*
X137900500Y-86574000D01*
X137920185Y-86506961D01*
X137972989Y-86461206D01*
X138024500Y-86450000D01*
X138505000Y-86450000D01*
X138505000Y-86074499D01*
X138507550Y-86065813D01*
X138506262Y-86056852D01*
X138517240Y-86032811D01*
X138524685Y-86007460D01*
X138531525Y-86001532D01*
X138535287Y-85993296D01*
X138557521Y-85979006D01*
X138577489Y-85961705D01*
X138588003Y-85959417D01*
X138594065Y-85955522D01*
X138628996Y-85950499D01*
X138681001Y-85950499D01*
X138748039Y-85970184D01*
G37*
%TD.AperFunction*%
%TA.AperFunction,Conductor*%
G36*
X155880185Y-89419674D02*
G01*
X155886236Y-89418896D01*
X155912647Y-89431437D01*
X155940140Y-89441400D01*
X155948201Y-89448320D01*
X155949351Y-89448866D01*
X155949938Y-89449811D01*
X155954441Y-89453676D01*
X158478181Y-91977416D01*
X158492884Y-92004343D01*
X158509477Y-92030162D01*
X158510368Y-92036362D01*
X158511666Y-92038739D01*
X158514500Y-92065097D01*
X158514500Y-92240368D01*
X158494815Y-92307407D01*
X158442011Y-92353162D01*
X158372853Y-92363106D01*
X158343048Y-92354929D01*
X158283501Y-92330264D01*
X158283489Y-92330261D01*
X158128845Y-92299500D01*
X158128842Y-92299500D01*
X157971158Y-92299500D01*
X157971155Y-92299500D01*
X157816510Y-92330261D01*
X157816498Y-92330264D01*
X157670827Y-92390602D01*
X157670814Y-92390609D01*
X157539711Y-92478210D01*
X157539707Y-92478213D01*
X157428213Y-92589707D01*
X157428210Y-92589711D01*
X157340609Y-92720814D01*
X157340602Y-92720827D01*
X157280264Y-92866498D01*
X157280261Y-92866510D01*
X157249500Y-93021153D01*
X157249500Y-93178846D01*
X157280261Y-93333489D01*
X157280264Y-93333501D01*
X157340602Y-93479172D01*
X157340609Y-93479185D01*
X157392342Y-93556608D01*
X157395378Y-93566306D01*
X157402034Y-93573987D01*
X157405643Y-93599086D01*
X157413220Y-93623285D01*
X157410531Y-93633085D01*
X157411978Y-93643145D01*
X157401444Y-93666210D01*
X157394736Y-93690666D01*
X157387175Y-93697457D01*
X157382954Y-93706701D01*
X157361622Y-93720410D01*
X157342757Y-93737356D01*
X157331160Y-93739987D01*
X157324176Y-93744476D01*
X157289242Y-93749498D01*
X157289241Y-93749499D01*
X157170943Y-93749499D01*
X157170939Y-93749499D01*
X157163332Y-93749500D01*
X157163331Y-93749499D01*
X157163331Y-93749500D01*
X156289901Y-93749500D01*
X156222862Y-93729815D01*
X156184362Y-93690596D01*
X156160340Y-93651650D01*
X156038351Y-93529661D01*
X156038350Y-93529660D01*
X155921018Y-93457289D01*
X155891518Y-93439093D01*
X155891513Y-93439091D01*
X155890069Y-93438612D01*
X155727753Y-93384826D01*
X155727751Y-93384825D01*
X155626684Y-93374500D01*
X155626677Y-93374500D01*
X155252597Y-93374500D01*
X155185558Y-93354815D01*
X155164916Y-93338181D01*
X154865090Y-93038355D01*
X154865088Y-93038352D01*
X154746217Y-92919481D01*
X154746216Y-92919480D01*
X154654456Y-92866503D01*
X154654455Y-92866502D01*
X154609283Y-92840422D01*
X154553381Y-92825443D01*
X154456557Y-92799499D01*
X154298443Y-92799499D01*
X154290847Y-92799499D01*
X154290831Y-92799500D01*
X151174500Y-92799500D01*
X151107461Y-92779815D01*
X151061706Y-92727011D01*
X151050500Y-92675500D01*
X151050499Y-90324500D01*
X151070184Y-90257461D01*
X151122987Y-90211706D01*
X151174499Y-90200500D01*
X154133741Y-90200500D01*
X154200780Y-90220185D01*
X154246535Y-90272989D01*
X154248302Y-90277048D01*
X154290602Y-90379172D01*
X154290609Y-90379185D01*
X154378210Y-90510288D01*
X154378213Y-90510292D01*
X154489707Y-90621786D01*
X154489711Y-90621789D01*
X154620814Y-90709390D01*
X154620827Y-90709397D01*
X154766498Y-90769735D01*
X154766503Y-90769737D01*
X154910455Y-90798371D01*
X154921153Y-90800499D01*
X154921156Y-90800500D01*
X154921158Y-90800500D01*
X155078844Y-90800500D01*
X155078845Y-90800499D01*
X155233497Y-90769737D01*
X155379179Y-90709394D01*
X155510289Y-90621789D01*
X155621789Y-90510289D01*
X155709394Y-90379179D01*
X155769737Y-90233497D01*
X155800500Y-90078842D01*
X155800500Y-89921158D01*
X155800500Y-89921155D01*
X155800499Y-89921153D01*
X155797426Y-89905703D01*
X155769737Y-89766503D01*
X155750552Y-89720185D01*
X155717674Y-89640809D01*
X155716845Y-89633098D01*
X155712750Y-89626513D01*
X155713162Y-89598848D01*
X155710205Y-89571340D01*
X155713702Y-89562641D01*
X155713792Y-89556652D01*
X155728617Y-89525548D01*
X155728931Y-89524769D01*
X155759394Y-89479179D01*
X155759715Y-89478402D01*
X155763456Y-89472769D01*
X155785834Y-89453954D01*
X155806319Y-89433084D01*
X155812269Y-89431731D01*
X155816937Y-89427807D01*
X155845936Y-89424078D01*
X155874451Y-89417596D01*
X155880185Y-89419674D01*
G37*
%TD.AperFunction*%
%TD*%
M02*
