%TF.GenerationSoftware,KiCad,Pcbnew,9.0.6*%
%TF.CreationDate,2026-04-14T17:42:44-04:00*%
%TF.ProjectId,Smart_Glasses_V2_PCB_RIGHT,536d6172-745f-4476-9c61-737365735f56,rev?*%
%TF.SameCoordinates,Original*%
%TF.FileFunction,Soldermask,Top*%
%TF.FilePolarity,Negative*%
%FSLAX46Y46*%
G04 Gerber Fmt 4.6, Leading zero omitted, Abs format (unit mm)*
G04 Created by KiCad (PCBNEW 9.0.6) date 2026-04-14 17:42:44*
%MOMM*%
%LPD*%
G01*
G04 APERTURE LIST*
G04 Aperture macros list*
%AMRoundRect*
0 Rectangle with rounded corners*
0 $1 Rounding radius*
0 $2 $3 $4 $5 $6 $7 $8 $9 X,Y pos of 4 corners*
0 Add a 4 corners polygon primitive as box body*
4,1,4,$2,$3,$4,$5,$6,$7,$8,$9,$2,$3,0*
0 Add four circle primitives for the rounded corners*
1,1,$1+$1,$2,$3*
1,1,$1+$1,$4,$5*
1,1,$1+$1,$6,$7*
1,1,$1+$1,$8,$9*
0 Add four rect primitives between the rounded corners*
20,1,$1+$1,$2,$3,$4,$5,0*
20,1,$1+$1,$4,$5,$6,$7,0*
20,1,$1+$1,$6,$7,$8,$9,0*
20,1,$1+$1,$8,$9,$2,$3,0*%
%AMFreePoly0*
4,1,23,0.500000,-0.750000,0.000000,-0.750000,0.000000,-0.745722,-0.065263,-0.745722,-0.191342,-0.711940,-0.304381,-0.646677,-0.396677,-0.554381,-0.461940,-0.441342,-0.495722,-0.315263,-0.495722,-0.250000,-0.500000,-0.250000,-0.500000,0.250000,-0.495722,0.250000,-0.495722,0.315263,-0.461940,0.441342,-0.396677,0.554381,-0.304381,0.646677,-0.191342,0.711940,-0.065263,0.745722,0.000000,0.745722,
0.000000,0.750000,0.500000,0.750000,0.500000,-0.750000,0.500000,-0.750000,$1*%
%AMFreePoly1*
4,1,23,0.000000,0.745722,0.065263,0.745722,0.191342,0.711940,0.304381,0.646677,0.396677,0.554381,0.461940,0.441342,0.495722,0.315263,0.495722,0.250000,0.500000,0.250000,0.500000,-0.250000,0.495722,-0.250000,0.495722,-0.315263,0.461940,-0.441342,0.396677,-0.554381,0.304381,-0.646677,0.191342,-0.711940,0.065263,-0.745722,0.000000,-0.745722,0.000000,-0.750000,-0.500000,-0.750000,
-0.500000,0.750000,0.000000,0.750000,0.000000,0.745722,0.000000,0.745722,$1*%
G04 Aperture macros list end*
%ADD10RoundRect,0.237500X-0.250000X-0.237500X0.250000X-0.237500X0.250000X0.237500X-0.250000X0.237500X0*%
%ADD11RoundRect,0.237500X0.300000X0.237500X-0.300000X0.237500X-0.300000X-0.237500X0.300000X-0.237500X0*%
%ADD12RoundRect,0.237500X0.237500X-0.300000X0.237500X0.300000X-0.237500X0.300000X-0.237500X-0.300000X0*%
%ADD13C,2.000000*%
%ADD14FreePoly0,270.000000*%
%ADD15FreePoly1,270.000000*%
%ADD16RoundRect,0.102000X0.650000X-0.150000X0.650000X0.150000X-0.650000X0.150000X-0.650000X-0.150000X0*%
%ADD17RoundRect,0.102000X1.100000X-0.950000X1.100000X0.950000X-1.100000X0.950000X-1.100000X-0.950000X0*%
%ADD18RoundRect,0.237500X-0.237500X0.300000X-0.237500X-0.300000X0.237500X-0.300000X0.237500X0.300000X0*%
%ADD19RoundRect,0.237500X-0.237500X0.250000X-0.237500X-0.250000X0.237500X-0.250000X0.237500X0.250000X0*%
%ADD20RoundRect,0.250000X0.275000X0.350000X-0.275000X0.350000X-0.275000X-0.350000X0.275000X-0.350000X0*%
%ADD21RoundRect,0.250000X-0.350000X0.275000X-0.350000X-0.275000X0.350000X-0.275000X0.350000X0.275000X0*%
%ADD22RoundRect,0.102000X-0.800000X0.800000X-0.800000X-0.800000X0.800000X-0.800000X0.800000X0.800000X0*%
%ADD23C,1.804000*%
%ADD24RoundRect,0.237500X0.250000X0.237500X-0.250000X0.237500X-0.250000X-0.237500X0.250000X-0.237500X0*%
%ADD25RoundRect,0.102000X1.500000X-1.500000X1.500000X1.500000X-1.500000X1.500000X-1.500000X-1.500000X0*%
%ADD26RoundRect,0.059250X-0.177750X0.462750X-0.177750X-0.462750X0.177750X-0.462750X0.177750X0.462750X0*%
%ADD27RoundRect,0.059250X-0.462750X0.177750X-0.462750X-0.177750X0.462750X-0.177750X0.462750X0.177750X0*%
%ADD28RoundRect,0.102000X-0.550000X0.550000X-0.550000X-0.550000X0.550000X-0.550000X0.550000X0.550000X0*%
G04 APERTURE END LIST*
%TO.C,J1*%
G36*
X164000000Y-96450000D02*
G01*
X162500000Y-96450000D01*
X162500000Y-96750000D01*
X164000000Y-96750000D01*
X164000000Y-96450000D01*
G37*
%TD*%
D10*
%TO.C,R1*%
X144175000Y-96500000D03*
X146000000Y-96500000D03*
%TD*%
D11*
%TO.C,C2*%
X155277500Y-95950000D03*
X153552500Y-95950000D03*
%TD*%
D12*
%TO.C,C4*%
X146400000Y-92500000D03*
X146400000Y-90775000D03*
%TD*%
D13*
%TO.C,SW1*%
X134300000Y-92500000D03*
X140800000Y-92500000D03*
X134300000Y-97000000D03*
X140800000Y-97000000D03*
%TD*%
D11*
%TO.C,C1*%
X155277500Y-97500000D03*
X153552500Y-97500000D03*
%TD*%
D14*
%TO.C,J1*%
X163250000Y-95950000D03*
D15*
X163250000Y-97250000D03*
%TD*%
D16*
%TO.C,J2*%
X138655000Y-83300000D03*
X138655000Y-83800000D03*
X138655000Y-84300000D03*
X138655000Y-84800000D03*
X138655000Y-85300000D03*
X138655000Y-85800000D03*
D17*
X135405000Y-87750000D03*
X135405000Y-81350000D03*
%TD*%
D18*
%TO.C,C3*%
X146300000Y-84900000D03*
X146300000Y-86625000D03*
%TD*%
D19*
%TO.C,R3*%
X150015000Y-94337500D03*
X150015000Y-96162500D03*
%TD*%
D20*
%TO.C,FB1*%
X148300000Y-94400000D03*
X146000000Y-94400000D03*
%TD*%
D21*
%TO.C,FB2*%
X146250000Y-80800000D03*
X146250000Y-83100000D03*
%TD*%
D22*
%TO.C,U1*%
X183050000Y-81497500D03*
D23*
X180510000Y-81497500D03*
X177970000Y-81497500D03*
X175430000Y-81497500D03*
X172890000Y-81497500D03*
X170350000Y-81497500D03*
X167810000Y-81497500D03*
X167810000Y-96737500D03*
X170350000Y-96737500D03*
X172890000Y-96737500D03*
X175430000Y-96737500D03*
X177970000Y-96737500D03*
X180510000Y-96737500D03*
X183050000Y-96737500D03*
%TD*%
D24*
%TO.C,R2*%
X155327500Y-94350000D03*
X153502500Y-94350000D03*
%TD*%
D25*
%TO.C,LS1*%
X149050000Y-91540000D03*
X149050000Y-81760000D03*
%TD*%
D26*
%TO.C,U2*%
X159115000Y-94715000D03*
X158615000Y-94715000D03*
X158115000Y-94715000D03*
X157615000Y-94715000D03*
D27*
X156930000Y-95400000D03*
X156930000Y-95900000D03*
X156930000Y-96400000D03*
X156930000Y-96900000D03*
D26*
X157615000Y-97585000D03*
X158115000Y-97585000D03*
X158615000Y-97585000D03*
X159115000Y-97585000D03*
D27*
X159800000Y-96900000D03*
X159800000Y-96400000D03*
X159800000Y-95900000D03*
X159800000Y-95400000D03*
D28*
X158365000Y-96150000D03*
%TD*%
M02*
